UbuntuSans-ThinItalic.ufo
<glyph name="numbersign" format="2">
  <advance width="614"/>
  <unicode hex="0023"/>
  <outline>
    <contour>
      <point x="47" y="0" type="line"/>
      <point x="82" y="0" type="line"/>
      <point x="169" y="195" type="line"/>
      <point x="366" y="195" type="line"/>
      <point x="282" y="0" type="line"/>
      <point x="317" y="0" type="line"/>
      <point x="401" y="195" type="line"/>
      <point x="550" y="195" type="line"/>
      <point x="557" y="227" type="line"/>
      <point x="417" y="227" type="line"/>
      <point x="518" y="465" type="line"/>
      <point x="612" y="465" type="line"/>
      <point x="623" y="497" type="line"/>
      <point x="532" y="497" type="line"/>
      <point x="615" y="693" type="line"/>
      <point x="581" y="693" type="line"/>
      <point x="493" y="497" type="line"/>
      <point x="299" y="497" type="line"/>
      <point x="383" y="693" type="line"/>
      <point x="348" y="693" type="line"/>
      <point x="264" y="497" type="line"/>
      <point x="110" y="497" type="line"/>
      <point x="99" y="465" type="line"/>
      <point x="250" y="465" type="line"/>
      <point x="145" y="227" type="line"/>
      <point x="43" y="227" type="line"/>
      <point x="37" y="195" type="line"/>
      <point x="131" y="195" type="line"/>
    </contour>
    <contour>
      <point x="183" y="227" type="line"/>
      <point x="284" y="465" type="line"/>
      <point x="480" y="465" type="line"/>
      <point x="379" y="227" type="line"/>
    </contour>
  </outline>
</glyph>
<glyph name="percent" format="2">
  <advance width="754"/>
  <unicode hex="0025"/>
  <outline>
    <contour>
      <point x="105" y="0" type="line"/>
      <point x="144" y="0" type="line"/>
      <point x="685" y="692" type="line"/>
      <point x="646" y="692" type="line"/>
    </contour>
    <contour>
      <point x="506" y="-15" type="curve" smooth="yes"/>
      <point x="624" y="-15"/>
      <point x="696" y="118"/>
      <point x="696" y="210" type="curve" smooth="yes"/>
      <point x="696" y="283"/>
      <point x="665" y="331"/>
      <point x="593" y="331" type="curve"/>
      <point x="474" y="331"/>
      <point x="404" y="195"/>
      <point x="404" y="104" type="curve" smooth="yes"/>
      <point x="404" y="29"/>
      <point x="437" y="-15"/>
    </contour>
    <contour>
      <point x="511" y="17" type="curve" smooth="yes"/>
      <point x="463" y="17"/>
      <point x="438" y="44"/>
      <point x="438" y="108" type="curve" smooth="yes"/>
      <point x="438" y="210"/>
      <point x="511" y="299"/>
      <point x="587" y="299" type="curve" smooth="yes"/>
      <point x="636" y="299"/>
      <point x="662" y="270"/>
      <point x="662" y="207" type="curve" smooth="yes"/>
      <point x="662" y="106"/>
      <point x="587" y="17"/>
    </contour>
    <contour>
      <point x="189" y="362" type="curve" smooth="yes"/>
      <point x="307" y="362"/>
      <point x="379" y="495"/>
      <point x="379" y="587" type="curve" smooth="yes"/>
      <point x="379" y="660"/>
      <point x="348" y="708"/>
      <point x="276" y="708" type="curve"/>
      <point x="157" y="708"/>
      <point x="87" y="572"/>
      <point x="87" y="481" type="curve" smooth="yes"/>
      <point x="87" y="406"/>
      <point x="120" y="362"/>
    </contour>
    <contour>
      <point x="194" y="394" type="curve" smooth="yes"/>
      <point x="146" y="394"/>
      <point x="121" y="421"/>
      <point x="121" y="485" type="curve" smooth="yes"/>
      <point x="121" y="587"/>
      <point x="194" y="676"/>
      <point x="270" y="676" type="curve" smooth="yes"/>
      <point x="319" y="676"/>
      <point x="345" y="647"/>
      <point x="345" y="584" type="curve" smooth="yes"/>
      <point x="345" y="483"/>
      <point x="270" y="394"/>
    </contour>
  </outline>
</glyph>
<glyph name="ampersand" format="2">
  <advance width="628"/>
  <unicode hex="0026"/>
  <outline>
    <contour>
      <point x="204" y="-9" type="curve" smooth="yes"/>
      <point x="283" y="-9"/>
      <point x="367" y="30"/>
      <point x="443" y="103" type="curve"/>
      <point x="465" y="72"/>
      <point x="487" y="35"/>
      <point x="499" y="0" type="curve"/>
      <point x="536" y="0" type="line"/>
      <point x="515" y="52"/>
      <point x="495" y="81"/>
      <point x="465" y="130" type="curve"/>
      <point x="512" y="185"/>
      <point x="551" y="247"/>
      <point x="576" y="310" type="curve"/>
      <point x="543" y="313" type="line"/>
      <point x="516" y="250"/>
      <point x="481" y="200"/>
      <point x="446" y="154" type="curve"/>
      <point x="295" y="360" type="line"/>
      <point x="297" y="361" type="line"/>
      <point x="478" y="446"/>
      <point x="499" y="516"/>
      <point x="499" y="582" type="curve" smooth="yes"/>
      <point x="499" y="650"/>
      <point x="447" y="706"/>
      <point x="383" y="706" type="curve" smooth="yes"/>
      <point x="274" y="706"/>
      <point x="198" y="628"/>
      <point x="198" y="518" type="curve" smooth="yes"/>
      <point x="198" y="474"/>
      <point x="213" y="423"/>
      <point x="244" y="375" type="curve"/>
      <point x="241" y="374" type="line"/>
      <point x="82" y="299"/>
      <point x="46" y="219"/>
      <point x="46" y="143" type="curve" smooth="yes"/>
      <point x="46" y="51"/>
      <point x="108" y="-9"/>
    </contour>
    <contour>
      <point x="205" y="23" type="curve" smooth="yes"/>
      <point x="125" y="23"/>
      <point x="81" y="66"/>
      <point x="81" y="145" type="curve" smooth="yes"/>
      <point x="81" y="247"/>
      <point x="178" y="311"/>
      <point x="254" y="348" type="curve"/>
      <point x="261" y="351" type="line"/>
      <point x="424" y="129" type="line"/>
      <point x="355" y="64"/>
      <point x="282" y="23"/>
    </contour>
    <contour>
      <point x="278" y="384" type="line"/>
      <point x="246" y="424"/>
      <point x="233" y="481"/>
      <point x="233" y="532" type="curve" smooth="yes"/>
      <point x="233" y="612"/>
      <point x="296" y="674"/>
      <point x="377" y="674" type="curve" smooth="yes"/>
      <point x="432" y="674"/>
      <point x="464" y="640"/>
      <point x="464" y="581" type="curve" smooth="yes"/>
      <point x="464" y="531"/>
      <point x="450" y="461"/>
      <point x="290" y="389" type="curve"/>
    </contour>
  </outline>
</glyph>
<glyph name="parenright" format="2">
  <advance width="289"/>
  <unicode hex="0029"/>
  <outline>
    <contour>
      <point x="-66" y="-175" type="line"/>
      <point x="131" y="-1"/>
      <point x="233" y="237"/>
      <point x="233" y="475" type="curve" smooth="yes"/>
      <point x="233" y="582"/>
      <point x="212" y="679"/>
      <point x="176" y="781" type="curve"/>
      <point x="145" y="770" type="line"/>
      <point x="179" y="678"/>
      <point x="198" y="571"/>
      <point x="198" y="475" type="curve" smooth="yes"/>
      <point x="198" y="248"/>
      <point x="99" y="13"/>
      <point x="-93" y="-157" type="curve"/>
    </contour>
  </outline>
</glyph>
<glyph name="asterisk" format="2">
  <advance width="409"/>
  <unicode hex="002A"/>
  <outline>
    <contour>
      <point x="168" y="330" type="line"/>
      <point x="214" y="393"/>
      <point x="243" y="436"/>
      <point x="265" y="481" type="curve"/>
      <point x="288" y="435"/>
      <point x="315" y="394"/>
      <point x="362" y="330" type="curve"/>
      <point x="391" y="351" type="line"/>
      <point x="345" y="417"/>
      <point x="316" y="451"/>
      <point x="281" y="491" type="curve"/>
      <point x="374" y="515"/>
      <point x="379" y="515"/>
      <point x="451" y="539" type="curve"/>
      <point x="439" y="574" type="line"/>
      <point x="365" y="549"/>
      <point x="323" y="533"/>
      <point x="275" y="513" type="curve"/>
      <point x="283" y="568"/>
      <point x="283" y="606"/>
      <point x="283" y="693" type="curve"/>
      <point x="247" y="693" type="line"/>
      <point x="247" y="606"/>
      <point x="247" y="568"/>
      <point x="255" y="513" type="curve"/>
      <point x="203" y="534"/>
      <point x="176" y="546"/>
      <point x="91" y="574" type="curve"/>
      <point x="79" y="539" type="line"/>
      <point x="155" y="514"/>
      <point x="170" y="511"/>
      <point x="249" y="491" type="curve"/>
      <point x="212" y="448"/>
      <point x="188" y="420"/>
      <point x="140" y="351" type="curve"/>
    </contour>
  </outline>
</glyph>
<glyph name="zero" format="2">
  <advance width="564"/>
  <unicode hex="0030"/>
  <outline>
    <contour>
      <point x="216" y="-14" type="curve" smooth="yes"/>
      <point x="397" y="-14"/>
      <point x="514" y="288"/>
      <point x="514" y="498" type="curve" smooth="yes"/>
      <point x="514" y="623"/>
      <point x="476" y="705"/>
      <point x="366" y="706" type="curve"/>
      <point x="178" y="706"/>
      <point x="67" y="402"/>
      <point x="67" y="196" type="curve" smooth="yes"/>
      <point x="67" y="63"/>
      <point x="108" y="-14"/>
    </contour>
    <contour>
      <point x="215" y="18" type="curve" smooth="yes"/>
      <point x="142" y="18"/>
      <point x="103" y="72"/>
      <point x="103" y="198" type="curve" smooth="yes"/>
      <point x="103" y="453"/>
      <point x="238" y="674"/>
      <point x="363" y="674" type="curve" smooth="yes"/>
      <point x="439" y="674"/>
      <point x="478" y="620"/>
      <point x="478" y="494" type="curve" smooth="yes"/>
      <point x="478" y="240"/>
      <point x="343" y="18"/>
    </contour>
  </outline>
</glyph>
<glyph name="four" format="2">
  <advance width="564"/>
  <unicode hex="0034"/>
  <outline>
    <contour>
      <point x="309" y="0" type="line"/>
      <point x="344" y="0" type="line"/>
      <point x="391" y="194" type="line"/>
      <point x="473" y="194" type="line"/>
      <point x="483" y="226" type="line"/>
      <point x="398" y="226" type="line"/>
      <point x="510" y="693" type="line"/>
      <point x="474" y="693" type="line"/>
      <point x="303" y="560"/>
      <point x="136" y="368"/>
      <point x="50" y="215" type="curve"/>
      <point x="45" y="194" type="line"/>
      <point x="356" y="194" type="line"/>
    </contour>
    <contour>
      <point x="96" y="226" type="line"/>
      <point x="187" y="388"/>
      <point x="345" y="550"/>
      <point x="462" y="639" type="curve"/>
      <point x="363" y="226" type="line"/>
    </contour>
  </outline>
</glyph>
<glyph name="five" format="2">
  <advance width="564"/>
  <unicode hex="0035"/>
  <outline>
    <contour>
      <point x="177" y="-15" type="curve" smooth="yes"/>
      <point x="303" y="-15"/>
      <point x="440" y="59"/>
      <point x="440" y="225" type="curve" smooth="yes"/>
      <point x="440" y="356"/>
      <point x="338" y="405"/>
      <point x="213" y="416" type="curve"/>
      <point x="241" y="496"/>
      <point x="269" y="577"/>
      <point x="291" y="659" type="curve"/>
      <point x="531" y="659" type="line"/>
      <point x="538" y="693" type="line"/>
      <point x="266" y="693" type="line"/>
      <point x="237" y="590"/>
      <point x="205" y="488"/>
      <point x="169" y="388" type="curve"/>
      <point x="323" y="383"/>
      <point x="405" y="329"/>
      <point x="405" y="220" type="curve" smooth="yes"/>
      <point x="405" y="85"/>
      <point x="284" y="17"/>
      <point x="178" y="17" type="curve" smooth="yes"/>
      <point x="130" y="17"/>
      <point x="82" y="23"/>
      <point x="41" y="48" type="curve"/>
      <point x="26" y="16" type="line"/>
      <point x="73" y="-6"/>
      <point x="125" y="-15"/>
    </contour>
  </outline>
</glyph>
<glyph name="six" format="2">
  <advance width="564"/>
  <unicode hex="0036"/>
  <outline>
    <contour>
      <point x="244" y="-15" type="curve" smooth="yes"/>
      <point x="380" y="-15"/>
      <point x="479" y="89"/>
      <point x="479" y="232" type="curve" smooth="yes"/>
      <point x="479" y="349"/>
      <point x="421" y="411"/>
      <point x="312" y="411" type="curve" smooth="yes"/>
      <point x="252" y="411"/>
      <point x="191" y="392"/>
      <point x="134" y="356" type="curve"/>
      <point x="192" y="520"/>
      <point x="338" y="639"/>
      <point x="530" y="666" type="curve"/>
      <point x="533" y="696" type="line"/>
      <point x="264" y="667"/>
      <point x="71" y="456"/>
      <point x="71" y="192" type="curve" smooth="yes"/>
      <point x="71" y="67"/>
      <point x="140" y="-15"/>
    </contour>
    <contour>
      <point x="245" y="17" type="curve"/>
      <point x="161" y="17"/>
      <point x="106" y="86"/>
      <point x="106" y="192" type="curve" smooth="yes"/>
      <point x="106" y="237"/>
      <point x="112" y="280"/>
      <point x="123" y="321" type="curve"/>
      <point x="196" y="363"/>
      <point x="257" y="379"/>
      <point x="312" y="379" type="curve" smooth="yes"/>
      <point x="399" y="379"/>
      <point x="444" y="329"/>
      <point x="444" y="231" type="curve" smooth="yes"/>
      <point x="444" y="109"/>
      <point x="359" y="17"/>
    </contour>
  </outline>
</glyph>
<glyph name="eight" format="2">
  <advance width="564"/>
  <unicode hex="0038"/>
  <outline>
    <contour>
      <point x="216" y="-15" type="curve" smooth="yes"/>
      <point x="354" y="-15"/>
      <point x="458" y="79"/>
      <point x="458" y="203" type="curve" smooth="yes"/>
      <point x="458" y="250"/>
      <point x="431" y="299"/>
      <point x="352" y="339" type="curve"/>
      <point x="477" y="399"/>
      <point x="527" y="479"/>
      <point x="527" y="562" type="curve" smooth="yes"/>
      <point x="527" y="656"/>
      <point x="471" y="706"/>
      <point x="364" y="706" type="curve" smooth="yes"/>
      <point x="238" y="706"/>
      <point x="142" y="615"/>
      <point x="142" y="496" type="curve" smooth="yes"/>
      <point x="142" y="424"/>
      <point x="177" y="390"/>
      <point x="224" y="362" type="curve"/>
      <point x="97" y="304"/>
      <point x="42" y="235"/>
      <point x="42" y="137" type="curve" smooth="yes"/>
      <point x="42" y="42"/>
      <point x="107" y="-15"/>
    </contour>
    <contour>
      <point x="218" y="17" type="curve" smooth="yes"/>
      <point x="128" y="17"/>
      <point x="77" y="63"/>
      <point x="77" y="144" type="curve" smooth="yes"/>
      <point x="77" y="225"/>
      <point x="124" y="288"/>
      <point x="251" y="350" type="curve"/>
      <point x="328" y="317"/>
      <point x="423" y="290"/>
      <point x="423" y="196" type="curve" smooth="yes"/>
      <point x="423" y="96"/>
      <point x="332" y="17"/>
    </contour>
    <contour>
      <point x="327" y="353" type="curve"/>
      <point x="253" y="377"/>
      <point x="177" y="413"/>
      <point x="177" y="497" type="curve" smooth="yes"/>
      <point x="177" y="601"/>
      <point x="253" y="674"/>
      <point x="361" y="674" type="curve" smooth="yes"/>
      <point x="448" y="674"/>
      <point x="492" y="634"/>
      <point x="492" y="556" type="curve" smooth="yes"/>
      <point x="492" y="478"/>
      <point x="433" y="407"/>
    </contour>
  </outline>
</glyph>
<glyph name="A" format="2">
  <advance width="594"/>
  <unicode hex="0041"/>
  <anchor x="245" y="0" name="bottom"/>
  <anchor x="414" y="10" name="ogonek"/>
  <anchor x="398" y="669" name="top"/>
  <outline>
    <contour>
      <point x="-34" y="0" type="curve"/>
      <point x="3" y="0" type="line"/>
      <point x="38" y="66"/>
      <point x="75" y="128"/>
      <point x="119" y="204" type="curve"/>
      <point x="465" y="204" type="line"/>
      <point x="477" y="121"/>
      <point x="485" y="59"/>
      <point x="491" y="0" type="curve"/>
      <point x="527" y="0" type="line"/>
      <point x="496" y="279"/>
      <point x="459" y="498"/>
      <point x="429" y="693" type="curve"/>
      <point x="389" y="693" type="line"/>
      <point x="251" y="485"/>
      <point x="85" y="225"/>
    </contour>
    <contour>
      <point x="139" y="238" type="line"/>
      <point x="228" y="387"/>
      <point x="311" y="520"/>
      <point x="402" y="654" type="curve"/>
      <point x="424" y="508"/>
      <point x="442" y="385"/>
      <point x="462" y="238" type="curve"/>
    </contour>
  </outline>
</glyph>
<glyph name="B" format="2">
  <advance width="579"/>
  <unicode hex="0042"/>
  <outline>
    <contour>
      <point x="179" y="-3" type="curve" smooth="yes"/>
      <point x="339" y="-3"/>
      <point x="507" y="46"/>
      <point x="507" y="204" type="curve" smooth="yes"/>
      <point x="507" y="280"/>
      <point x="462" y="335"/>
      <point x="368" y="358" type="curve"/>
      <point x="462" y="372"/>
      <point x="554" y="437"/>
      <point x="554" y="542" type="curve" smooth="yes"/>
      <point x="554" y="667"/>
      <point x="445" y="697"/>
      <point x="328" y="697" type="curve" smooth="yes"/>
      <point x="268" y="697"/>
      <point x="218" y="688"/>
      <point x="189" y="682" type="curve"/>
      <point x="29" y="13" type="line"/>
      <point x="73" y="3"/>
      <point x="126" y="-3"/>
    </contour>
    <contour>
      <point x="179" y="31" type="curve" smooth="yes"/>
      <point x="134" y="31"/>
      <point x="102" y="35"/>
      <point x="71" y="40" type="curve"/>
      <point x="144" y="343" type="line"/>
      <point x="273" y="343" type="line" smooth="yes"/>
      <point x="407" y="343"/>
      <point x="470" y="277"/>
      <point x="470" y="202" type="curve" smooth="yes"/>
      <point x="470" y="66"/>
      <point x="314" y="31"/>
    </contour>
    <contour>
      <point x="152" y="377" type="line"/>
      <point x="219" y="655" type="line"/>
      <point x="248" y="659"/>
      <point x="288" y="663"/>
      <point x="329" y="663" type="curve" smooth="yes"/>
      <point x="451" y="663"/>
      <point x="517" y="629"/>
      <point x="517" y="540" type="curve" smooth="yes"/>
      <point x="517" y="438"/>
      <point x="426" y="377"/>
      <point x="241" y="377" type="curve" smooth="yes"/>
    </contour>
  </outline>
</glyph>
<glyph name="H" format="2">
  <advance width="641"/>
  <unicode hex="0048"/>
  <anchor x="254" y="0" name="bottom"/>
  <anchor x="335" y="347" name="center"/>
  <anchor x="416" y="669" name="top"/>
  <anchor x="63" y="693" name="topleft"/>
  <outline>
    <contour>
      <point x="26" y="0" type="line"/>
      <point x="63" y="0" type="line"/>
      <point x="146" y="346" type="line"/>
      <point x="538" y="346" type="line"/>
      <point x="455" y="0" type="line"/>
      <point x="492" y="0" type="line"/>
      <point x="657" y="693" type="line"/>
      <point x="620" y="693" type="line"/>
      <point x="545" y="380" type="line"/>
      <point x="153" y="380" type="line"/>
      <point x="229" y="693" type="line"/>
      <point x="192" y="693" type="line"/>
    </contour>
  </outline>
</glyph>
<glyph name="P" format="2">
  <advance width="541"/>
  <unicode hex="0050"/>
  <outline>
    <contour>
      <point x="26" y="0" type="line"/>
      <point x="63" y="0" type="line"/>
      <point x="129" y="279" type="line"/>
      <point x="241" y="279" type="line" smooth="yes"/>
      <point x="455" y="279"/>
      <point x="562" y="400"/>
      <point x="562" y="530" type="curve" smooth="yes"/>
      <point x="562" y="638"/>
      <point x="485" y="697"/>
      <point x="343" y="697" type="curve" smooth="yes"/>
      <point x="286" y="697"/>
      <point x="229" y="691"/>
      <point x="189" y="682" type="curve"/>
    </contour>
    <contour>
      <point x="138" y="313" type="line"/>
      <point x="219" y="656" type="line"/>
      <point x="258" y="662"/>
      <point x="304" y="663"/>
      <point x="340" y="663" type="curve" smooth="yes"/>
      <point x="466" y="663"/>
      <point x="525" y="623"/>
      <point x="525" y="524" type="curve" smooth="yes"/>
      <point x="525" y="397"/>
      <point x="421" y="313"/>
      <point x="244" y="313" type="curve" smooth="yes"/>
    </contour>
  </outline>
</glyph>
<glyph name="Q" format="2">
  <advance width="752"/>
  <unicode hex="0051"/>
  <outline>
    <contour>
      <point x="509" y="-184" type="curve"/>
      <point x="523" y="-152" type="line"/>
      <point x="425" y="-140"/>
      <point x="331" y="-121"/>
      <point x="331" y="-34" type="curve" smooth="yes"/>
      <point x="331" y="-29"/>
      <point x="333" y="-18"/>
      <point x="335" y="-10" type="curve"/>
      <point x="571" y="1"/>
      <point x="709" y="215"/>
      <point x="709" y="449" type="curve" smooth="yes"/>
      <point x="709" y="592"/>
      <point x="624" y="703"/>
      <point x="478" y="703" type="curve" smooth="yes"/>
      <point x="231" y="703"/>
      <point x="86" y="482"/>
      <point x="86" y="238" type="curve" smooth="yes"/>
      <point x="86" y="104"/>
      <point x="164" y="-1"/>
      <point x="298" y="-9" type="curve"/>
      <point x="297" y="-15"/>
      <point x="295" y="-28"/>
      <point x="295" y="-38" type="curve" smooth="yes"/>
      <point x="295" y="-145"/>
      <point x="412" y="-170"/>
    </contour>
    <contour>
      <point x="320" y="24" type="curve" smooth="yes"/>
      <point x="201" y="24"/>
      <point x="124" y="114"/>
      <point x="124" y="239" type="curve" smooth="yes"/>
      <point x="124" y="457"/>
      <point x="243" y="669"/>
      <point x="477" y="669" type="curve" smooth="yes"/>
      <point x="597" y="669"/>
      <point x="671" y="576"/>
      <point x="671" y="449" type="curve" smooth="yes"/>
      <point x="671" y="233"/>
      <point x="551" y="24"/>
    </contour>
  </outline>
</glyph>
<glyph name="S" format="2">
  <advance width="465"/>
  <unicode hex="0053"/>
  <anchor x="179" y="0" name="bottom"/>
  <anchor x="349" y="669" name="top"/>
  <outline>
    <contour>
      <point x="159" y="-9" type="curve" smooth="yes"/>
      <point x="349" y="-9"/>
      <point x="414" y="108"/>
      <point x="414" y="194" type="curve" smooth="yes"/>
      <point x="414" y="301"/>
      <point x="345" y="336"/>
      <point x="276" y="372" type="curve" smooth="yes"/>
      <point x="214" y="404"/>
      <point x="159" y="440"/>
      <point x="159" y="520" type="curve" smooth="yes"/>
      <point x="159" y="624"/>
      <point x="259" y="669"/>
      <point x="364" y="669" type="curve" smooth="yes"/>
      <point x="409" y="669"/>
      <point x="453" y="658"/>
      <point x="493" y="638" type="curve"/>
      <point x="510" y="670" type="line"/>
      <point x="463" y="691"/>
      <point x="414" y="703"/>
      <point x="363" y="703" type="curve" smooth="yes"/>
      <point x="195" y="703"/>
      <point x="122" y="602"/>
      <point x="122" y="519" type="curve" smooth="yes"/>
      <point x="122" y="413"/>
      <point x="202" y="371"/>
      <point x="269" y="338" type="curve" smooth="yes"/>
      <point x="327" y="309"/>
      <point x="377" y="275"/>
      <point x="377" y="194" type="curve" smooth="yes"/>
      <point x="377" y="77"/>
      <point x="270" y="24"/>
      <point x="159" y="24" type="curve" smooth="yes"/>
      <point x="106" y="24"/>
      <point x="55" y="37"/>
      <point x="11" y="68" type="curve"/>
      <point x="-7" y="38" type="line"/>
      <point x="44" y="7"/>
      <point x="100" y="-9"/>
    </contour>
  </outline>
</glyph>
<glyph name="T" format="2">
  <advance width="504"/>
  <unicode hex="0054"/>
  <anchor x="193" y="0" name="bottom"/>
  <anchor x="212" y="347" name="center"/>
  <anchor x="346" y="669" name="top"/>
  <outline>
    <contour>
      <point x="176" y="0" type="line"/>
      <point x="213" y="0" type="line"/>
      <point x="371" y="660" type="line"/>
      <point x="582" y="660" type="line"/>
      <point x="590" y="693" type="line"/>
      <point x="129" y="693" type="line"/>
      <point x="122" y="660" type="line"/>
      <point x="334" y="660" type="line"/>
    </contour>
  </outline>
</glyph>
<glyph name="W" format="2">
  <advance width="842"/>
  <unicode hex="0057"/>
  <anchor x="367" y="0" name="bottom"/>
  <anchor x="516" y="669" name="top"/>
  <outline>
    <contour>
      <point x="129" y="0" type="curve"/>
      <point x="174" y="0" type="line"/>
      <point x="293" y="178"/>
      <point x="384" y="331"/>
      <point x="494" y="539" type="curve"/>
      <point x="511" y="312"/>
      <point x="539" y="131"/>
      <point x="566" y="0" type="curve"/>
      <point x="607" y="0" type="line"/>
      <point x="716" y="195"/>
      <point x="820" y="419"/>
      <point x="928" y="693" type="curve"/>
      <point x="890" y="693" type="line"/>
      <point x="800" y="464"/>
      <point x="693" y="228"/>
      <point x="593" y="46" type="curve"/>
      <point x="566" y="196"/>
      <point x="539" y="395"/>
      <point x="524" y="604" type="curve"/>
      <point x="490" y="604" type="line"/>
      <point x="353" y="355"/>
      <point x="293" y="240"/>
      <point x="162" y="43" type="curve"/>
      <point x="146" y="250"/>
      <point x="152" y="487"/>
      <point x="165" y="693" type="curve"/>
      <point x="129" y="693" type="line"/>
      <point x="114" y="452"/>
      <point x="107" y="227"/>
    </contour>
  </outline>
</glyph>
<glyph name="X" format="2">
  <advance width="509"/>
  <unicode hex="0058"/>
  <outline>
    <contour>
      <point x="-51" y="0" type="line"/>
      <point x="-6" y="0" type="line"/>
      <point x="275" y="337" type="line"/>
      <point x="337" y="194"/>
      <point x="387" y="63"/>
      <point x="410" y="0" type="curve"/>
      <point x="448" y="0" type="line"/>
      <point x="407" y="106"/>
      <point x="360" y="230"/>
      <point x="303" y="361" type="curve"/>
      <point x="408" y="479"/>
      <point x="489" y="577"/>
      <point x="581" y="693" type="curve"/>
      <point x="538" y="693" type="line"/>
      <point x="472" y="603"/>
      <point x="393" y="510"/>
      <point x="289" y="392" type="curve"/>
      <point x="161" y="693" type="line"/>
      <point x="123" y="693" type="line"/>
      <point x="260" y="369" type="line"/>
    </contour>
  </outline>
</glyph>
<glyph name="Y" format="2">
  <advance width="523"/>
  <unicode hex="0059"/>
  <anchor x="200" y="0" name="bottom"/>
  <anchor x="357" y="669" name="top"/>
  <anchor x="63" y="693" name="topleft"/>
  <outline>
    <contour>
      <point x="181" y="0" type="line"/>
      <point x="218" y="0" type="line"/>
      <point x="286" y="283" type="line"/>
      <point x="421" y="428"/>
      <point x="527" y="562"/>
      <point x="622" y="693" type="curve"/>
      <point x="579" y="693" type="line"/>
      <point x="516" y="597"/>
      <point x="384" y="440"/>
      <point x="273" y="316" type="curve"/>
      <point x="228" y="443"/>
      <point x="189" y="571"/>
      <point x="161" y="693" type="curve"/>
      <point x="125" y="693" type="line"/>
      <point x="155" y="554"/>
      <point x="197" y="428"/>
      <point x="249" y="283" type="curve"/>
    </contour>
  </outline>
</glyph>
<glyph name="bracketleft" format="2">
  <advance width="286"/>
  <unicode hex="005B"/>
  <outline>
    <contour>
      <point x="8" y="-185" type="line"/>
      <point x="184" y="-185" type="line"/>
      <point x="191" y="-155" type="line"/>
      <point x="49" y="-155" type="line"/>
      <point x="267" y="753" type="line"/>
      <point x="409" y="753" type="line"/>
      <point x="416" y="783" type="line"/>
      <point x="240" y="783" type="line"/>
    </contour>
  </outline>
</glyph>
<glyph name="a" format="2">
  <advance width="501"/>
  <unicode hex="0061"/>
  <anchor x="189" y="0" name="bottom"/>
  <anchor x="330" y="10" name="ogonek"/>
  <anchor x="313" y="513" name="top"/>
  <outline>
    <contour>
      <point x="189" y="-6" type="curve" smooth="yes"/>
      <point x="238" y="-6"/>
      <point x="294" y="6"/>
      <point x="355" y="63" type="curve"/>
      <point x="357" y="38"/>
      <point x="364" y="17"/>
      <point x="373" y="-4" type="curve"/>
      <point x="408" y="1" type="line"/>
      <point x="383" y="71"/>
      <point x="384" y="121"/>
      <point x="400" y="186" type="curve" smooth="yes"/>
      <point x="479" y="510" type="line"/>
      <point x="451" y="519"/>
      <point x="414" y="525"/>
      <point x="378" y="525" type="curve" smooth="yes"/>
      <point x="167" y="525"/>
      <point x="40" y="371"/>
      <point x="40" y="177" type="curve" smooth="yes"/>
      <point x="40" y="36"/>
      <point x="122" y="-6"/>
    </contour>
    <contour>
      <point x="193" y="26" type="curve" smooth="yes"/>
      <point x="137" y="26"/>
      <point x="76" y="58"/>
      <point x="76" y="177" type="curve" smooth="yes"/>
      <point x="76" y="333"/>
      <point x="171" y="494"/>
      <point x="368" y="494" type="curve" smooth="yes"/>
      <point x="392" y="494"/>
      <point x="411" y="492"/>
      <point x="438" y="486" type="curve"/>
      <point x="380" y="243" type="line" smooth="yes"/>
      <point x="372" y="209"/>
      <point x="355" y="157"/>
      <point x="352" y="97" type="curve"/>
      <point x="297" y="45"/>
      <point x="245" y="26"/>
    </contour>
  </outline>
</glyph>
<glyph name="e" format="2">
  <advance width="476"/>
  <unicode hex="0065"/>
  <anchor x="186" y="0" name="bottom"/>
  <anchor x="307" y="10" name="ogonek"/>
  <anchor x="310" y="513" name="top"/>
  <outline>
    <contour>
      <point x="222" y="-6" type="curve" smooth="yes"/>
      <point x="276" y="-6"/>
      <point x="329" y="5"/>
      <point x="377" y="31" type="curve"/>
      <point x="372" y="64" type="line"/>
      <point x="329" y="39"/>
      <point x="280" y="26"/>
      <point x="230" y="26" type="curve" smooth="yes"/>
      <point x="111" y="26"/>
      <point x="74" y="79"/>
      <point x="74" y="188" type="curve" smooth="yes"/>
      <point x="74" y="188"/>
      <point x="75" y="203"/>
      <point x="76" y="213" type="curve"/>
      <point x="309" y="221"/>
      <point x="461" y="252"/>
      <point x="461" y="399" type="curve" smooth="yes"/>
      <point x="461" y="473"/>
      <point x="418" y="525"/>
      <point x="323" y="525" type="curve" smooth="yes"/>
      <point x="138" y="525"/>
      <point x="39" y="342"/>
      <point x="39" y="173" type="curve" smooth="yes"/>
      <point x="39" y="64"/>
      <point x="95" y="-6"/>
    </contour>
    <contour>
      <point x="80" y="247" type="curve"/>
      <point x="111" y="394"/>
      <point x="193" y="493"/>
      <point x="324" y="493" type="curve" smooth="yes"/>
      <point x="381" y="493"/>
      <point x="425" y="461"/>
      <point x="425" y="398" type="curve" smooth="yes"/>
      <point x="425" y="291"/>
      <point x="330" y="253"/>
    </contour>
  </outline>
</glyph>
<glyph name="k" format="2">
  <advance width="481"/>
  <unicode hex="006B"/>
  <anchor x="187" y="0" name="bottom"/>
  <anchor x="231" y="776" name="top"/>
  <outline>
    <contour>
      <point x="28" y="0" type="line"/>
      <point x="62" y="0" type="line"/>
      <point x="128" y="274" type="line"/>
      <point x="215" y="223"/>
      <point x="312" y="145"/>
      <point x="382" y="0" type="curve"/>
      <point x="417" y="0" type="line"/>
      <point x="386" y="84"/>
      <point x="296" y="208"/>
      <point x="171" y="286" type="curve"/>
      <point x="252" y="335"/>
      <point x="388" y="447"/>
      <point x="441" y="513" type="curve"/>
      <point x="402" y="513" type="line"/>
      <point x="361" y="465"/>
      <point x="237" y="359"/>
      <point x="133" y="294" type="curve"/>
      <point x="249" y="774" type="line"/>
      <point x="213" y="766" type="line"/>
    </contour>
  </outline>
</glyph>
<glyph name="n" format="2">
  <advance width="544"/>
  <unicode hex="006E"/>
  <anchor x="204" y="0" name="bottom"/>
  <anchor x="314" y="513" name="top"/>
  <outline>
    <contour>
      <point x="28" y="0" type="line"/>
      <point x="62" y="0" type="line"/>
      <point x="176" y="473" type="line"/>
      <point x="216" y="485"/>
      <point x="258" y="491"/>
      <point x="301" y="491" type="curve" smooth="yes"/>
      <point x="454" y="491"/>
      <point x="449" y="372"/>
      <point x="411" y="213" type="curve" smooth="yes"/>
      <point x="360" y="0" type="line"/>
      <point x="394" y="0" type="line"/>
      <point x="454" y="247" type="line" smooth="yes"/>
      <point x="495" y="417"/>
      <point x="461" y="523"/>
      <point x="299" y="523" type="curve" smooth="yes"/>
      <point x="262" y="523"/>
      <point x="202" y="514"/>
      <point x="147" y="498" type="curve"/>
    </contour>
  </outline>
</glyph>
<glyph name="o" format="2">
  <advance width="515"/>
  <unicode hex="006F"/>
  <anchor x="196" y="0" name="bottom"/>
  <anchor x="258" y="257" name="center"/>
  <anchor x="343" y="10" name="ogonek"/>
  <anchor x="321" y="513" name="top"/>
  <anchor x="495" y="513" name="topright"/>
  <outline>
    <contour>
      <point x="200" y="-7" type="curve" smooth="yes"/>
      <point x="357" y="-7"/>
      <point x="481" y="150"/>
      <point x="481" y="348" type="curve" smooth="yes"/>
      <point x="481" y="453"/>
      <point x="417" y="525"/>
      <point x="322" y="525" type="curve" smooth="yes"/>
      <point x="161" y="525"/>
      <point x="39" y="372"/>
      <point x="39" y="169" type="curve" smooth="yes"/>
      <point x="39" y="62"/>
      <point x="102" y="-7"/>
    </contour>
    <contour>
      <point x="201" y="25" type="curve" smooth="yes"/>
      <point x="124" y="25"/>
      <point x="75" y="81"/>
      <point x="75" y="169" type="curve" smooth="yes"/>
      <point x="75" y="352"/>
      <point x="182" y="493"/>
      <point x="321" y="493" type="curve" smooth="yes"/>
      <point x="397" y="493"/>
      <point x="445" y="436"/>
      <point x="445" y="346" type="curve" smooth="yes"/>
      <point x="445" y="165"/>
      <point x="339" y="25"/>
    </contour>
  </outline>
</glyph>
<glyph name="q" format="2">
  <advance width="517"/>
  <unicode hex="0071"/>
  <outline>
    <contour>
      <point x="287" y="-185" type="line"/>
      <point x="321" y="-185" type="line"/>
      <point x="489" y="509" type="line"/>
      <point x="462" y="522"/>
      <point x="399" y="525"/>
      <point x="385" y="525" type="curve" smooth="yes"/>
      <point x="123" y="525"/>
      <point x="39" y="326"/>
      <point x="39" y="179" type="curve"/>
      <point x="39" y="92"/>
      <point x="71" y="-6"/>
      <point x="202" y="-6" type="curve" smooth="yes"/>
      <point x="251" y="-6"/>
      <point x="299" y="7"/>
      <point x="340" y="35" type="curve"/>
    </contour>
    <contour>
      <point x="202" y="26" type="curve" smooth="yes"/>
      <point x="88" y="26"/>
      <point x="75" y="114"/>
      <point x="75" y="183" type="curve" smooth="yes"/>
      <point x="75" y="356"/>
      <point x="189" y="494"/>
      <point x="376" y="494" type="curve" smooth="yes"/>
      <point x="397" y="494"/>
      <point x="424" y="492"/>
      <point x="448" y="486" type="curve"/>
      <point x="349" y="76" type="line"/>
      <point x="310" y="39"/>
      <point x="256" y="26"/>
    </contour>
  </outline>
</glyph>
<glyph name="r" format="2">
  <advance width="349"/>
  <unicode hex="0072"/>
  <anchor x="45" y="0" name="bottom"/>
  <anchor x="265" y="513" name="top"/>
  <outline>
    <contour>
      <point x="28" y="0" type="line"/>
      <point x="62" y="0" type="line"/>
      <point x="175" y="470" type="line"/>
      <point x="216" y="486"/>
      <point x="251" y="491"/>
      <point x="289" y="491" type="curve" smooth="yes"/>
      <point x="316" y="491"/>
      <point x="341" y="489"/>
      <point x="364" y="482" type="curve"/>
      <point x="373" y="513" type="line"/>
      <point x="350" y="520"/>
      <point x="319" y="523"/>
      <point x="291" y="523" type="curve" smooth="yes"/>
      <point x="248" y="523"/>
      <point x="195" y="512"/>
      <point x="145" y="491" type="curve"/>
    </contour>
  </outline>
</glyph>
<glyph name="s" format="2">
  <advance width="376"/>
  <unicode hex="0073"/>
  <anchor x="128" y="0" name="bottom"/>
  <anchor x="254" y="513" name="top"/>
  <outline>
    <contour>
      <point x="125" y="-8" type="curve" smooth="yes"/>
      <point x="202" y="-8"/>
      <point x="300" y="29"/>
      <point x="300" y="140" type="curve" smooth="yes"/>
      <point x="300" y="213"/>
      <point x="242" y="244"/>
      <point x="201" y="265" type="curve" smooth="yes"/>
      <point x="157" y="289"/>
      <point x="111" y="314"/>
      <point x="111" y="371" type="curve" smooth="yes"/>
      <point x="111" y="456"/>
      <point x="179" y="493"/>
      <point x="254" y="493" type="curve" smooth="yes"/>
      <point x="291" y="493"/>
      <point x="322" y="487"/>
      <point x="349" y="478" type="curve"/>
      <point x="361" y="509" type="line"/>
      <point x="320" y="521"/>
      <point x="284" y="525"/>
      <point x="252" y="525" type="curve" smooth="yes"/>
      <point x="174" y="525"/>
      <point x="77" y="486"/>
      <point x="77" y="369" type="curve" smooth="yes"/>
      <point x="77" y="283"/>
      <point x="145" y="260"/>
      <point x="196" y="232" type="curve" smooth="yes"/>
      <point x="225" y="216"/>
      <point x="267" y="188"/>
      <point x="267" y="138" type="curve" smooth="yes"/>
      <point x="267" y="55"/>
      <point x="196" y="24"/>
      <point x="130" y="24" type="curve" smooth="yes"/>
      <point x="86" y="24"/>
      <point x="44" y="31"/>
      <point x="2" y="55" type="curve"/>
      <point x="-10" y="24" type="line"/>
      <point x="33" y="1"/>
      <point x="77" y="-8"/>
    </contour>
  </outline>
</glyph>
<glyph name="v" format="2">
  <advance width="428"/>
  <unicode hex="0076"/>
  <outline>
    <contour>
      <point x="137" y="0" type="curve"/>
      <point x="177" y="0" type="line"/>
      <point x="298" y="156"/>
      <point x="403" y="324"/>
      <point x="460" y="513" type="curve"/>
      <point x="425" y="513" type="line"/>
      <point x="371" y="338"/>
      <point x="276" y="181"/>
      <point x="166" y="34" type="curve"/>
      <point x="131" y="191"/>
      <point x="110" y="352"/>
      <point x="110" y="513" type="curve"/>
      <point x="75" y="513" type="line"/>
      <point x="75" y="340"/>
      <point x="102" y="169"/>
    </contour>
  </outline>
</glyph>
<glyph name="w" format="2">
  <advance width="746"/>
  <unicode hex="0077"/>
  <anchor x="306" y="0" name="bottom"/>
  <anchor x="425" y="513" name="top"/>
  <outline>
    <contour>
      <point x="115" y="0" type="curve"/>
      <point x="164" y="0" type="line"/>
      <point x="249" y="114"/>
      <point x="343" y="279"/>
      <point x="412" y="443" type="curve"/>
      <point x="412" y="278"/>
      <point x="422" y="134"/>
      <point x="438" y="0" type="curve"/>
      <point x="487" y="0" type="line"/>
      <point x="580" y="118"/>
      <point x="710" y="293"/>
      <point x="778" y="513" type="curve"/>
      <point x="744" y="513" type="line"/>
      <point x="704" y="371"/>
      <point x="574" y="147"/>
      <point x="469" y="28" type="curve"/>
      <point x="450" y="168"/>
      <point x="444" y="381"/>
      <point x="444" y="513" type="curve"/>
      <point x="402" y="513" type="line"/>
      <point x="352" y="358"/>
      <point x="246" y="169"/>
      <point x="147" y="26" type="curve"/>
      <point x="120" y="146"/>
      <point x="106" y="360"/>
      <point x="106" y="513" type="curve"/>
      <point x="72" y="513" type="line"/>
      <point x="72" y="330"/>
      <point x="85" y="157"/>
    </contour>
  </outline>
</glyph>
<glyph name="braceright" format="2">
  <advance width="285"/>
  <unicode hex="007D"/>
  <outline>
    <contour>
      <point x="-99" y="-196" type="line"/>
      <point x="27" y="-196"/>
      <point x="64" y="-138"/>
      <point x="89" y="-33" type="curve" smooth="yes"/>
      <point x="139" y="176" type="line" smooth="yes"/>
      <point x="151" y="225"/>
      <point x="196" y="275"/>
      <point x="263" y="275" type="curve"/>
      <point x="269" y="303" type="line"/>
      <point x="202" y="303"/>
      <point x="181" y="353"/>
      <point x="193" y="402" type="curve" smooth="yes"/>
      <point x="243" y="610" type="line" smooth="yes"/>
      <point x="268" y="715"/>
      <point x="259" y="773"/>
      <point x="133" y="773" type="curve"/>
      <point x="126" y="743" type="line"/>
      <point x="232" y="743"/>
      <point x="227" y="689"/>
      <point x="213" y="629" type="curve" smooth="yes"/>
      <point x="167" y="437" type="line" smooth="yes"/>
      <point x="142" y="334"/>
      <point x="168" y="310"/>
      <point x="207" y="289" type="curve"/>
      <point x="156" y="270"/>
      <point x="119" y="237"/>
      <point x="95" y="139" type="curve" smooth="yes"/>
      <point x="49" y="-52" type="line" smooth="yes"/>
      <point x="35" y="-111"/>
      <point x="11" y="-166"/>
      <point x="-92" y="-166" type="curve"/>
    </contour>
  </outline>
</glyph>
<glyph name="exclamdown" format="2">
  <advance width="207"/>
  <unicode hex="00A1"/>
  <outline>
    <contour>
      <point x="-18" y="-185" type="line"/>
      <point x="18" y="-185" type="line"/>
      <point x="64" y="15" type="line" smooth="yes"/>
      <point x="92" y="135"/>
      <point x="111" y="231"/>
      <point x="122" y="318" type="curve"/>
      <point x="102" y="318" type="line"/>
      <point x="77" y="231"/>
      <point x="56" y="138"/>
      <point x="28" y="16" type="curve" smooth="yes"/>
    </contour>
    <contour>
      <point x="152" y="442" type="curve"/>
      <point x="177" y="442"/>
      <point x="192" y="464"/>
      <point x="192" y="483" type="curve"/>
      <point x="192" y="500"/>
      <point x="182" y="515"/>
      <point x="156" y="515" type="curve"/>
      <point x="131" y="515"/>
      <point x="117" y="494"/>
      <point x="117" y="475" type="curve"/>
      <point x="117" y="457"/>
      <point x="127" y="442"/>
    </contour>
  </outline>
</glyph>
<glyph name="currency" format="2">
  <advance width="564"/>
  <unicode hex="00A4"/>
  <outline>
    <contour>
      <point x="123" y="121" type="line"/>
      <point x="200" y="201" type="line"/>
      <point x="231" y="176"/>
      <point x="270" y="161"/>
      <point x="315" y="161" type="curve" smooth="yes"/>
      <point x="359" y="161"/>
      <point x="399" y="176"/>
      <point x="430" y="201" type="curve"/>
      <point x="507" y="121" type="line"/>
      <point x="529" y="144" type="line"/>
      <point x="452" y="223" type="line"/>
      <point x="481" y="256"/>
      <point x="496" y="297"/>
      <point x="496" y="346" type="curve" smooth="yes"/>
      <point x="496" y="394"/>
      <point x="479" y="437"/>
      <point x="452" y="469" type="curve"/>
      <point x="529" y="549" type="line"/>
      <point x="507" y="572" type="line"/>
      <point x="430" y="491" type="line"/>
      <point x="399" y="518"/>
      <point x="359" y="532"/>
      <point x="315" y="532" type="curve" smooth="yes"/>
      <point x="270" y="532"/>
      <point x="231" y="518"/>
      <point x="200" y="491" type="curve"/>
      <point x="123" y="572" type="line"/>
      <point x="101" y="549" type="line"/>
      <point x="178" y="469" type="line"/>
      <point x="151" y="436"/>
      <point x="135" y="394"/>
      <point x="135" y="346" type="curve" smooth="yes"/>
      <point x="135" y="298"/>
      <point x="151" y="255"/>
      <point x="178" y="223" type="curve"/>
      <point x="101" y="144" type="line"/>
    </contour>
    <contour>
      <point x="315" y="195" type="curve" smooth="yes"/>
      <point x="234" y="195"/>
      <point x="173" y="260"/>
      <point x="173" y="346" type="curve" smooth="yes"/>
      <point x="173" y="434"/>
      <point x="236" y="498"/>
      <point x="315" y="498" type="curve" smooth="yes"/>
      <point x="395" y="498"/>
      <point x="458" y="434"/>
      <point x="458" y="346" type="curve" smooth="yes"/>
      <point x="458" y="259"/>
      <point x="395" y="195"/>
    </contour>
  </outline>
</glyph>
<glyph name="section" format="2">
  <advance width="488"/>
  <unicode hex="00A7"/>
  <outline>
    <contour>
      <point x="151" y="-109" type="curve" smooth="yes"/>
      <point x="276" y="-109"/>
      <point x="362" y="-44"/>
      <point x="362" y="48" type="curve" smooth="yes"/>
      <point x="362" y="89"/>
      <point x="344" y="117"/>
      <point x="294" y="147" type="curve"/>
      <point x="399" y="188"/>
      <point x="461" y="258"/>
      <point x="461" y="332" type="curve" smooth="yes"/>
      <point x="461" y="392"/>
      <point x="422" y="429"/>
      <point x="324" y="463" type="curve" smooth="yes"/>
      <point x="253" y="487"/>
      <point x="221" y="516"/>
      <point x="221" y="557" type="curve" smooth="yes"/>
      <point x="221" y="615"/>
      <point x="281" y="672"/>
      <point x="385" y="672" type="curve" smooth="yes"/>
      <point x="430" y="672"/>
      <point x="475" y="664"/>
      <point x="507" y="649" type="curve"/>
      <point x="525" y="681" type="line"/>
      <point x="485" y="697"/>
      <point x="437" y="706"/>
      <point x="392" y="706" type="curve" smooth="yes"/>
      <point x="270" y="706"/>
      <point x="188" y="634"/>
      <point x="188" y="555" type="curve" smooth="yes"/>
      <point x="188" y="517"/>
      <point x="205" y="481"/>
      <point x="242" y="459" type="curve"/>
      <point x="148" y="421"/>
      <point x="85" y="358"/>
      <point x="85" y="288" type="curve" smooth="yes"/>
      <point x="85" y="229"/>
      <point x="122" y="186"/>
      <point x="228" y="145" type="curve" smooth="yes"/>
      <point x="298" y="119"/>
      <point x="327" y="86"/>
      <point x="327" y="41" type="curve" smooth="yes"/>
      <point x="327" y="-25"/>
      <point x="263" y="-75"/>
      <point x="155" y="-75" type="curve" smooth="yes"/>
      <point x="108" y="-75"/>
      <point x="56" y="-63"/>
      <point x="23" y="-46" type="curve"/>
      <point x="7" y="-78" type="line"/>
      <point x="42" y="-97"/>
      <point x="100" y="-109"/>
    </contour>
    <contour>
      <point x="271" y="161" type="curve"/>
      <point x="223" y="181" type="line" smooth="yes"/>
      <point x="152" y="211"/>
      <point x="119" y="244"/>
      <point x="119" y="296" type="curve" smooth="yes"/>
      <point x="119" y="353"/>
      <point x="187" y="420"/>
      <point x="276" y="449" type="curve"/>
      <point x="315" y="436" type="line" smooth="yes"/>
      <point x="395" y="409"/>
      <point x="425" y="370"/>
      <point x="425" y="321" type="curve" smooth="yes"/>
      <point x="425" y="260"/>
      <point x="360" y="195"/>
    </contour>
  </outline>
</glyph>
<glyph name="copyright" format="2">
  <advance width="740"/>
  <unicode hex="00A9"/>
  <outline>
    <contour>
      <point x="393" y="-15" type="curve" smooth="yes"/>
      <point x="588" y="-15"/>
      <point x="729" y="134"/>
      <point x="729" y="345" type="curve" smooth="yes"/>
      <point x="729" y="556"/>
      <point x="588" y="706"/>
      <point x="393" y="706" type="curve" smooth="yes"/>
      <point x="198" y="706"/>
      <point x="57" y="556"/>
      <point x="57" y="345" type="curve" smooth="yes"/>
      <point x="57" y="134"/>
      <point x="198" y="-15"/>
    </contour>
    <contour>
      <point x="396" y="144" type="curve" smooth="yes"/>
      <point x="440" y="144"/>
      <point x="483" y="155"/>
      <point x="516" y="174" type="curve"/>
      <point x="505" y="202" type="line"/>
      <point x="474" y="185"/>
      <point x="440" y="176"/>
      <point x="402" y="176" type="curve" smooth="yes"/>
      <point x="310" y="176"/>
      <point x="254" y="240"/>
      <point x="254" y="348" type="curve" smooth="yes"/>
      <point x="254" y="444"/>
      <point x="311" y="516"/>
      <point x="403" y="516" type="curve" smooth="yes"/>
      <point x="438" y="516"/>
      <point x="474" y="507"/>
      <point x="501" y="490" type="curve"/>
      <point x="513" y="517" type="line"/>
      <point x="482" y="538"/>
      <point x="443" y="548"/>
      <point x="400" y="548" type="curve" smooth="yes"/>
      <point x="294" y="548"/>
      <point x="218" y="460"/>
      <point x="218" y="348" type="curve" smooth="yes"/>
      <point x="218" y="229"/>
      <point x="286" y="144"/>
    </contour>
    <contour>
      <point x="393" y="14" type="curve" smooth="yes"/>
      <point x="213" y="14"/>
      <point x="89" y="150"/>
      <point x="89" y="345" type="curve" smooth="yes"/>
      <point x="89" y="539"/>
      <point x="212" y="677"/>
      <point x="393" y="677" type="curve" smooth="yes"/>
      <point x="571" y="677"/>
      <point x="697" y="541"/>
      <point x="697" y="345" type="curve" smooth="yes"/>
      <point x="697" y="151"/>
      <point x="573" y="14"/>
    </contour>
  </outline>
</glyph>
<glyph name="registered" format="2">
  <advance width="567"/>
  <unicode hex="00AE"/>
  <outline>
    <contour>
      <point x="350" y="293" type="curve" smooth="yes"/>
      <point x="479" y="293"/>
      <point x="578" y="390"/>
      <point x="578" y="532" type="curve" smooth="yes"/>
      <point x="578" y="675"/>
      <point x="479" y="773"/>
      <point x="350" y="773" type="curve" smooth="yes"/>
      <point x="221" y="773"/>
      <point x="121" y="676"/>
      <point x="121" y="532" type="curve" smooth="yes"/>
      <point x="121" y="389"/>
      <point x="221" y="293"/>
    </contour>
    <contour>
      <point x="350" y="318" type="curve" smooth="yes"/>
      <point x="231" y="318"/>
      <point x="149" y="406"/>
      <point x="149" y="532" type="curve" smooth="yes"/>
      <point x="149" y="659"/>
      <point x="231" y="747"/>
      <point x="350" y="747" type="curve" smooth="yes"/>
      <point x="466" y="747"/>
      <point x="550" y="660"/>
      <point x="550" y="532" type="curve" smooth="yes"/>
      <point x="550" y="407"/>
      <point x="468" y="318"/>
    </contour>
    <contour>
      <point x="263" y="405" type="line"/>
      <point x="292" y="405" type="line"/>
      <point x="292" y="510" type="line"/>
      <point x="347" y="510" type="line"/>
      <point x="351" y="510"/>
      <point x="356" y="510"/>
      <point x="361" y="511" type="curve"/>
      <point x="379" y="487"/>
      <point x="401" y="455"/>
      <point x="429" y="405" type="curve"/>
      <point x="461" y="405" type="line"/>
      <point x="437" y="449"/>
      <point x="418" y="479"/>
      <point x="389" y="516" type="curve"/>
      <point x="425" y="528"/>
      <point x="443" y="555"/>
      <point x="443" y="586" type="curve" smooth="yes"/>
      <point x="443" y="640"/>
      <point x="404" y="666"/>
      <point x="330" y="666" type="curve" smooth="yes"/>
      <point x="307" y="666"/>
      <point x="281" y="664"/>
      <point x="263" y="661" type="curve"/>
    </contour>
    <contour>
      <point x="292" y="535" type="line"/>
      <point x="292" y="639" type="line"/>
      <point x="300" y="640"/>
      <point x="311" y="641"/>
      <point x="329" y="641" type="curve" smooth="yes"/>
      <point x="380" y="641"/>
      <point x="413" y="623"/>
      <point x="413" y="587" type="curve" smooth="yes"/>
      <point x="413" y="550"/>
      <point x="382" y="535"/>
      <point x="342" y="535" type="curve" smooth="yes"/>
    </contour>
  </outline>
</glyph>
<glyph name="cedilla" format="2">
  <advance width="346"/>
  <unicode hex="00B8"/>
  <outline>
    <contour>
      <point x="104" y="-185" type="curve" smooth="yes"/>
      <point x="178" y="-185"/>
      <point x="211" y="-145"/>
      <point x="211" y="-100" type="curve" smooth="yes"/>
      <point x="211" y="-73"/>
      <point x="194" y="-53"/>
      <point x="162" y="-39" type="curve"/>
      <point x="176" y="-17"/>
      <point x="187" y="-1"/>
      <point x="204" y="20" type="curve"/>
      <point x="173" y="20" type="line"/>
      <point x="161" y="4"/>
      <point x="138" y="-28"/>
      <point x="119" y="-55" type="curve"/>
      <point x="164" y="-64"/>
      <point x="177" y="-82"/>
      <point x="177" y="-105" type="curve" smooth="yes"/>
      <point x="177" y="-134"/>
      <point x="155" y="-155"/>
      <point x="103" y="-155" type="curve" smooth="yes"/>
      <point x="87" y="-155"/>
      <point x="68" y="-152"/>
      <point x="54" y="-147" type="curve"/>
      <point x="43" y="-175" type="line"/>
      <point x="60" y="-182"/>
      <point x="80" y="-185"/>
    </contour>
  </outline>
</glyph>
<glyph name="ordmasculine" format="2">
  <advance width="454"/>
  <unicode hex="00BA"/>
  <outline>
    <contour>
      <point x="246" y="333" type="curve" smooth="yes"/>
      <point x="377" y="333"/>
      <point x="452" y="466"/>
      <point x="452" y="579" type="curve" smooth="yes"/>
      <point x="452" y="639"/>
      <point x="419" y="701"/>
      <point x="349" y="701" type="curve" smooth="yes"/>
      <point x="219" y="701"/>
      <point x="144" y="575"/>
      <point x="144" y="462" type="curve" smooth="yes"/>
      <point x="144" y="402"/>
      <point x="172" y="333"/>
    </contour>
    <contour>
      <point x="260" y="361" type="curve" smooth="yes"/>
      <point x="198" y="361"/>
      <point x="179" y="403"/>
      <point x="179" y="471" type="curve" smooth="yes"/>
      <point x="179" y="558"/>
      <point x="241" y="673"/>
      <point x="332" y="673" type="curve" smooth="yes"/>
      <point x="397" y="673"/>
      <point x="417" y="635"/>
      <point x="417" y="570" type="curve" smooth="yes"/>
      <point x="417" y="484"/>
      <point x="352" y="361"/>
    </contour>
  </outline>
</glyph>
<glyph name="Aring" format="2">
  <advance width="594"/>
  <unicode hex="00C5"/>
  <outline>
    <contour>
      <point x="-34" y="0" type="curve"/>
      <point x="3" y="0" type="line"/>
      <point x="38" y="66"/>
      <point x="75" y="128"/>
      <point x="119" y="204" type="curve"/>
      <point x="465" y="204" type="line"/>
      <point x="477" y="121"/>
      <point x="485" y="59"/>
      <point x="491" y="0" type="curve"/>
      <point x="527" y="0" type="line"/>
      <point x="498" y="263"/>
      <point x="463" y="472"/>
      <point x="434" y="658" type="curve"/>
      <point x="473" y="664"/>
      <point x="508" y="693"/>
      <point x="508" y="745" type="curve" smooth="yes"/>
      <point x="508" y="794"/>
      <point x="470" y="833"/>
      <point x="422" y="833" type="curve" smooth="yes"/>
      <point x="371" y="833"/>
      <point x="333" y="796"/>
      <point x="333" y="745" type="curve" smooth="yes"/>
      <point x="333" y="709"/>
      <point x="350" y="683"/>
      <point x="373" y="669" type="curve"/>
      <point x="239" y="466"/>
      <point x="81" y="217"/>
    </contour>
    <contour>
      <point x="139" y="238" type="line"/>
      <point x="228" y="387"/>
      <point x="311" y="520"/>
      <point x="402" y="654" type="curve"/>
      <point x="424" y="508"/>
      <point x="442" y="385"/>
      <point x="462" y="238" type="curve"/>
    </contour>
    <contour>
      <point x="421" y="685" type="curve" smooth="yes"/>
      <point x="386" y="685"/>
      <point x="363" y="710"/>
      <point x="363" y="745" type="curve" smooth="yes"/>
      <point x="363" y="780"/>
      <point x="388" y="805"/>
      <point x="421" y="805" type="curve" smooth="yes"/>
      <point x="453" y="805"/>
      <point x="478" y="780"/>
      <point x="478" y="745" type="curve" smooth="yes"/>
      <point x="478" y="710"/>
      <point x="453" y="685"/>
    </contour>
  </outline>
</glyph>
<glyph name="AE" format="2">
  <advance width="869"/>
  <unicode hex="00C6"/>
  <anchor x="306" y="0" name="bottom"/>
  <anchor x="686" y="669" name="top"/>
  <outline>
    <contour>
      <point x="-44" y="0" type="curve"/>
      <point x="-4" y="0" type="line"/>
      <point x="54" y="76"/>
      <point x="106" y="141"/>
      <point x="157" y="204" type="curve"/>
      <point x="448" y="204" type="line"/>
      <point x="399" y="0" type="line"/>
      <point x="774" y="0" type="line"/>
      <point x="782" y="34" type="line"/>
      <point x="444" y="34" type="line"/>
      <point x="519" y="346" type="line"/>
      <point x="794" y="346" type="line"/>
      <point x="802" y="380" type="line"/>
      <point x="526" y="380" type="line"/>
      <point x="594" y="659" type="line"/>
      <point x="905" y="659" type="line"/>
      <point x="913" y="693" type="line"/>
      <point x="555" y="693" type="line"/>
      <point x="319" y="457"/>
      <point x="159" y="262"/>
    </contour>
    <contour>
      <point x="184" y="238" type="line"/>
      <point x="306" y="388"/>
      <point x="419" y="515"/>
      <point x="556" y="653" type="curve"/>
      <point x="456" y="238" type="line"/>
    </contour>
  </outline>
</glyph>
<glyph name="Eth" format="2">
  <advance width="694"/>
  <unicode hex="00D0"/>
  <outline>
    <contour>
      <point x="191" y="-3" type="curve" smooth="yes"/>
      <point x="470" y="-3"/>
      <point x="648" y="182"/>
      <point x="648" y="423" type="curve" smooth="yes"/>
      <point x="648" y="601"/>
      <point x="559" y="697"/>
      <point x="357" y="697" type="curve" smooth="yes"/>
      <point x="307" y="697"/>
      <point x="263" y="694"/>
      <point x="205" y="682" type="curve"/>
      <point x="133" y="379" type="line"/>
      <point x="54" y="379" type="line"/>
      <point x="47" y="348" type="line"/>
      <point x="125" y="348" type="line"/>
      <point x="45" y="13" type="line"/>
      <point x="83" y="4"/>
      <point x="141" y="-3"/>
    </contour>
    <contour>
      <point x="193" y="31" type="curve" smooth="yes"/>
      <point x="165" y="31"/>
      <point x="127" y="34"/>
      <point x="89" y="40" type="curve"/>
      <point x="162" y="348" type="line"/>
      <point x="292" y="348" type="line"/>
      <point x="299" y="379" type="line"/>
      <point x="169" y="379" type="line"/>
      <point x="235" y="655" type="line"/>
      <point x="270" y="660"/>
      <point x="309" y="663"/>
      <point x="348" y="663" type="curve" smooth="yes"/>
      <point x="526" y="663"/>
      <point x="611" y="585"/>
      <point x="611" y="423" type="curve" smooth="yes"/>
      <point x="611" y="205"/>
      <point x="448" y="31"/>
    </contour>
  </outline>
</glyph>
<glyph name="Thorn" format="2">
  <advance width="526"/>
  <unicode hex="00DE"/>
  <outline>
    <contour>
      <point x="26" y="0" type="line"/>
      <point x="63" y="0" type="line"/>
      <point x="98" y="149" type="line"/>
      <point x="195" y="149" type="line" smooth="yes"/>
      <point x="409" y="149"/>
      <point x="516" y="270"/>
      <point x="516" y="400" type="curve" smooth="yes"/>
      <point x="516" y="508"/>
      <point x="439" y="567"/>
      <point x="297" y="567" type="curve" smooth="yes"/>
      <point x="263" y="567"/>
      <point x="227" y="565"/>
      <point x="197" y="561" type="curve"/>
      <point x="228" y="693" type="line"/>
      <point x="192" y="693" type="line"/>
    </contour>
    <contour>
      <point x="107" y="183" type="line"/>
      <point x="189" y="528" type="line"/>
      <point x="224" y="532"/>
      <point x="263" y="533"/>
      <point x="294" y="533" type="curve" smooth="yes"/>
      <point x="420" y="533"/>
      <point x="479" y="493"/>
      <point x="479" y="394" type="curve" smooth="yes"/>
      <point x="479" y="267"/>
      <point x="375" y="183"/>
      <point x="198" y="183" type="curve" smooth="yes"/>
    </contour>
  </outline>
</glyph>
<glyph name="germandbls" format="2">
  <advance width="577"/>
  <unicode hex="00DF"/>
  <outline>
    <contour>
      <point x="-36" y="-189" type="line"/>
      <point x="20" y="-114"/>
      <point x="44" y="-56"/>
      <point x="79" y="85" type="curve" smooth="yes"/>
      <point x="195" y="556" type="line" smooth="yes"/>
      <point x="225" y="678"/>
      <point x="294" y="744"/>
      <point x="391" y="744" type="curve" smooth="yes"/>
      <point x="446" y="744"/>
      <point x="484" y="707"/>
      <point x="484" y="654" type="curve" smooth="yes"/>
      <point x="484" y="518"/>
      <point x="303" y="490"/>
      <point x="303" y="369" type="curve" smooth="yes"/>
      <point x="303" y="326"/>
      <point x="317" y="309"/>
      <point x="402" y="251" type="curve" smooth="yes"/>
      <point x="444" y="220"/>
      <point x="464" y="185"/>
      <point x="464" y="147" type="curve" smooth="yes"/>
      <point x="464" y="72"/>
      <point x="403" y="24"/>
      <point x="308" y="24" type="curve" smooth="yes"/>
      <point x="268" y="24"/>
      <point x="218" y="37"/>
      <point x="188" y="55" type="curve"/>
      <point x="176" y="24" type="line"/>
      <point x="219" y="3"/>
      <point x="266" y="-8"/>
      <point x="307" y="-8" type="curve" smooth="yes"/>
      <point x="424" y="-8"/>
      <point x="496" y="51"/>
      <point x="496" y="147" type="curve" smooth="yes"/>
      <point x="496" y="208"/>
      <point x="476" y="239"/>
      <point x="407" y="287" type="curve" smooth="yes"/>
      <point x="351" y="323"/>
      <point x="337" y="341"/>
      <point x="337" y="375" type="curve" smooth="yes"/>
      <point x="337" y="462"/>
      <point x="519" y="508"/>
      <point x="519" y="655" type="curve" smooth="yes"/>
      <point x="519" y="727"/>
      <point x="467" y="776"/>
      <point x="391" y="776" type="curve" smooth="yes"/>
      <point x="275" y="776"/>
      <point x="194" y="694"/>
      <point x="156" y="539" type="curve" smooth="yes"/>
      <point x="33" y="35" type="line" smooth="yes"/>
      <point x="11" y="-53"/>
      <point x="-1" y="-80"/>
      <point x="-66" y="-183" type="curve"/>
    </contour>
  </outline>
</glyph>
<glyph name="ae" format="2">
  <advance width="822"/>
  <unicode hex="00E6"/>
  <anchor x="342" y="0" name="bottom"/>
  <anchor x="466" y="513" name="top"/>
  <outline>
    <contour>
      <point x="155" y="-6" type="curve" smooth="yes"/>
      <point x="264" y="-6"/>
      <point x="342" y="57"/>
      <point x="388" y="144" type="curve"/>
      <point x="398" y="52"/>
      <point x="453" y="-6"/>
      <point x="568" y="-6" type="curve" smooth="yes"/>
      <point x="622" y="-6"/>
      <point x="675" y="5"/>
      <point x="723" y="31" type="curve"/>
      <point x="718" y="64" type="line"/>
      <point x="675" y="39"/>
      <point x="626" y="26"/>
      <point x="576" y="26" type="curve" smooth="yes"/>
      <point x="457" y="26"/>
      <point x="420" y="79"/>
      <point x="420" y="188" type="curve" smooth="yes"/>
      <point x="420" y="188"/>
      <point x="421" y="203"/>
      <point x="422" y="213" type="curve"/>
      <point x="655" y="221"/>
      <point x="807" y="252"/>
      <point x="807" y="399" type="curve" smooth="yes"/>
      <point x="807" y="473"/>
      <point x="764" y="525"/>
      <point x="669" y="525" type="curve" smooth="yes"/>
      <point x="560" y="525"/>
      <point x="482" y="462"/>
      <point x="436" y="375" type="curve"/>
      <point x="426" y="467"/>
      <point x="371" y="525"/>
      <point x="256" y="525" type="curve" smooth="yes"/>
      <point x="202" y="525"/>
      <point x="149" y="514"/>
      <point x="101" y="488" type="curve"/>
      <point x="106" y="455" type="line"/>
      <point x="149" y="480"/>
      <point x="198" y="493"/>
      <point x="248" y="493" type="curve" smooth="yes"/>
      <point x="367" y="493"/>
      <point x="404" y="440"/>
      <point x="404" y="331" type="curve" smooth="yes"/>
      <point x="404" y="331"/>
      <point x="403" y="316"/>
      <point x="402" y="306" type="curve"/>
      <point x="169" y="298"/>
      <point x="17" y="267"/>
      <point x="17" y="120" type="curve" smooth="yes"/>
      <point x="17" y="46"/>
      <point x="60" y="-6"/>
    </contour>
    <contour>
      <point x="154" y="26" type="curve"/>
      <point x="97" y="26"/>
      <point x="53" y="58"/>
      <point x="53" y="121" type="curve" smooth="yes"/>
      <point x="53" y="228"/>
      <point x="148" y="266"/>
      <point x="398" y="272" type="curve"/>
      <point x="374" y="130"/>
      <point x="281" y="26"/>
    </contour>
    <contour>
      <point x="426" y="247" type="curve"/>
      <point x="453" y="389"/>
      <point x="539" y="493"/>
      <point x="670" y="493" type="curve" smooth="yes"/>
      <point x="727" y="493"/>
      <point x="771" y="461"/>
      <point x="771" y="398" type="curve" smooth="yes"/>
      <point x="771" y="291"/>
      <point x="676" y="253"/>
    </contour>
  </outline>
</glyph>
<glyph name="ccedilla" format="2">
  <advance width="451"/>
  <unicode hex="00E7"/>
  <outline>
    <contour>
      <point x="140" y="-185" type="curve" smooth="yes"/>
      <point x="214" y="-185"/>
      <point x="247" y="-145"/>
      <point x="247" y="-100" type="curve" smooth="yes"/>
      <point x="247" y="-73"/>
      <point x="230" y="-53"/>
      <point x="198" y="-39" type="curve"/>
      <point x="206" y="-26"/>
      <point x="213" y="-16"/>
      <point x="221" y="-5" type="curve"/>
      <point x="269" y="-4"/>
      <point x="316" y="10"/>
      <point x="360" y="32" type="curve"/>
      <point x="354" y="64" type="line"/>
      <point x="310" y="43"/>
      <point x="265" y="27"/>
      <point x="216" y="27" type="curve" smooth="yes"/>
      <point x="129" y="27"/>
      <point x="76" y="91"/>
      <point x="76" y="176" type="curve" smooth="yes"/>
      <point x="76" y="344"/>
      <point x="167" y="492"/>
      <point x="334" y="492" type="curve" smooth="yes"/>
      <point x="366" y="492"/>
      <point x="398" y="489"/>
      <point x="428" y="478" type="curve"/>
      <point x="439" y="511" type="line"/>
      <point x="408" y="519"/>
      <point x="377" y="525"/>
      <point x="345" y="525" type="curve" smooth="yes"/>
      <point x="151" y="525"/>
      <point x="40" y="368"/>
      <point x="40" y="175" type="curve" smooth="yes"/>
      <point x="40" y="78"/>
      <point x="99" y="6"/>
      <point x="191" y="-4" type="curve"/>
      <point x="180" y="-19"/>
      <point x="167" y="-38"/>
      <point x="155" y="-55" type="curve"/>
      <point x="200" y="-64"/>
      <point x="213" y="-82"/>
      <point x="213" y="-105" type="curve" smooth="yes"/>
      <point x="213" y="-134"/>
      <point x="191" y="-155"/>
      <point x="139" y="-155" type="curve" smooth="yes"/>
      <point x="123" y="-155"/>
      <point x="104" y="-152"/>
      <point x="90" y="-147" type="curve"/>
      <point x="79" y="-175" type="line"/>
      <point x="96" y="-182"/>
      <point x="116" y="-185"/>
    </contour>
  </outline>
</glyph>
<glyph name="thorn" format="2">
  <advance width="503"/>
  <unicode hex="00FE"/>
  <outline>
    <contour>
      <point x="-17" y="-185" type="line"/>
      <point x="17" y="-185" type="line"/>
      <point x="62" y="6" type="line"/>
      <point x="89" y="-1"/>
      <point x="116" y="-6"/>
      <point x="147" y="-6" type="curve" smooth="yes"/>
      <point x="366" y="-6"/>
      <point x="469" y="173"/>
      <point x="469" y="346" type="curve" smooth="yes"/>
      <point x="469" y="454"/>
      <point x="409" y="525"/>
      <point x="299" y="525" type="curve" smooth="yes"/>
      <point x="268" y="525"/>
      <point x="227" y="521"/>
      <point x="185" y="511" type="curve"/>
      <point x="249" y="774" type="line"/>
      <point x="213" y="766" type="line"/>
    </contour>
    <contour>
      <point x="151" y="26" type="curve" smooth="yes"/>
      <point x="120" y="26"/>
      <point x="96" y="31"/>
      <point x="71" y="38" type="curve"/>
      <point x="177" y="477" type="line"/>
      <point x="214" y="488"/>
      <point x="252" y="495"/>
      <point x="287" y="495" type="curve" smooth="yes"/>
      <point x="380" y="495"/>
      <point x="433" y="450"/>
      <point x="433" y="336" type="curve" smooth="yes"/>
      <point x="433" y="194"/>
      <point x="352" y="26"/>
    </contour>
  </outline>
</glyph>
<glyph name="Aogonek" format="2">
  <advance width="594"/>
  <unicode hex="0104"/>
  <outline>
    <contour>
      <point x="454" y="-186" type="curve" smooth="yes"/>
      <point x="469" y="-186"/>
      <point x="484" y="-184"/>
      <point x="499" y="-179" type="curve"/>
      <point x="504" y="-149" type="line"/>
      <point x="490" y="-152"/>
      <point x="478" y="-154"/>
      <point x="469" y="-154" type="curve" smooth="yes"/>
      <point x="443" y="-154"/>
      <point x="427" y="-150"/>
      <point x="427" y="-119" type="curve" smooth="yes"/>
      <point x="427" y="-92"/>
      <point x="458" y="-48"/>
      <point x="527" y="0" type="curve"/>
      <point x="496" y="279"/>
      <point x="459" y="498"/>
      <point x="429" y="693" type="curve"/>
      <point x="389" y="693" type="line"/>
      <point x="251" y="485"/>
      <point x="85" y="225"/>
      <point x="-34" y="0" type="curve"/>
      <point x="3" y="0" type="line"/>
      <point x="38" y="66"/>
      <point x="75" y="128"/>
      <point x="119" y="204" type="curve"/>
      <point x="465" y="204" type="line"/>
      <point x="477" y="122"/>
      <point x="485" y="61"/>
      <point x="491" y="3" type="curve"/>
      <point x="491" y="3" type="line"/>
      <point x="423" y="-44"/>
      <point x="391" y="-93"/>
      <point x="391" y="-127" type="curve" smooth="yes"/>
      <point x="391" y="-164"/>
      <point x="415" y="-186"/>
    </contour>
    <contour>
      <point x="139" y="238" type="line"/>
      <point x="228" y="387"/>
      <point x="311" y="520"/>
      <point x="402" y="654" type="curve"/>
      <point x="424" y="508"/>
      <point x="442" y="385"/>
      <point x="462" y="238" type="curve"/>
    </contour>
  </outline>
</glyph>
<glyph name="Hbar" format="2">
  <advance width="664"/>
  <unicode hex="0126"/>
  <outline>
    <contour>
      <point x="37" y="0" type="line"/>
      <point x="74" y="0" type="line"/>
      <point x="157" y="346" type="line"/>
      <point x="549" y="346" type="line"/>
      <point x="466" y="0" type="line"/>
      <point x="503" y="0" type="line"/>
      <point x="632" y="541" type="line"/>
      <point x="711" y="541" type="line"/>
      <point x="719" y="575" type="line"/>
      <point x="640" y="575" type="line"/>
      <point x="668" y="693" type="line"/>
      <point x="631" y="693" type="line"/>
      <point x="603" y="575" type="line"/>
      <point x="211" y="575" type="line"/>
      <point x="240" y="693" type="line"/>
      <point x="203" y="693" type="line"/>
      <point x="175" y="575" type="line"/>
      <point x="98" y="575" type="line"/>
      <point x="90" y="541" type="line"/>
      <point x="167" y="541" type="line"/>
    </contour>
    <contour>
      <point x="164" y="380" type="line"/>
      <point x="203" y="541" type="line"/>
      <point x="595" y="541" type="line"/>
      <point x="556" y="380" type="line"/>
    </contour>
  </outline>
</glyph>
<glyph name="hbar" format="2">
  <advance width="543"/>
  <unicode hex="0127"/>
  <outline>
    <contour>
      <point x="28" y="0" type="line"/>
      <point x="62" y="0" type="line"/>
      <point x="174" y="465" type="line"/>
      <point x="215" y="480"/>
      <point x="259" y="491"/>
      <point x="304" y="491" type="curve" smooth="yes"/>
      <point x="371" y="491"/>
      <point x="434" y="465"/>
      <point x="434" y="365" type="curve" smooth="yes"/>
      <point x="434" y="322"/>
      <point x="427" y="278"/>
      <point x="411" y="213" type="curve" smooth="yes"/>
      <point x="360" y="0" type="line"/>
      <point x="392" y="0" type="line"/>
      <point x="454" y="247" type="line" smooth="yes"/>
      <point x="464" y="287"/>
      <point x="470" y="329"/>
      <point x="470" y="366" type="curve" smooth="yes"/>
      <point x="470" y="479"/>
      <point x="397" y="522"/>
      <point x="313" y="522" type="curve" smooth="yes"/>
      <point x="271" y="522"/>
      <point x="223" y="513"/>
      <point x="182" y="498" type="curve"/>
      <point x="218" y="646" type="line"/>
      <point x="418" y="646" type="line"/>
      <point x="425" y="676" type="line"/>
      <point x="225" y="676" type="line"/>
      <point x="249" y="774" type="line"/>
      <point x="213" y="766" type="line"/>
      <point x="191" y="676" type="line"/>
      <point x="106" y="676" type="line"/>
      <point x="99" y="646" type="line"/>
      <point x="184" y="646" type="line"/>
    </contour>
  </outline>
</glyph>
<glyph name="kgreenlandic" format="2">
  <advance width="480"/>
  <unicode hex="0138"/>
  <outline>
    <contour>
      <point x="27" y="0" type="line"/>
      <point x="61" y="0" type="line"/>
      <point x="127" y="274" type="line"/>
      <point x="215" y="223"/>
      <point x="313" y="145"/>
      <point x="383" y="0" type="curve"/>
      <point x="416" y="0" type="line"/>
      <point x="385" y="84"/>
      <point x="293" y="206"/>
      <point x="167" y="285" type="curve"/>
      <point x="253" y="334"/>
      <point x="387" y="447"/>
      <point x="440" y="513" type="curve"/>
      <point x="401" y="513" type="line"/>
      <point x="360" y="465"/>
      <point x="236" y="359"/>
      <point x="132" y="294" type="curve"/>
      <point x="185" y="513" type="line"/>
      <point x="151" y="513" type="line"/>
    </contour>
  </outline>
</glyph>
<glyph name="Eng" format="2">
  <advance width="648"/>
  <unicode hex="014A"/>
  <outline>
    <contour>
      <point x="343" y="-187" type="curve" smooth="yes"/>
      <point x="446" y="-187"/>
      <point x="473" y="-110"/>
      <point x="486" y="-55" type="curve" smooth="yes"/>
      <point x="664" y="693" type="line"/>
      <point x="627" y="693" type="line"/>
      <point x="476" y="57" type="line"/>
      <point x="425" y="254"/>
      <point x="332" y="504"/>
      <point x="238" y="693" type="curve"/>
      <point x="192" y="693" type="line"/>
      <point x="26" y="0" type="line"/>
      <point x="63" y="0" type="line"/>
      <point x="219" y="654" type="line"/>
      <point x="309" y="470"/>
      <point x="416" y="172"/>
      <point x="458" y="-15" type="curve"/>
      <point x="448" y="-59" type="line" smooth="yes"/>
      <point x="432" y="-127"/>
      <point x="406" y="-155"/>
      <point x="351" y="-155" type="curve" smooth="yes"/>
      <point x="340" y="-155"/>
      <point x="320" y="-152"/>
      <point x="311" y="-149" type="curve"/>
      <point x="299" y="-179" type="line"/>
      <point x="307" y="-183"/>
      <point x="331" y="-187"/>
    </contour>
  </outline>
</glyph>
<glyph name="OE" format="2">
  <advance width="938"/>
  <unicode hex="0152"/>
  <outline>
    <contour>
      <point x="364" y="-8" type="curve" smooth="yes"/>
      <point x="402" y="-8"/>
      <point x="444" y="-5"/>
      <point x="485" y="0" type="curve"/>
      <point x="843" y="0" type="line"/>
      <point x="850" y="34" type="line"/>
      <point x="511" y="34" type="line"/>
      <point x="586" y="347" type="line"/>
      <point x="866" y="347" type="line"/>
      <point x="873" y="381" type="line"/>
      <point x="594" y="381" type="line"/>
      <point x="661" y="659" type="line"/>
      <point x="976" y="659" type="line"/>
      <point x="983" y="693" type="line"/>
      <point x="639" y="693" type="line"/>
      <point x="598" y="698"/>
      <point x="569" y="699"/>
      <point x="544" y="699" type="curve" smooth="yes"/>
      <point x="234" y="699"/>
      <point x="87" y="490"/>
      <point x="87" y="247" type="curve" smooth="yes"/>
      <point x="87" y="58"/>
      <point x="183" y="-8"/>
    </contour>
    <contour>
      <point x="363" y="24" type="curve" smooth="yes"/>
      <point x="206" y="24"/>
      <point x="125" y="89"/>
      <point x="125" y="245" type="curve" smooth="yes"/>
      <point x="125" y="450"/>
      <point x="236" y="666"/>
      <point x="547" y="666" type="curve" smooth="yes"/>
      <point x="577" y="666"/>
      <point x="600" y="664"/>
      <point x="624" y="659" type="curve"/>
      <point x="474" y="33" type="line"/>
      <point x="434" y="25"/>
      <point x="393" y="24"/>
    </contour>
  </outline>
</glyph>
<glyph name="scedilla" format="2">
  <advance width="376"/>
  <unicode hex="015F"/>
  <outline>
    <contour>
      <point x="70" y="-185" type="curve" smooth="yes"/>
      <point x="144" y="-185"/>
      <point x="177" y="-145"/>
      <point x="177" y="-100" type="curve" smooth="yes"/>
      <point x="177" y="-73"/>
      <point x="160" y="-53"/>
      <point x="128" y="-39" type="curve"/>
      <point x="136" y="-27"/>
      <point x="142" y="-17"/>
      <point x="150" y="-7" type="curve"/>
      <point x="221" y="0"/>
      <point x="300" y="41"/>
      <point x="300" y="140" type="curve" smooth="yes"/>
      <point x="300" y="213"/>
      <point x="242" y="244"/>
      <point x="201" y="265" type="curve" smooth="yes"/>
      <point x="157" y="289"/>
      <point x="111" y="314"/>
      <point x="111" y="371" type="curve" smooth="yes"/>
      <point x="111" y="456"/>
      <point x="179" y="493"/>
      <point x="254" y="493" type="curve" smooth="yes"/>
      <point x="291" y="493"/>
      <point x="322" y="487"/>
      <point x="349" y="478" type="curve"/>
      <point x="361" y="509" type="line"/>
      <point x="320" y="521"/>
      <point x="284" y="525"/>
      <point x="252" y="525" type="curve" smooth="yes"/>
      <point x="174" y="525"/>
      <point x="77" y="486"/>
      <point x="77" y="369" type="curve" smooth="yes"/>
      <point x="77" y="283"/>
      <point x="145" y="260"/>
      <point x="196" y="232" type="curve" smooth="yes"/>
      <point x="225" y="216"/>
      <point x="267" y="188"/>
      <point x="267" y="138" type="curve" smooth="yes"/>
      <point x="267" y="55"/>
      <point x="196" y="24"/>
      <point x="130" y="24" type="curve" smooth="yes"/>
      <point x="86" y="24"/>
      <point x="44" y="31"/>
      <point x="2" y="55" type="curve"/>
      <point x="-10" y="24" type="line"/>
      <point x="31" y="2"/>
      <point x="73" y="-7"/>
      <point x="119" y="-8" type="curve"/>
      <point x="108" y="-23"/>
      <point x="96" y="-40"/>
      <point x="85" y="-55" type="curve"/>
      <point x="130" y="-64"/>
      <point x="143" y="-82"/>
      <point x="143" y="-105" type="curve" smooth="yes"/>
      <point x="143" y="-134"/>
      <point x="121" y="-155"/>
      <point x="69" y="-155" type="curve" smooth="yes"/>
      <point x="53" y="-155"/>
      <point x="34" y="-152"/>
      <point x="20" y="-147" type="curve"/>
      <point x="9" y="-175" type="line"/>
      <point x="26" y="-182"/>
      <point x="46" y="-185"/>
    </contour>
  </outline>
</glyph>
<glyph name="Tcedilla" format="2">
  <advance width="504"/>
  <unicode hex="0162"/>
  <outline>
    <contour>
      <point x="124" y="-185" type="curve" smooth="yes"/>
      <point x="198" y="-185"/>
      <point x="231" y="-145"/>
      <point x="231" y="-100" type="curve" smooth="yes"/>
      <point x="231" y="-73"/>
      <point x="214" y="-53"/>
      <point x="182" y="-39" type="curve"/>
      <point x="192" y="-24"/>
      <point x="200" y="-13"/>
      <point x="209" y="0" type="curve"/>
      <point x="213" y="0" type="line"/>
      <point x="371" y="660" type="line"/>
      <point x="582" y="660" type="line"/>
      <point x="590" y="693" type="line"/>
      <point x="129" y="693" type="line"/>
      <point x="122" y="660" type="line"/>
      <point x="334" y="660" type="line"/>
      <point x="176" y="0" type="line"/>
      <point x="178" y="0" type="line"/>
      <point x="166" y="-16"/>
      <point x="151" y="-37"/>
      <point x="139" y="-55" type="curve"/>
      <point x="184" y="-64"/>
      <point x="197" y="-82"/>
      <point x="197" y="-105" type="curve" smooth="yes"/>
      <point x="197" y="-134"/>
      <point x="175" y="-155"/>
      <point x="123" y="-155" type="curve" smooth="yes"/>
      <point x="107" y="-155"/>
      <point x="88" y="-152"/>
      <point x="74" y="-147" type="curve"/>
      <point x="63" y="-175" type="line"/>
      <point x="80" y="-182"/>
      <point x="100" y="-185"/>
    </contour>
  </outline>
</glyph>
<glyph name="tcedilla" format="2">
  <advance width="371"/>
  <unicode hex="0163"/>
  <outline>
    <contour>
      <point x="103" y="-185" type="curve" smooth="yes"/>
      <point x="177" y="-185"/>
      <point x="210" y="-145"/>
      <point x="210" y="-100" type="curve" smooth="yes"/>
      <point x="210" y="-73"/>
      <point x="193" y="-53"/>
      <point x="161" y="-39" type="curve"/>
      <point x="169" y="-27"/>
      <point x="176" y="-16"/>
      <point x="183" y="-6" type="curve"/>
      <point x="222" y="-4"/>
      <point x="253" y="6"/>
      <point x="287" y="21" type="curve"/>
      <point x="281" y="53" type="line"/>
      <point x="248" y="37"/>
      <point x="216" y="26"/>
      <point x="174" y="26" type="curve" smooth="yes"/>
      <point x="78" y="26"/>
      <point x="84" y="106"/>
      <point x="108" y="204" type="curve" smooth="yes"/>
      <point x="176" y="483" type="line"/>
      <point x="364" y="483" type="line"/>
      <point x="372" y="513" type="line"/>
      <point x="183" y="513" type="line"/>
      <point x="223" y="680" type="line"/>
      <point x="187" y="671" type="line"/>
      <point x="72" y="194" type="line" smooth="yes"/>
      <point x="46" y="90"/>
      <point x="54" y="4"/>
      <point x="153" y="-5" type="curve"/>
      <point x="142" y="-21"/>
      <point x="129" y="-39"/>
      <point x="118" y="-55" type="curve"/>
      <point x="163" y="-64"/>
      <point x="176" y="-82"/>
      <point x="176" y="-105" type="curve" smooth="yes"/>
      <point x="176" y="-134"/>
      <point x="154" y="-155"/>
      <point x="102" y="-155" type="curve" smooth="yes"/>
      <point x="86" y="-155"/>
      <point x="67" y="-152"/>
      <point x="53" y="-147" type="curve"/>
      <point x="42" y="-175" type="line"/>
      <point x="59" y="-182"/>
      <point x="79" y="-185"/>
    </contour>
  </outline>
</glyph>
<glyph name="Tbar" format="2">
  <advance width="504"/>
  <unicode hex="0166"/>
  <outline>
    <contour>
      <point x="176" y="0" type="line"/>
      <point x="213" y="0" type="line"/>
      <point x="298" y="354" type="line"/>
      <point x="412" y="354" type="line"/>
      <point x="420" y="386" type="line"/>
      <point x="305" y="386" type="line"/>
      <point x="371" y="660" type="line"/>
      <point x="582" y="660" type="line"/>
      <point x="590" y="693" type="line"/>
      <point x="129" y="693" type="line"/>
      <point x="122" y="660" type="line"/>
      <point x="334" y="660" type="line"/>
      <point x="268" y="386" type="line"/>
      <point x="154" y="386" type="line"/>
      <point x="146" y="354" type="line"/>
      <point x="261" y="354" type="line"/>
    </contour>
  </outline>
</glyph>
<glyph name="tbar" format="2">
  <advance width="371"/>
  <unicode hex="0167"/>
  <outline>
    <contour>
      <point x="171" y="-6" type="curve" smooth="yes"/>
      <point x="216" y="-6"/>
      <point x="250" y="5"/>
      <point x="287" y="21" type="curve"/>
      <point x="281" y="53" type="line"/>
      <point x="248" y="37"/>
      <point x="216" y="26"/>
      <point x="174" y="26" type="curve" smooth="yes"/>
      <point x="78" y="26"/>
      <point x="84" y="106"/>
      <point x="108" y="204" type="curve" smooth="yes"/>
      <point x="121" y="259" type="line"/>
      <point x="307" y="259" type="line"/>
      <point x="314" y="289" type="line"/>
      <point x="129" y="289" type="line"/>
      <point x="176" y="483" type="line"/>
      <point x="364" y="483" type="line"/>
      <point x="372" y="513" type="line"/>
      <point x="183" y="513" type="line"/>
      <point x="223" y="680" type="line"/>
      <point x="187" y="671" type="line"/>
      <point x="72" y="194" type="line" smooth="yes"/>
      <point x="45" y="84"/>
      <point x="55" y="-6"/>
    </contour>
  </outline>
</glyph>
<glyph name="Uogonek" format="2">
  <advance width="638"/>
  <unicode hex="0172"/>
  <outline>
    <contour>
      <point x="297" y="-186" type="curve" smooth="yes"/>
      <point x="312" y="-186"/>
      <point x="327" y="-184"/>
      <point x="342" y="-179" type="curve"/>
      <point x="347" y="-149" type="line"/>
      <point x="333" y="-152"/>
      <point x="321" y="-154"/>
      <point x="312" y="-154" type="curve" smooth="yes"/>
      <point x="283" y="-154"/>
      <point x="265" y="-150"/>
      <point x="265" y="-119" type="curve" smooth="yes"/>
      <point x="265" y="-91"/>
      <point x="298" y="-48"/>
      <point x="367" y="0" type="curve"/>
      <point x="466" y="29"/>
      <point x="523" y="112"/>
      <point x="560" y="264" type="curve" smooth="yes"/>
      <point x="663" y="692" type="line"/>
      <point x="626" y="692" type="line"/>
      <point x="525" y="274" type="line" smooth="yes"/>
      <point x="481" y="90"/>
      <point x="414" y="23"/>
      <point x="281" y="23" type="curve" smooth="yes"/>
      <point x="161" y="23"/>
      <point x="122" y="91"/>
      <point x="122" y="173" type="curve" smooth="yes"/>
      <point x="122" y="207"/>
      <point x="129" y="236"/>
      <point x="137" y="270" type="curve" smooth="yes"/>
      <point x="238" y="693" type="line"/>
      <point x="201" y="693" type="line"/>
      <point x="98" y="258" type="line" smooth="yes"/>
      <point x="92" y="231"/>
      <point x="86" y="203"/>
      <point x="86" y="172" type="curve" smooth="yes"/>
      <point x="86" y="54"/>
      <point x="170" y="-31"/>
      <point x="314" y="-9" type="curve"/>
      <point x="255" y="-53"/>
      <point x="229" y="-95"/>
      <point x="229" y="-127" type="curve" smooth="yes"/>
      <point x="229" y="-164"/>
      <point x="255" y="-186"/>
    </contour>
  </outline>
</glyph>
<glyph name="Tonesix" format="2">
  <advance width="530"/>
  <unicode hex="0184"/>
  <outline>
    <contour>
      <point x="183" y="-7" type="curve" smooth="yes"/>
      <point x="377" y="-7"/>
      <point x="498" y="182"/>
      <point x="498" y="349" type="curve" smooth="yes"/>
      <point x="498" y="456"/>
      <point x="441" y="525"/>
      <point x="335" y="525" type="curve" smooth="yes"/>
      <point x="278" y="525"/>
      <point x="213" y="499"/>
      <point x="176" y="475" type="curve"/>
      <point x="248" y="776" type="line"/>
      <point x="223" y="768"/>
      <point x="175" y="749"/>
      <point x="148" y="733" type="curve"/>
      <point x="189" y="671" type="line"/>
      <point x="32" y="17" type="line"/>
      <point x="67" y="4"/>
      <point x="137" y="-7"/>
    </contour>
    <contour>
      <point x="193" y="25" type="curve" smooth="yes"/>
      <point x="152" y="25"/>
      <point x="104" y="30"/>
      <point x="72" y="39" type="curve"/>
      <point x="168" y="440" type="line"/>
      <point x="203" y="465"/>
      <point x="266" y="493"/>
      <point x="329" y="493" type="curve" smooth="yes"/>
      <point x="416" y="493"/>
      <point x="462" y="434"/>
      <point x="462" y="344" type="curve" smooth="yes"/>
      <point x="462" y="192"/>
      <point x="358" y="25"/>
    </contour>
  </outline>
</glyph>
<glyph name="deltaturned" format="2">
  <advance width="535"/>
  <unicode hex="018D"/>
  <outline>
    <contour>
      <point x="184" y="-185" type="curve" smooth="yes"/>
      <point x="271" y="-185"/>
      <point x="363" y="-156"/>
      <point x="363" y="-67" type="curve" smooth="yes"/>
      <point x="363" y="-8"/>
      <point x="323" y="25"/>
      <point x="281" y="52" type="curve"/>
      <point x="470" y="121"/>
      <point x="523" y="231"/>
      <point x="523" y="345" type="curve" smooth="yes"/>
      <point x="523" y="445"/>
      <point x="467" y="525"/>
      <point x="352" y="525" type="curve" smooth="yes"/>
      <point x="224" y="525"/>
      <point x="96" y="420"/>
      <point x="96" y="240" type="curve" smooth="yes"/>
      <point x="96" y="45"/>
      <point x="327" y="50"/>
      <point x="327" y="-69" type="curve" smooth="yes"/>
      <point x="327" y="-130"/>
      <point x="259" y="-153"/>
      <point x="190" y="-153" type="curve" smooth="yes"/>
      <point x="134" y="-153"/>
      <point x="75" y="-141"/>
      <point x="51" y="-128" type="curve"/>
      <point x="36" y="-158" type="line"/>
      <point x="74" y="-173"/>
      <point x="127" y="-185"/>
    </contour>
    <contour>
      <point x="246" y="76" type="curve"/>
      <point x="185" y="111"/>
      <point x="132" y="149"/>
      <point x="132" y="243" type="curve" smooth="yes"/>
      <point x="132" y="403"/>
      <point x="239" y="493"/>
      <point x="348" y="493" type="curve" smooth="yes"/>
      <point x="440" y="493"/>
      <point x="487" y="434"/>
      <point x="487" y="344" type="curve" smooth="yes"/>
      <point x="487" y="242"/>
      <point x="433" y="121"/>
    </contour>
  </outline>
</glyph>
<glyph name="Ereversed" format="2">
  <advance width="492"/>
  <unicode hex="018E"/>
  <outline>
    <contour>
      <point x="-33" y="0" type="line"/>
      <point x="342" y="0" type="line"/>
      <point x="510" y="692" type="line"/>
      <point x="150" y="692" type="line"/>
      <point x="142" y="659" type="line"/>
      <point x="469" y="659" type="line"/>
      <point x="401" y="379" type="line"/>
      <point x="109" y="379" type="line"/>
      <point x="102" y="348" type="line"/>
      <point x="393" y="348" type="line"/>
      <point x="316" y="32" type="line"/>
      <point x="-26" y="32" type="line"/>
    </contour>
  </outline>
</glyph>
<glyph name="florin" format="2">
  <advance width="347"/>
  <unicode hex="0192"/>
  <outline>
    <contour>
      <point x="-82" y="-188" type="curve" smooth="yes"/>
      <point x="9" y="-188"/>
      <point x="44" y="-123"/>
      <point x="78" y="16" type="curve" smooth="yes"/>
      <point x="192" y="481" type="line"/>
      <point x="363" y="481" type="line"/>
      <point x="370" y="513" type="line"/>
      <point x="199" y="513" type="line"/>
      <point x="216" y="577" type="line" smooth="yes"/>
      <point x="251" y="709"/>
      <point x="308" y="744"/>
      <point x="384" y="744" type="curve" smooth="yes"/>
      <point x="415" y="744"/>
      <point x="444" y="739"/>
      <point x="464" y="733" type="curve"/>
      <point x="472" y="764" type="line"/>
      <point x="451" y="772"/>
      <point x="421" y="776"/>
      <point x="385" y="776" type="curve" smooth="yes"/>
      <point x="315" y="776"/>
      <point x="223" y="746"/>
      <point x="182" y="578" type="curve" smooth="yes"/>
      <point x="44" y="15" type="line" smooth="yes"/>
      <point x="19" y="-86"/>
      <point x="-9" y="-156"/>
      <point x="-79" y="-156" type="curve" smooth="yes"/>
      <point x="-111" y="-156"/>
      <point x="-131" y="-151"/>
      <point x="-153" y="-141" type="curve"/>
      <point x="-161" y="-170" type="line"/>
      <point x="-140" y="-181"/>
      <point x="-115" y="-188"/>
    </contour>
  </outline>
</glyph>
<glyph name="hv" format="2">
  <advance width="856"/>
  <unicode hex="0195"/>
  <outline>
    <contour>
      <point x="531" y="-7" type="curve" smooth="yes"/>
      <point x="657" y="-7"/>
      <point x="724" y="65"/>
      <point x="756" y="199" type="curve" smooth="yes"/>
      <point x="831" y="513" type="line"/>
      <point x="797" y="513" type="line"/>
      <point x="722" y="199" type="line" smooth="yes"/>
      <point x="697" y="94"/>
      <point x="643" y="25"/>
      <point x="535" y="25" type="curve" smooth="yes"/>
      <point x="457" y="25"/>
      <point x="425" y="61"/>
      <point x="425" y="127" type="curve" smooth="yes"/>
      <point x="425" y="148"/>
      <point x="428" y="171"/>
      <point x="434" y="197" type="curve" smooth="yes"/>
      <point x="457" y="301" type="line" smooth="yes"/>
      <point x="462" y="326"/>
      <point x="465" y="348"/>
      <point x="465" y="369" type="curve" smooth="yes"/>
      <point x="465" y="468"/>
      <point x="407" y="522"/>
      <point x="313" y="522" type="curve" smooth="yes"/>
      <point x="271" y="522"/>
      <point x="223" y="513"/>
      <point x="182" y="498" type="curve"/>
      <point x="249" y="774" type="line"/>
      <point x="213" y="766" type="line"/>
      <point x="28" y="0" type="line"/>
      <point x="62" y="0" type="line"/>
      <point x="174" y="465" type="line"/>
      <point x="215" y="480"/>
      <point x="259" y="491"/>
      <point x="304" y="491" type="curve" smooth="yes"/>
      <point x="378" y="491"/>
      <point x="431" y="450"/>
      <point x="431" y="363" type="curve" smooth="yes"/>
      <point x="431" y="344"/>
      <point x="428" y="324"/>
      <point x="423" y="301" type="curve" smooth="yes"/>
      <point x="400" y="197" type="line" smooth="yes"/>
      <point x="394" y="171"/>
      <point x="391" y="147"/>
      <point x="391" y="125" type="curve" smooth="yes"/>
      <point x="391" y="45"/>
      <point x="432" y="-7"/>
    </contour>
  </outline>
</glyph>
<glyph name="Khook" format="2">
  <advance width="578"/>
  <unicode hex="0198"/>
  <outline>
    <contour>
      <point x="26" y="0" type="line"/>
      <point x="63" y="0" type="line"/>
      <point x="145" y="344" type="line"/>
      <point x="262" y="266"/>
      <point x="361" y="159"/>
      <point x="450" y="0" type="curve"/>
      <point x="490" y="0" type="line"/>
      <point x="397" y="167"/>
      <point x="291" y="283"/>
      <point x="185" y="357" type="curve"/>
      <point x="455" y="617" type="line" smooth="yes"/>
      <point x="506" y="666"/>
      <point x="535" y="675"/>
      <point x="570" y="675" type="curve" smooth="yes"/>
      <point x="596" y="675"/>
      <point x="618" y="667"/>
      <point x="645" y="640" type="curve"/>
      <point x="669" y="664" type="line"/>
      <point x="638" y="695"/>
      <point x="611" y="707"/>
      <point x="571" y="707" type="curve" smooth="yes"/>
      <point x="529" y="707"/>
      <point x="485" y="692"/>
      <point x="432" y="640" type="curve" smooth="yes"/>
      <point x="150" y="365" type="line"/>
      <point x="229" y="693" type="line"/>
      <point x="192" y="693" type="line"/>
    </contour>
  </outline>
</glyph>
<glyph name="ohorn" format="2">
  <advance width="550"/>
  <unicode hex="01A1"/>
  <outline>
    <contour>
      <point x="201" y="0" type="curve" smooth="yes"/>
      <point x="358" y="0"/>
      <point x="482" y="157"/>
      <point x="482" y="355" type="curve" smooth="yes"/>
      <point x="482" y="381"/>
      <point x="478" y="405"/>
      <point x="471" y="426" type="curve"/>
      <point x="543" y="475"/>
      <point x="580" y="527"/>
      <point x="592" y="621" type="curve"/>
      <point x="556" y="621" type="line"/>
      <point x="551" y="555"/>
      <point x="516" y="489"/>
      <point x="459" y="453" type="curve"/>
      <point x="432" y="502"/>
      <point x="384" y="532"/>
      <point x="323" y="532" type="curve" smooth="yes"/>
      <point x="162" y="532"/>
      <point x="40" y="379"/>
      <point x="40" y="176" type="curve" smooth="yes"/>
      <point x="40" y="69"/>
      <point x="103" y="0"/>
    </contour>
    <contour>
      <point x="202" y="32" type="curve" smooth="yes"/>
      <point x="125" y="32"/>
      <point x="76" y="88"/>
      <point x="76" y="176" type="curve" smooth="yes"/>
      <point x="76" y="359"/>
      <point x="183" y="500"/>
      <point x="322" y="500" type="curve" smooth="yes"/>
      <point x="398" y="500"/>
      <point x="446" y="443"/>
      <point x="446" y="353" type="curve" smooth="yes"/>
      <point x="446" y="172"/>
      <point x="340" y="32"/>
    </contour>
  </outline>
</glyph>
<glyph name="oi" format="2">
  <advance width="741"/>
  <unicode hex="01A3"/>
  <outline>
    <contour>
      <point x="513" y="-185" type="line"/>
      <point x="547" y="-185" type="line"/>
      <point x="668" y="319" type="line" smooth="yes"/>
      <point x="678" y="360"/>
      <point x="682" y="394"/>
      <point x="682" y="421" type="curve" smooth="yes"/>
      <point x="682" y="495"/>
      <point x="649" y="525"/>
      <point x="580" y="525" type="curve" smooth="yes"/>
      <point x="533" y="525"/>
      <point x="481" y="505"/>
      <point x="442" y="470" type="curve"/>
      <point x="414" y="505"/>
      <point x="372" y="525"/>
      <point x="322" y="525" type="curve" smooth="yes"/>
      <point x="161" y="525"/>
      <point x="39" y="372"/>
      <point x="39" y="169" type="curve" smooth="yes"/>
      <point x="39" y="62"/>
      <point x="102" y="-7"/>
      <point x="200" y="-7" type="curve" smooth="yes"/>
      <point x="357" y="-7"/>
      <point x="481" y="150"/>
      <point x="481" y="348" type="curve" smooth="yes"/>
      <point x="481" y="387"/>
      <point x="472" y="421"/>
      <point x="457" y="449" type="curve"/>
      <point x="492" y="478"/>
      <point x="530" y="493"/>
      <point x="569" y="493" type="curve" smooth="yes"/>
      <point x="624" y="493"/>
      <point x="646" y="467"/>
      <point x="646" y="413" type="curve" smooth="yes"/>
      <point x="646" y="384"/>
      <point x="640" y="347"/>
      <point x="629" y="301" type="curve" smooth="yes"/>
    </contour>
    <contour>
      <point x="201" y="25" type="curve" smooth="yes"/>
      <point x="124" y="25"/>
      <point x="75" y="81"/>
      <point x="75" y="169" type="curve" smooth="yes"/>
      <point x="75" y="352"/>
      <point x="182" y="493"/>
      <point x="321" y="493" type="curve" smooth="yes"/>
      <point x="397" y="493"/>
      <point x="445" y="436"/>
      <point x="445" y="346" type="curve" smooth="yes"/>
      <point x="445" y="165"/>
      <point x="339" y="25"/>
    </contour>
  </outline>
</glyph>
<glyph name="Tonetwo" format="2">
  <advance width="509"/>
  <unicode hex="01A7"/>
  <outline>
    <contour>
      <point x="221" y="-10" type="curve" smooth="yes"/>
      <point x="289" y="-10"/>
      <point x="358" y="8"/>
      <point x="414" y="36" type="curve"/>
      <point x="407" y="69" type="line"/>
      <point x="346" y="38"/>
      <point x="287" y="24"/>
      <point x="231" y="24" type="curve" smooth="yes"/>
      <point x="126" y="24"/>
      <point x="77" y="69"/>
      <point x="77" y="141" type="curve" smooth="yes"/>
      <point x="77" y="211"/>
      <point x="118" y="283"/>
      <point x="272" y="337" type="curve" smooth="yes"/>
      <point x="442" y="398"/>
      <point x="502" y="469"/>
      <point x="502" y="556" type="curve" smooth="yes"/>
      <point x="502" y="649"/>
      <point x="447" y="703"/>
      <point x="333" y="703" type="curve" smooth="yes"/>
      <point x="277" y="703"/>
      <point x="210" y="685"/>
      <point x="167" y="662" type="curve"/>
      <point x="175" y="631" type="line"/>
      <point x="222" y="654"/>
      <point x="277" y="669"/>
      <point x="330" y="669" type="curve" smooth="yes"/>
      <point x="420" y="669"/>
      <point x="463" y="627"/>
      <point x="463" y="556" type="curve" smooth="yes"/>
      <point x="463" y="478"/>
      <point x="415" y="428"/>
      <point x="254" y="367" type="curve" smooth="yes"/>
      <point x="97" y="311"/>
      <point x="39" y="234"/>
      <point x="39" y="141" type="curve" smooth="yes"/>
      <point x="39" y="49"/>
      <point x="98" y="-10"/>
    </contour>
  </outline>
</glyph>
<glyph name="eshreversedloop" format="2">
  <advance width="354"/>
  <unicode hex="01AA"/>
  <outline>
    <contour>
      <point x="190" y="512" type="curve" smooth="yes"/>
      <point x="227" y="512"/>
      <point x="256" y="528"/>
      <point x="295" y="564" type="curve"/>
      <point x="146" y="-56" type="line" smooth="yes"/>
      <point x="127" y="-134"/>
      <point x="157" y="-178"/>
      <point x="218" y="-187" type="curve"/>
      <point x="230" y="-155" type="line"/>
      <point x="184" y="-147"/>
      <point x="166" y="-115"/>
      <point x="179" y="-61" type="curve" smooth="yes"/>
      <point x="343" y="623" type="line" smooth="yes"/>
      <point x="348" y="643"/>
      <point x="350" y="663"/>
      <point x="350" y="681" type="curve" smooth="yes"/>
      <point x="350" y="737"/>
      <point x="318" y="776"/>
      <point x="256" y="776" type="curve" smooth="yes"/>
      <point x="161" y="776"/>
      <point x="104" y="700"/>
      <point x="104" y="610" type="curve" smooth="yes"/>
      <point x="104" y="557"/>
      <point x="130" y="512"/>
    </contour>
    <contour>
      <point x="193" y="544" type="curve" smooth="yes"/>
      <point x="154" y="544"/>
      <point x="141" y="576"/>
      <point x="141" y="613" type="curve" smooth="yes"/>
      <point x="141" y="679"/>
      <point x="173" y="744"/>
      <point x="248" y="744" type="curve" smooth="yes"/>
      <point x="292" y="744"/>
      <point x="317" y="723"/>
      <point x="317" y="674" type="curve" smooth="yes"/>
      <point x="317" y="662"/>
      <point x="315" y="649"/>
      <point x="312" y="635" type="curve" smooth="yes"/>
      <point x="307" y="613" type="line"/>
      <point x="264" y="564"/>
      <point x="229" y="544"/>
    </contour>
  </outline>
</glyph>
<glyph name="Thook" format="2">
  <advance width="482"/>
  <unicode hex="01AC"/>
  <outline>
    <contour>
      <point x="154" y="0" type="line"/>
      <point x="191" y="0" type="line"/>
      <point x="349" y="660" type="line"/>
      <point x="560" y="660" type="line"/>
      <point x="568" y="693" type="line"/>
      <point x="301" y="693" type="line" smooth="yes"/>
      <point x="150" y="693"/>
      <point x="57" y="631"/>
      <point x="57" y="507" type="curve" smooth="yes"/>
      <point x="57" y="505"/>
      <point x="57" y="503"/>
      <point x="57" y="501" type="curve"/>
      <point x="89" y="504" type="line"/>
      <point x="95" y="629"/>
      <point x="181" y="660"/>
      <point x="295" y="660" type="curve" smooth="yes"/>
      <point x="312" y="660" type="line"/>
    </contour>
  </outline>
</glyph>
<glyph name="Tretroflexhook" format="2">
  <advance width="504"/>
  <unicode hex="01AE"/>
  <outline>
    <contour>
      <point x="238" y="-189" type="curve" smooth="yes"/>
      <point x="254" y="-189"/>
      <point x="269" y="-187"/>
      <point x="284" y="-182" type="curve"/>
      <point x="287" y="-151" type="line"/>
      <point x="279" y="-154"/>
      <point x="262" y="-157"/>
      <point x="250" y="-157" type="curve" smooth="yes"/>
      <point x="211" y="-157"/>
      <point x="192" y="-141"/>
      <point x="192" y="-103" type="curve" smooth="yes"/>
      <point x="192" y="-92"/>
      <point x="194" y="-77"/>
      <point x="198" y="-61" type="curve" smooth="yes"/>
      <point x="371" y="660" type="line"/>
      <point x="582" y="660" type="line"/>
      <point x="590" y="693" type="line"/>
      <point x="129" y="693" type="line"/>
      <point x="122" y="660" type="line"/>
      <point x="334" y="660" type="line"/>
      <point x="160" y="-68" type="line" smooth="yes"/>
      <point x="157" y="-82"/>
      <point x="155" y="-95"/>
      <point x="155" y="-107" type="curve" smooth="yes"/>
      <point x="155" y="-165"/>
      <point x="195" y="-189"/>
    </contour>
  </outline>
</glyph>
<glyph name="Uhorn" format="2">
  <advance width="678"/>
  <unicode hex="01AF"/>
  <outline>
    <contour>
      <point x="276" y="-11" type="curve" smooth="yes"/>
      <point x="434" y="-11"/>
      <point x="513" y="70"/>
      <point x="560" y="264" type="curve" smooth="yes"/>
      <point x="654" y="656" type="line"/>
      <point x="768" y="656"/>
      <point x="805" y="743"/>
      <point x="807" y="799" type="curve"/>
      <point x="766" y="799" type="line"/>
      <point x="762" y="751"/>
      <point x="742" y="692"/>
      <point x="663" y="692" type="curve" smooth="yes"/>
      <point x="626" y="692" type="line"/>
      <point x="525" y="274" type="line" smooth="yes"/>
      <point x="481" y="90"/>
      <point x="414" y="23"/>
      <point x="281" y="23" type="curve" smooth="yes"/>
      <point x="161" y="23"/>
      <point x="122" y="91"/>
      <point x="122" y="173" type="curve" smooth="yes"/>
      <point x="122" y="207"/>
      <point x="129" y="236"/>
      <point x="137" y="270" type="curve" smooth="yes"/>
      <point x="238" y="693" type="line"/>
      <point x="201" y="693" type="line"/>
      <point x="98" y="258" type="line" smooth="yes"/>
      <point x="92" y="231"/>
      <point x="86" y="203"/>
      <point x="86" y="172" type="curve" smooth="yes"/>
      <point x="86" y="65"/>
      <point x="148" y="-11"/>
    </contour>
  </outline>
</glyph>
<glyph name="Upsilon-latin" format="2">
  <advance width="700"/>
  <unicode hex="01B1"/>
  <outline>
    <contour>
      <point x="317" y="-10" type="curve" smooth="yes"/>
      <point x="518" y="-10"/>
      <point x="691" y="151"/>
      <point x="691" y="401" type="curve" smooth="yes"/>
      <point x="691" y="505"/>
      <point x="648" y="592"/>
      <point x="584" y="659" type="curve"/>
      <point x="768" y="659" type="line"/>
      <point x="776" y="693" type="line"/>
      <point x="525" y="693" type="line"/>
      <point x="522" y="675" type="line"/>
      <point x="609" y="604"/>
      <point x="652" y="508"/>
      <point x="652" y="393" type="curve" smooth="yes"/>
      <point x="652" y="163"/>
      <point x="497" y="24"/>
      <point x="322" y="24" type="curve" smooth="yes"/>
      <point x="184" y="24"/>
      <point x="111" y="117"/>
      <point x="111" y="263" type="curve" smooth="yes"/>
      <point x="111" y="446"/>
      <point x="214" y="577"/>
      <point x="382" y="675" type="curve"/>
      <point x="385" y="693" type="line"/>
      <point x="131" y="693" type="line"/>
      <point x="123" y="659" type="line"/>
      <point x="304" y="659" type="line"/>
      <point x="159" y="554"/>
      <point x="72" y="426"/>
      <point x="72" y="254" type="curve" smooth="yes"/>
      <point x="72" y="89"/>
      <point x="162" y="-10"/>
    </contour>
  </outline>
</glyph>
<glyph name="Vhook" format="2">
  <advance width="626"/>
  <unicode hex="01B2"/>
  <outline>
    <contour>
      <point x="252" y="-10" type="curve" smooth="yes"/>
      <point x="490" y="-10"/>
      <point x="608" y="268"/>
      <point x="608" y="531" type="curve" smooth="yes"/>
      <point x="608" y="648"/>
      <point x="566" y="703"/>
      <point x="481" y="703" type="curve" smooth="yes"/>
      <point x="461" y="703"/>
      <point x="441" y="701"/>
      <point x="421" y="696" type="curve"/>
      <point x="422" y="666" type="line"/>
      <point x="438" y="670"/>
      <point x="451" y="671"/>
      <point x="467" y="671" type="curve" smooth="yes"/>
      <point x="541" y="671"/>
      <point x="572" y="624"/>
      <point x="572" y="531" type="curve" smooth="yes"/>
      <point x="572" y="301"/>
      <point x="474" y="24"/>
      <point x="260" y="24" type="curve" smooth="yes"/>
      <point x="150" y="24"/>
      <point x="104" y="73"/>
      <point x="104" y="164" type="curve" smooth="yes"/>
      <point x="104" y="194"/>
      <point x="109" y="228"/>
      <point x="118" y="266" type="curve" smooth="yes"/>
      <point x="220" y="693" type="line"/>
      <point x="183" y="693" type="line"/>
      <point x="79" y="259" type="line" smooth="yes"/>
      <point x="70" y="223"/>
      <point x="66" y="190"/>
      <point x="66" y="161" type="curve" smooth="yes"/>
      <point x="66" y="47"/>
      <point x="132" y="-10"/>
    </contour>
  </outline>
</glyph>
<glyph name="zstroke" format="2">
  <advance width="397"/>
  <unicode hex="01B6"/>
  <outline>
    <contour>
      <point x="-25" y="0" type="line"/>
      <point x="322" y="0" type="line"/>
      <point x="327" y="30" type="line"/>
      <point x="20" y="30" type="line"/>
      <point x="80" y="109"/>
      <point x="143" y="185"/>
      <point x="209" y="258" type="curve"/>
      <point x="367" y="258" type="line"/>
      <point x="378" y="288" type="line"/>
      <point x="236" y="288" type="line"/>
      <point x="299" y="355"/>
      <point x="363" y="420"/>
      <point x="429" y="483" type="curve"/>
      <point x="436" y="513" type="line"/>
      <point x="106" y="513" type="line"/>
      <point x="100" y="483" type="line"/>
      <point x="391" y="483" type="line"/>
      <point x="323" y="421"/>
      <point x="258" y="356"/>
      <point x="195" y="288" type="curve"/>
      <point x="73" y="288" type="line"/>
      <point x="66" y="258" type="line"/>
      <point x="168" y="258" type="line"/>
      <point x="103" y="185"/>
      <point x="41" y="109"/>
      <point x="-18" y="30" type="curve"/>
    </contour>
  </outline>
</glyph>
<glyph name="Ezh" format="2">
  <advance width="488"/>
  <unicode hex="01B7"/>
  <anchor x="150" y="0" name="bottom"/>
  <anchor x="329" y="669" name="top"/>
  <outline>
    <contour>
      <point x="167" y="-10" type="curve" smooth="yes"/>
      <point x="307" y="-10"/>
      <point x="433" y="56"/>
      <point x="433" y="200" type="curve" smooth="yes"/>
      <point x="433" y="306"/>
      <point x="377" y="369"/>
      <point x="250" y="383" type="curve"/>
      <point x="346" y="473"/>
      <point x="436" y="568"/>
      <point x="521" y="668" type="curve"/>
      <point x="527" y="693" type="line"/>
      <point x="166" y="693" type="line"/>
      <point x="159" y="659" type="line"/>
      <point x="470" y="659" type="line"/>
      <point x="386" y="560"/>
      <point x="297" y="469"/>
      <point x="202" y="381" type="curve"/>
      <point x="194" y="353" type="line"/>
      <point x="202" y="353" type="line" smooth="yes"/>
      <point x="328" y="353"/>
      <point x="395" y="300"/>
      <point x="395" y="199" type="curve" smooth="yes"/>
      <point x="395" y="75"/>
      <point x="286" y="24"/>
      <point x="167" y="24" type="curve" smooth="yes"/>
      <point x="105" y="24"/>
      <point x="48" y="39"/>
      <point x="0" y="69" type="curve"/>
      <point x="-13" y="37" type="line"/>
      <point x="33" y="5"/>
      <point x="93" y="-10"/>
    </contour>
  </outline>
</glyph>
<glyph name="Ezhreversed" format="2">
  <advance width="452"/>
  <unicode hex="01B8"/>
  <outline>
    <contour>
      <point x="227" y="-10" type="curve" smooth="yes"/>
      <point x="296" y="-10"/>
      <point x="367" y="9"/>
      <point x="422" y="38" type="curve"/>
      <point x="419" y="71" type="line"/>
      <point x="363" y="41"/>
      <point x="299" y="24"/>
      <point x="234" y="24" type="curve" smooth="yes"/>
      <point x="131" y="24"/>
      <point x="59" y="68"/>
      <point x="59" y="162" type="curve" smooth="yes"/>
      <point x="59" y="282"/>
      <point x="147" y="353"/>
      <point x="336" y="353" type="curve" smooth="yes"/>
      <point x="349" y="353" type="line"/>
      <point x="357" y="387" type="line"/>
      <point x="309" y="455"/>
      <point x="244" y="564"/>
      <point x="196" y="659" type="curve"/>
      <point x="537" y="659" type="line"/>
      <point x="545" y="693" type="line"/>
      <point x="165" y="693" type="line"/>
      <point x="157" y="659" type="line"/>
      <point x="194" y="586"/>
      <point x="255" y="477"/>
      <point x="315" y="387" type="curve"/>
      <point x="126" y="379"/>
      <point x="19" y="297"/>
      <point x="19" y="163" type="curve" smooth="yes"/>
      <point x="19" y="37"/>
      <point x="114" y="-10"/>
    </contour>
  </outline>
</glyph>
<glyph name="twostroke" format="2">
  <advance width="439"/>
  <unicode hex="01BB"/>
  <outline>
    <contour>
      <point x="2" y="0" type="curve"/>
      <point x="362" y="0" type="line"/>
      <point x="368" y="32" type="line"/>
      <point x="51" y="32" type="line"/>
      <point x="65" y="114"/>
      <point x="166" y="221"/>
      <point x="266" y="287" type="curve"/>
      <point x="298" y="309" type="line"/>
      <point x="440" y="309" type="line"/>
      <point x="448" y="340" type="line"/>
      <point x="340" y="340" type="line"/>
      <point x="403" y="393"/>
      <point x="460" y="462"/>
      <point x="460" y="559" type="curve" smooth="yes"/>
      <point x="460" y="671"/>
      <point x="384" y="706"/>
      <point x="307" y="706" type="curve" smooth="yes"/>
      <point x="245" y="706"/>
      <point x="171" y="679"/>
      <point x="129" y="645" type="curve"/>
      <point x="142" y="617" type="line"/>
      <point x="181" y="647"/>
      <point x="250" y="674"/>
      <point x="304" y="674" type="curve" smooth="yes"/>
      <point x="369" y="674"/>
      <point x="424" y="641"/>
      <point x="424" y="557" type="curve" smooth="yes"/>
      <point x="424" y="459"/>
      <point x="356" y="393"/>
      <point x="285" y="340" type="curve"/>
      <point x="105" y="340" type="line"/>
      <point x="96" y="309" type="line"/>
      <point x="240" y="309" type="line"/>
      <point x="209" y="287" type="line"/>
      <point x="123" y="224"/>
      <point x="35" y="132"/>
    </contour>
  </outline>
</glyph>
<glyph name="Tonefive" format="2">
  <advance width="516"/>
  <unicode hex="01BC"/>
  <outline>
    <contour>
      <point x="174" y="-15" type="curve" smooth="yes"/>
      <point x="300" y="-15"/>
      <point x="437" y="59"/>
      <point x="437" y="225" type="curve" smooth="yes"/>
      <point x="437" y="356"/>
      <point x="320" y="405"/>
      <point x="195" y="416" type="curve"/>
      <point x="222" y="492"/>
      <point x="252" y="580"/>
      <point x="274" y="659" type="curve"/>
      <point x="528" y="659" type="line"/>
      <point x="535" y="693" type="line"/>
      <point x="139" y="693" type="line"/>
      <point x="131" y="659" type="line"/>
      <point x="236" y="659" type="line"/>
      <point x="212" y="573"/>
      <point x="181" y="471"/>
      <point x="151" y="388" type="curve"/>
      <point x="305" y="383"/>
      <point x="402" y="329"/>
      <point x="402" y="220" type="curve" smooth="yes"/>
      <point x="402" y="85"/>
      <point x="281" y="17"/>
      <point x="175" y="17" type="curve" smooth="yes"/>
      <point x="127" y="17"/>
      <point x="79" y="23"/>
      <point x="38" y="48" type="curve"/>
      <point x="23" y="16" type="line"/>
      <point x="70" y="-6"/>
      <point x="122" y="-15"/>
    </contour>
  </outline>
</glyph>
<glyph name="glottalinvertedstroke" format="2">
  <advance width="412"/>
  <unicode hex="01BE"/>
  <outline>
    <contour>
      <point x="125" y="-8" type="curve" smooth="yes"/>
      <point x="202" y="-8"/>
      <point x="300" y="29"/>
      <point x="300" y="140" type="curve" smooth="yes"/>
      <point x="300" y="213"/>
      <point x="242" y="244"/>
      <point x="201" y="265" type="curve" smooth="yes"/>
      <point x="160" y="287"/>
      <point x="112" y="314"/>
      <point x="112" y="373" type="curve" smooth="yes"/>
      <point x="112" y="381"/>
      <point x="113" y="390"/>
      <point x="115" y="399" type="curve" smooth="yes"/>
      <point x="133" y="483" type="line"/>
      <point x="321" y="483" type="line"/>
      <point x="329" y="513" type="line"/>
      <point x="140" y="513" type="line"/>
      <point x="180" y="680" type="line"/>
      <point x="144" y="671" type="line"/>
      <point x="82" y="412" type="line" smooth="yes"/>
      <point x="79" y="398"/>
      <point x="77" y="386"/>
      <point x="77" y="374" type="curve" smooth="yes"/>
      <point x="77" y="294"/>
      <point x="149" y="258"/>
      <point x="196" y="232" type="curve" smooth="yes"/>
      <point x="225" y="216"/>
      <point x="267" y="188"/>
      <point x="267" y="138" type="curve" smooth="yes"/>
      <point x="267" y="55"/>
      <point x="196" y="24"/>
      <point x="130" y="24" type="curve" smooth="yes"/>
      <point x="86" y="24"/>
      <point x="44" y="31"/>
      <point x="2" y="55" type="curve"/>
      <point x="-10" y="24" type="line"/>
      <point x="33" y="1"/>
      <point x="77" y="-8"/>
    </contour>
  </outline>
</glyph>
<glyph name="eturned" format="2">
  <advance width="476"/>
  <unicode hex="01DD"/>
  <outline>
    <contour>
      <point x="155" y="-6" type="curve" smooth="yes"/>
      <point x="340" y="-6"/>
      <point x="439" y="177"/>
      <point x="439" y="346" type="curve" smooth="yes"/>
      <point x="439" y="455"/>
      <point x="383" y="525"/>
      <point x="256" y="525" type="curve" smooth="yes"/>
      <point x="202" y="525"/>
      <point x="149" y="514"/>
      <point x="101" y="488" type="curve"/>
      <point x="106" y="455" type="line"/>
      <point x="149" y="480"/>
      <point x="198" y="493"/>
      <point x="248" y="493" type="curve" smooth="yes"/>
      <point x="367" y="493"/>
      <point x="404" y="440"/>
      <point x="404" y="331" type="curve" smooth="yes"/>
      <point x="404" y="331"/>
      <point x="403" y="316"/>
      <point x="402" y="306" type="curve"/>
      <point x="169" y="298"/>
      <point x="17" y="267"/>
      <point x="17" y="120" type="curve" smooth="yes"/>
      <point x="17" y="46"/>
      <point x="60" y="-6"/>
    </contour>
    <contour>
      <point x="154" y="26" type="curve" smooth="yes"/>
      <point x="97" y="26"/>
      <point x="53" y="58"/>
      <point x="53" y="121" type="curve" smooth="yes"/>
      <point x="53" y="228"/>
      <point x="148" y="266"/>
      <point x="398" y="272" type="curve"/>
      <point x="367" y="125"/>
      <point x="285" y="26"/>
    </contour>
  </outline>
</glyph>
<glyph name="yogh" format="2">
  <advance width="427"/>
  <unicode hex="021D"/>
  <outline>
    <contour>
      <point x="-52" y="-185" type="line"/>
      <point x="206" y="-185"/>
      <point x="330" y="-75"/>
      <point x="330" y="61" type="curve" smooth="yes"/>
      <point x="330" y="138"/>
      <point x="291" y="184"/>
      <point x="228" y="200" type="curve"/>
      <point x="312" y="236"/>
      <point x="366" y="324"/>
      <point x="366" y="395" type="curve" smooth="yes"/>
      <point x="366" y="477"/>
      <point x="319" y="525"/>
      <point x="229" y="525" type="curve" smooth="yes"/>
      <point x="183" y="525"/>
      <point x="137" y="514"/>
      <point x="89" y="493" type="curve"/>
      <point x="96" y="465" type="line"/>
      <point x="146" y="485"/>
      <point x="180" y="493"/>
      <point x="222" y="493" type="curve" smooth="yes"/>
      <point x="301" y="493"/>
      <point x="329" y="458"/>
      <point x="329" y="394" type="curve" smooth="yes"/>
      <point x="329" y="304"/>
      <point x="250" y="212"/>
      <point x="151" y="212" type="curve" smooth="yes"/>
      <point x="119" y="212" type="line"/>
      <point x="112" y="180" type="line"/>
      <point x="144" y="180" type="line" smooth="yes"/>
      <point x="241" y="180"/>
      <point x="293" y="140"/>
      <point x="293" y="61" type="curve" smooth="yes"/>
      <point x="293" y="-53"/>
      <point x="193" y="-150"/>
      <point x="-45" y="-153" type="curve"/>
    </contour>
  </outline>
</glyph>
<glyph name="ou" format="2">
  <advance width="533"/>
  <unicode hex="0223"/>
  <outline>
    <contour>
      <point x="212" y="-7" type="curve" smooth="yes"/>
      <point x="365" y="-7"/>
      <point x="485" y="113"/>
      <point x="485" y="298" type="curve" smooth="yes"/>
      <point x="485" y="374"/>
      <point x="450" y="431"/>
      <point x="387" y="460" type="curve"/>
      <point x="503" y="510"/>
      <point x="536" y="645"/>
      <point x="536" y="776" type="curve"/>
      <point x="502" y="776" type="line"/>
      <point x="502" y="770"/>
      <point x="502" y="763"/>
      <point x="502" y="757" type="curve" smooth="yes"/>
      <point x="502" y="620"/>
      <point x="450" y="475"/>
      <point x="310" y="475" type="curve" smooth="yes"/>
      <point x="230" y="475"/>
      <point x="192" y="507"/>
      <point x="192" y="578" type="curve" smooth="yes"/>
      <point x="192" y="641"/>
      <point x="215" y="713"/>
      <point x="244" y="776" type="curve"/>
      <point x="210" y="776" type="line"/>
      <point x="186" y="723"/>
      <point x="157" y="647"/>
      <point x="157" y="574" type="curve" smooth="yes"/>
      <point x="157" y="517"/>
      <point x="181" y="484"/>
      <point x="219" y="459" type="curve"/>
      <point x="101" y="412"/>
      <point x="34" y="298"/>
      <point x="34" y="162" type="curve" smooth="yes"/>
      <point x="34" y="51"/>
      <point x="105" y="-7"/>
    </contour>
    <contour>
      <point x="219" y="25" type="curve" smooth="yes"/>
      <point x="124" y="25"/>
      <point x="70" y="76"/>
      <point x="70" y="165" type="curve" smooth="yes"/>
      <point x="70" y="320"/>
      <point x="166" y="443"/>
      <point x="303" y="443" type="curve" smooth="yes"/>
      <point x="398" y="443"/>
      <point x="449" y="391"/>
      <point x="449" y="298" type="curve" smooth="yes"/>
      <point x="449" y="134"/>
      <point x="350" y="25"/>
    </contour>
  </outline>
</glyph>
<glyph name="Zhook" format="2">
  <advance width="518"/>
  <unicode hex="0224"/>
  <outline>
    <contour>
      <point x="272" y="-187" type="curve" smooth="yes"/>
      <point x="351" y="-187"/>
      <point x="384" y="-131"/>
      <point x="405" y="-38" type="curve" smooth="yes"/>
      <point x="421" y="34" type="line"/>
      <point x="30" y="34" type="line"/>
      <point x="193" y="250"/>
      <point x="380" y="466"/>
      <point x="572" y="659" type="curve"/>
      <point x="578" y="693" type="line"/>
      <point x="165" y="693" type="line"/>
      <point x="158" y="659" type="line"/>
      <point x="529" y="659" type="line"/>
      <point x="344" y="475"/>
      <point x="169" y="274"/>
      <point x="-13" y="34" type="curve"/>
      <point x="-21" y="0" type="line"/>
      <point x="380" y="0" type="line"/>
      <point x="374" y="-27" type="line" smooth="yes"/>
      <point x="354" y="-119"/>
      <point x="328" y="-153"/>
      <point x="272" y="-153" type="curve" smooth="yes"/>
      <point x="259" y="-153"/>
      <point x="243" y="-152"/>
      <point x="226" y="-147" type="curve"/>
      <point x="219" y="-181" type="line"/>
      <point x="239" y="-185"/>
      <point x="258" y="-187"/>
    </contour>
  </outline>
</glyph>
<glyph name="zhook" format="2">
  <advance width="396"/>
  <unicode hex="0225"/>
  <outline>
    <contour>
      <point x="170" y="-189" type="curve" smooth="yes"/>
      <point x="246" y="-189"/>
      <point x="290" y="-147"/>
      <point x="315" y="-27" type="curve" smooth="yes"/>
      <point x="327" y="30" type="line"/>
      <point x="20" y="30" type="line"/>
      <point x="143" y="193"/>
      <point x="282" y="343"/>
      <point x="429" y="483" type="curve"/>
      <point x="436" y="513" type="line"/>
      <point x="106" y="513" type="line"/>
      <point x="100" y="483" type="line"/>
      <point x="391" y="483" type="line"/>
      <point x="240" y="345"/>
      <point x="104" y="194"/>
      <point x="-18" y="30" type="curve"/>
      <point x="-25" y="0" type="line"/>
      <point x="289" y="0" type="line"/>
      <point x="285" y="-18" type="line" smooth="yes"/>
      <point x="264" y="-114"/>
      <point x="241" y="-159"/>
      <point x="174" y="-159" type="curve" smooth="yes"/>
      <point x="164" y="-159"/>
      <point x="151" y="-157"/>
      <point x="138" y="-154" type="curve"/>
      <point x="130" y="-184" type="line"/>
      <point x="144" y="-187"/>
      <point x="160" y="-189"/>
    </contour>
  </outline>
</glyph>
<glyph name="Ecedilla" format="2">
  <advance width="501"/>
  <unicode hex="0228"/>
  <outline>
    <contour>
      <point x="165" y="-185" type="curve" smooth="yes"/>
      <point x="239" y="-185"/>
      <point x="272" y="-145"/>
      <point x="272" y="-100" type="curve" smooth="yes"/>
      <point x="272" y="-73"/>
      <point x="255" y="-53"/>
      <point x="223" y="-39" type="curve"/>
      <point x="232" y="-24"/>
      <point x="240" y="-12"/>
      <point x="249" y="0" type="curve"/>
      <point x="406" y="0" type="line"/>
      <point x="415" y="34" type="line"/>
      <point x="71" y="34" type="line"/>
      <point x="146" y="347" type="line"/>
      <point x="435" y="347" type="line"/>
      <point x="443" y="381" type="line"/>
      <point x="153" y="381" type="line"/>
      <point x="221" y="659" type="line"/>
      <point x="542" y="659" type="line"/>
      <point x="550" y="693" type="line"/>
      <point x="192" y="693" type="line"/>
      <point x="26" y="0" type="line"/>
      <point x="219" y="0" type="line"/>
      <point x="207" y="-16"/>
      <point x="193" y="-37"/>
      <point x="180" y="-55" type="curve"/>
      <point x="225" y="-64"/>
      <point x="238" y="-82"/>
      <point x="238" y="-105" type="curve" smooth="yes"/>
      <point x="238" y="-134"/>
      <point x="216" y="-155"/>
      <point x="164" y="-155" type="curve" smooth="yes"/>
      <point x="148" y="-155"/>
      <point x="129" y="-152"/>
      <point x="115" y="-147" type="curve"/>
      <point x="104" y="-175" type="line"/>
      <point x="121" y="-182"/>
      <point x="141" y="-185"/>
    </contour>
  </outline>
</glyph>
<glyph name="ncurl" format="2">
  <advance width="674"/>
  <unicode hex="0235"/>
  <outline>
    <contour>
      <point x="444" y="-179" type="curve" smooth="yes"/>
      <point x="530" y="-179"/>
      <point x="593" y="-110"/>
      <point x="593" y="-19" type="curve" smooth="yes"/>
      <point x="593" y="46"/>
      <point x="564" y="84"/>
      <point x="509" y="84" type="curve" smooth="yes"/>
      <point x="471" y="84"/>
      <point x="435" y="70"/>
      <point x="403" y="34" type="curve"/>
      <point x="454" y="247" type="line" smooth="yes"/>
      <point x="463" y="289"/>
      <point x="467" y="328"/>
      <point x="467" y="361" type="curve" smooth="yes"/>
      <point x="467" y="465"/>
      <point x="421" y="523"/>
      <point x="299" y="523" type="curve" smooth="yes"/>
      <point x="262" y="523"/>
      <point x="202" y="514"/>
      <point x="147" y="498" type="curve"/>
      <point x="28" y="0" type="line"/>
      <point x="62" y="0" type="line"/>
      <point x="176" y="473" type="line"/>
      <point x="216" y="485"/>
      <point x="258" y="491"/>
      <point x="301" y="491" type="curve" smooth="yes"/>
      <point x="401" y="491"/>
      <point x="433" y="440"/>
      <point x="433" y="361" type="curve" smooth="yes"/>
      <point x="433" y="319"/>
      <point x="424" y="268"/>
      <point x="411" y="213" type="curve" smooth="yes"/>
      <point x="364" y="14" type="line"/>
      <point x="362" y="6"/>
      <point x="360" y="-2"/>
      <point x="358" y="-10" type="curve"/>
      <point x="231" y="-137" type="line"/>
      <point x="256" y="-157" type="line"/>
      <point x="352" y="-59" type="line"/>
      <point x="351" y="-65"/>
      <point x="351" y="-71"/>
      <point x="351" y="-76" type="curve" smooth="yes"/>
      <point x="351" y="-141"/>
      <point x="387" y="-179"/>
    </contour>
    <contour>
      <point x="446" y="-147" type="curve" smooth="yes"/>
      <point x="407" y="-147"/>
      <point x="385" y="-117"/>
      <point x="385" y="-70" type="curve" smooth="yes"/>
      <point x="385" y="-60"/>
      <point x="386" y="-48"/>
      <point x="391" y="-23" type="curve"/>
      <point x="431" y="25"/>
      <point x="465" y="52"/>
      <point x="501" y="52" type="curve" smooth="yes"/>
      <point x="539" y="52"/>
      <point x="557" y="27"/>
      <point x="557" y="-22" type="curve" smooth="yes"/>
      <point x="557" y="-89"/>
      <point x="513" y="-147"/>
    </contour>
  </outline>
</glyph>
<glyph name="tcurl" format="2">
  <advance width="325"/>
  <unicode hex="0236"/>
  <outline>
    <contour>
      <point x="108" y="-179" type="curve"/>
      <point x="194" y="-179"/>
      <point x="257" y="-110"/>
      <point x="257" y="-19" type="curve" smooth="yes"/>
      <point x="257" y="46"/>
      <point x="228" y="84"/>
      <point x="173" y="84" type="curve" smooth="yes"/>
      <point x="135" y="84"/>
      <point x="99" y="70"/>
      <point x="67" y="34" type="curve"/>
      <point x="176" y="483" type="line"/>
      <point x="364" y="483" type="line"/>
      <point x="372" y="513" type="line"/>
      <point x="183" y="513" type="line"/>
      <point x="223" y="680" type="line"/>
      <point x="187" y="671" type="line"/>
      <point x="22" y="-10" type="line"/>
      <point x="-105" y="-137" type="line"/>
      <point x="-80" y="-157" type="line"/>
      <point x="16" y="-59" type="line"/>
      <point x="15" y="-65"/>
      <point x="15" y="-71"/>
      <point x="15" y="-76" type="curve" smooth="yes"/>
      <point x="15" y="-141"/>
      <point x="51" y="-179"/>
    </contour>
    <contour>
      <point x="110" y="-147" type="curve"/>
      <point x="71" y="-147"/>
      <point x="49" y="-117"/>
      <point x="49" y="-70" type="curve" smooth="yes"/>
      <point x="49" y="-60"/>
      <point x="50" y="-48"/>
      <point x="55" y="-23" type="curve"/>
      <point x="95" y="25"/>
      <point x="129" y="52"/>
      <point x="165" y="52" type="curve" smooth="yes"/>
      <point x="203" y="52"/>
      <point x="221" y="27"/>
      <point x="221" y="-22" type="curve" smooth="yes"/>
      <point x="221" y="-89"/>
      <point x="177" y="-147"/>
    </contour>
  </outline>
</glyph>
<glyph name="jdotless" format="2">
  <advance width="223"/>
  <unicode hex="0237"/>
  <anchor x="-56" y="-185" name="bottom"/>
  <anchor x="123" y="273" name="center"/>
  <anchor x="180" y="513" name="top"/>
  <outline>
    <contour>
      <point x="-92" y="-188" type="curve" smooth="yes"/>
      <point x="11" y="-188"/>
      <point x="46" y="-116"/>
      <point x="81" y="31" type="curve" smooth="yes"/>
      <point x="197" y="513" type="line"/>
      <point x="163" y="513" type="line"/>
      <point x="43" y="13" type="line" smooth="yes"/>
      <point x="17" y="-94"/>
      <point x="-13" y="-157"/>
      <point x="-89" y="-157" type="curve" smooth="yes"/>
      <point x="-114" y="-157"/>
      <point x="-135" y="-152"/>
      <point x="-155" y="-142" type="curve"/>
      <point x="-162" y="-171" type="line"/>
      <point x="-143" y="-181"/>
      <point x="-119" y="-188"/>
    </contour>
  </outline>
</glyph>
<glyph name="Astroke" format="2">
  <advance width="594"/>
  <unicode hex="023A"/>
  <outline>
    <contour>
      <point x="95" y="-94" type="line"/>
      <point x="280" y="204" type="line"/>
      <point x="465" y="204" type="line"/>
      <point x="477" y="121"/>
      <point x="485" y="59"/>
      <point x="491" y="0" type="curve"/>
      <point x="527" y="0" type="line"/>
      <point x="506" y="188"/>
      <point x="482" y="349"/>
      <point x="460" y="494" type="curve"/>
      <point x="625" y="760" type="line"/>
      <point x="596" y="772" type="line"/>
      <point x="453" y="541" type="line"/>
      <point x="429" y="693" type="line"/>
      <point x="389" y="693" type="line"/>
      <point x="251" y="485"/>
      <point x="85" y="225"/>
      <point x="-34" y="0" type="curve"/>
      <point x="3" y="0" type="line"/>
      <point x="38" y="66"/>
      <point x="75" y="128"/>
      <point x="119" y="204" type="curve"/>
      <point x="243" y="204" type="line"/>
      <point x="66" y="-82" type="line"/>
    </contour>
    <contour>
      <point x="301" y="238" type="line"/>
      <point x="432" y="449" type="line"/>
      <point x="442" y="381"/>
      <point x="452" y="313"/>
      <point x="462" y="238" type="curve"/>
    </contour>
    <contour>
      <point x="139" y="238" type="line"/>
      <point x="228" y="387"/>
      <point x="311" y="520"/>
      <point x="402" y="654" type="curve"/>
      <point x="410" y="599"/>
      <point x="418" y="548"/>
      <point x="425" y="497" type="curve"/>
      <point x="265" y="238" type="line"/>
    </contour>
  </outline>
</glyph>
<glyph name="Cstroke" format="2">
  <advance width="604"/>
  <unicode hex="023B"/>
  <outline>
    <contour>
      <point x="101" y="-96" type="line"/>
      <point x="182" y="28" type="line"/>
      <point x="222" y="2"/>
      <point x="271" y="-10"/>
      <point x="324" y="-10" type="curve" smooth="yes"/>
      <point x="390" y="-10"/>
      <point x="455" y="2"/>
      <point x="514" y="32" type="curve"/>
      <point x="508" y="65" type="line"/>
      <point x="453" y="36"/>
      <point x="388" y="24"/>
      <point x="324" y="24" type="curve" smooth="yes"/>
      <point x="275" y="24"/>
      <point x="234" y="36"/>
      <point x="202" y="59" type="curve"/>
      <point x="589" y="648" type="line"/>
      <point x="601" y="643"/>
      <point x="612" y="638"/>
      <point x="622" y="631" type="curve"/>
      <point x="640" y="664" type="line"/>
      <point x="630" y="670"/>
      <point x="619" y="674"/>
      <point x="609" y="679" type="curve"/>
      <point x="662" y="759" type="line"/>
      <point x="632" y="773" type="line"/>
      <point x="577" y="690" type="line"/>
      <point x="544" y="699"/>
      <point x="509" y="703"/>
      <point x="471" y="703" type="curve" smooth="yes"/>
      <point x="282" y="703"/>
      <point x="86" y="542"/>
      <point x="86" y="236" type="curve" smooth="yes"/>
      <point x="86" y="150"/>
      <point x="113" y="88"/>
      <point x="156" y="48" type="curve"/>
      <point x="71" y="-82" type="line"/>
    </contour>
    <contour>
      <point x="177" y="80" type="line"/>
      <point x="143" y="117"/>
      <point x="124" y="172"/>
      <point x="124" y="240" type="curve" smooth="yes"/>
      <point x="124" y="512"/>
      <point x="292" y="668"/>
      <point x="466" y="668" type="curve" smooth="yes"/>
      <point x="496" y="668"/>
      <point x="527" y="665"/>
      <point x="557" y="658" type="curve"/>
    </contour>
  </outline>
</glyph>
<glyph name="sswashtail" format="2">
  <advance width="392"/>
  <unicode hex="023F"/>
  <outline>
    <contour>
      <point x="200" y="-185" type="curve" smooth="yes"/>
      <point x="214" y="-185"/>
      <point x="233" y="-184"/>
      <point x="244" y="-181" type="curve"/>
      <point x="250" y="-147" type="line"/>
      <point x="248" y="-151"/>
      <point x="234" y="-153"/>
      <point x="217" y="-153" type="curve" smooth="yes"/>
      <point x="143" y="-153"/>
      <point x="115" y="-127"/>
      <point x="96" y="-96" type="curve" smooth="yes"/>
      <point x="80" y="-70"/>
      <point x="65" y="-28"/>
      <point x="35" y="9" type="curve"/>
      <point x="67" y="-3"/>
      <point x="101" y="-8"/>
      <point x="136" y="-8" type="curve" smooth="yes"/>
      <point x="213" y="-8"/>
      <point x="311" y="29"/>
      <point x="311" y="140" type="curve" smooth="yes"/>
      <point x="311" y="213"/>
      <point x="253" y="244"/>
      <point x="212" y="265" type="curve" smooth="yes"/>
      <point x="168" y="289"/>
      <point x="122" y="314"/>
      <point x="122" y="371" type="curve" smooth="yes"/>
      <point x="122" y="456"/>
      <point x="190" y="493"/>
      <point x="265" y="493" type="curve" smooth="yes"/>
      <point x="302" y="493"/>
      <point x="333" y="487"/>
      <point x="360" y="478" type="curve"/>
      <point x="372" y="509" type="line"/>
      <point x="331" y="521"/>
      <point x="295" y="525"/>
      <point x="263" y="525" type="curve" smooth="yes"/>
      <point x="185" y="525"/>
      <point x="88" y="486"/>
      <point x="88" y="369" type="curve" smooth="yes"/>
      <point x="88" y="283"/>
      <point x="156" y="260"/>
      <point x="207" y="232" type="curve" smooth="yes"/>
      <point x="236" y="216"/>
      <point x="278" y="188"/>
      <point x="278" y="138" type="curve" smooth="yes"/>
      <point x="278" y="55"/>
      <point x="207" y="24"/>
      <point x="141" y="24" type="curve" smooth="yes"/>
      <point x="97" y="24"/>
      <point x="55" y="31"/>
      <point x="13" y="55" type="curve"/>
      <point x="-12" y="21" type="line"/>
      <point x="-3" y="14"/>
      <point x="5" y="3"/>
      <point x="12" y="-7" type="curve" smooth="yes"/>
      <point x="29" y="-31"/>
      <point x="39" y="-61"/>
      <point x="60" y="-98" type="curve" smooth="yes"/>
      <point x="91" y="-154"/>
      <point x="135" y="-185"/>
    </contour>
  </outline>
</glyph>
<glyph name="estroke" format="2">
  <advance width="496"/>
  <unicode hex="0247"/>
  <outline>
    <contour>
      <point x="80" y="-84" type="line"/>
      <point x="133" y="9" type="line"/>
      <point x="157" y="-1"/>
      <point x="187" y="-6"/>
      <point x="222" y="-6" type="curve" smooth="yes"/>
      <point x="276" y="-6"/>
      <point x="329" y="5"/>
      <point x="377" y="31" type="curve"/>
      <point x="372" y="64" type="line"/>
      <point x="329" y="39"/>
      <point x="280" y="26"/>
      <point x="230" y="26" type="curve" smooth="yes"/>
      <point x="197" y="26"/>
      <point x="170" y="30"/>
      <point x="149" y="38" type="curve"/>
      <point x="256" y="228" type="line"/>
      <point x="384" y="248"/>
      <point x="461" y="294"/>
      <point x="461" y="399" type="curve" smooth="yes"/>
      <point x="461" y="444"/>
      <point x="445" y="481"/>
      <point x="411" y="503" type="curve"/>
      <point x="465" y="600" type="line"/>
      <point x="436" y="610" type="line"/>
      <point x="383" y="516" type="line"/>
      <point x="366" y="522"/>
      <point x="346" y="525"/>
      <point x="323" y="525" type="curve" smooth="yes"/>
      <point x="138" y="525"/>
      <point x="39" y="342"/>
      <point x="39" y="173" type="curve" smooth="yes"/>
      <point x="39" y="106"/>
      <point x="60" y="54"/>
      <point x="106" y="23" type="curve"/>
      <point x="51" y="-74" type="line"/>
    </contour>
    <contour>
      <point x="122" y="53" type="line"/>
      <point x="87" y="79"/>
      <point x="74" y="123"/>
      <point x="74" y="188" type="curve" smooth="yes"/>
      <point x="74" y="188"/>
      <point x="75" y="203"/>
      <point x="76" y="213" type="curve"/>
      <point x="128" y="215"/>
      <point x="175" y="218"/>
      <point x="218" y="223" type="curve"/>
    </contour>
    <contour>
      <point x="80" y="247" type="curve"/>
      <point x="111" y="394"/>
      <point x="193" y="493"/>
      <point x="324" y="493" type="curve" smooth="yes"/>
      <point x="339" y="493"/>
      <point x="354" y="491"/>
      <point x="366" y="486" type="curve"/>
      <point x="238" y="258" type="line"/>
      <point x="194" y="252"/>
      <point x="142" y="248"/>
    </contour>
    <contour>
      <point x="276" y="264" type="curve"/>
      <point x="393" y="472" type="line"/>
      <point x="413" y="456"/>
      <point x="425" y="431"/>
      <point x="425" y="398" type="curve" smooth="yes"/>
      <point x="425" y="326"/>
      <point x="382" y="285"/>
    </contour>
  </outline>
</glyph>
<glyph name="ystroke" format="2">
  <advance width="428"/>
  <unicode hex="024F"/>
  <outline>
    <contour>
      <point x="-51" y="-188" type="curve" smooth="yes"/>
      <point x="29" y="-188"/>
      <point x="125" y="-146"/>
      <point x="239" y="29" type="curve" smooth="yes"/>
      <point x="301" y="125"/>
      <point x="341" y="199"/>
      <point x="370" y="268" type="curve"/>
      <point x="440" y="268" type="line"/>
      <point x="447" y="297" type="line"/>
      <point x="382" y="297" type="line"/>
      <point x="409" y="368"/>
      <point x="427" y="434"/>
      <point x="448" y="513" type="curve"/>
      <point x="413" y="513" type="line"/>
      <point x="396" y="444"/>
      <point x="377" y="374"/>
      <point x="347" y="297" type="curve"/>
      <point x="117" y="297" type="line"/>
      <point x="106" y="378"/>
      <point x="100" y="452"/>
      <point x="98" y="513" type="curve"/>
      <point x="63" y="513" type="line"/>
      <point x="65" y="448"/>
      <point x="71" y="374"/>
      <point x="82" y="297" type="curve"/>
      <point x="10" y="297" type="line"/>
      <point x="3" y="268" type="line"/>
      <point x="87" y="268" type="line"/>
      <point x="102" y="170"/>
      <point x="126" y="67"/>
      <point x="160" y="-30" type="curve"/>
      <point x="96" y="-110"/>
      <point x="24" y="-157"/>
      <point x="-50" y="-157" type="curve"/>
      <point x="-73" y="-157"/>
      <point x="-95" y="-153"/>
      <point x="-116" y="-143" type="curve"/>
      <point x="-130" y="-173" type="line"/>
      <point x="-104" y="-184"/>
      <point x="-78" y="-188"/>
    </contour>
    <contour>
      <point x="184" y="3" type="curve"/>
      <point x="154" y="92"/>
      <point x="134" y="183"/>
      <point x="121" y="268" type="curve"/>
      <point x="335" y="268" type="line"/>
      <point x="301" y="189"/>
      <point x="255" y="102"/>
    </contour>
  </outline>
</glyph>
<glyph name="Delta" format="2">
  <advance width="594"/>
  <unicode hex="0394"/>
  <outline>
    <contour>
      <point x="-34" y="0" type="curve"/>
      <point x="527" y="0" type="line"/>
      <point x="496" y="279"/>
      <point x="459" y="498"/>
      <point x="429" y="693" type="curve"/>
      <point x="389" y="693" type="line"/>
      <point x="251" y="485"/>
      <point x="85" y="225"/>
    </contour>
    <contour>
      <point x="20" y="32" type="line"/>
      <point x="106" y="190"/>
      <point x="255" y="437"/>
      <point x="402" y="654" type="curve"/>
      <point x="422" y="524"/>
      <point x="472" y="154"/>
      <point x="487" y="32" type="curve"/>
    </contour>
  </outline>
</glyph>
<glyph name="Lambda" format="2">
  <advance width="582"/>
  <unicode hex="039B"/>
  <outline>
    <contour>
      <point x="-34" y="0" type="curve"/>
      <point x="3" y="0" type="line"/>
      <point x="114" y="205"/>
      <point x="254" y="443"/>
      <point x="395" y="654" type="curve"/>
      <point x="419" y="496"/>
      <point x="473" y="59"/>
      <point x="479" y="0" type="curve"/>
      <point x="515" y="0" type="line"/>
      <point x="484" y="279"/>
      <point x="452" y="498"/>
      <point x="422" y="693" type="curve"/>
      <point x="382" y="693" type="line"/>
      <point x="244" y="486"/>
      <point x="83" y="224"/>
    </contour>
  </outline>
</glyph>
<glyph name="Xi" format="2">
  <advance width="491"/>
  <unicode hex="039E"/>
  <outline>
    <contour>
      <point x="-44" y="0" type="line"/>
      <point x="411" y="0" type="line"/>
      <point x="419" y="34" type="line"/>
      <point x="-36" y="34" type="line"/>
    </contour>
    <contour>
      <point x="103" y="347" type="line"/>
      <point x="430" y="347" type="line"/>
      <point x="438" y="381" type="line"/>
      <point x="111" y="381" type="line"/>
    </contour>
    <contour>
      <point x="134" y="659" type="line"/>
      <point x="549" y="659" type="line"/>
      <point x="557" y="693" type="line"/>
      <point x="142" y="693" type="line"/>
    </contour>
  </outline>
</glyph>
<glyph name="Pi" format="2">
  <advance width="648"/>
  <unicode hex="03A0"/>
  <outline>
    <contour>
      <point x="26" y="0" type="line"/>
      <point x="63" y="0" type="line"/>
      <point x="221" y="659" type="line"/>
      <point x="620" y="659" type="line"/>
      <point x="462" y="0" type="line"/>
      <point x="499" y="0" type="line"/>
      <point x="665" y="693" type="line"/>
      <point x="192" y="693" type="line"/>
    </contour>
  </outline>
</glyph>
<glyph name="alpha" format="2">
  <advance width="508"/>
  <unicode hex="03B1"/>
  <anchor x="219" y="0" name="bottom"/>
  <anchor x="335" y="513" name="top"/>
  <outline>
    <contour>
      <point x="189" y="-6" type="curve" smooth="yes"/>
      <point x="238" y="-6"/>
      <point x="294" y="6"/>
      <point x="355" y="63" type="curve"/>
      <point x="366" y="20"/>
      <point x="397" y="-2"/>
      <point x="446" y="-6" type="curve"/>
      <point x="453" y="27" type="line"/>
      <point x="403" y="37"/>
      <point x="388" y="68"/>
      <point x="388" y="107" type="curve" smooth="yes"/>
      <point x="388" y="131"/>
      <point x="393" y="159"/>
      <point x="400" y="186" type="curve" smooth="yes"/>
      <point x="479" y="510" type="line"/>
      <point x="451" y="519"/>
      <point x="414" y="525"/>
      <point x="378" y="525" type="curve" smooth="yes"/>
      <point x="167" y="525"/>
      <point x="40" y="371"/>
      <point x="40" y="177" type="curve" smooth="yes"/>
      <point x="40" y="36"/>
      <point x="122" y="-6"/>
    </contour>
    <contour>
      <point x="193" y="26" type="curve" smooth="yes"/>
      <point x="137" y="26"/>
      <point x="76" y="58"/>
      <point x="76" y="177" type="curve" smooth="yes"/>
      <point x="76" y="333"/>
      <point x="171" y="494"/>
      <point x="368" y="494" type="curve" smooth="yes"/>
      <point x="392" y="494"/>
      <point x="411" y="492"/>
      <point x="438" y="486" type="curve"/>
      <point x="380" y="243" type="line" smooth="yes"/>
      <point x="363" y="172"/>
      <point x="353" y="134"/>
      <point x="352" y="97" type="curve"/>
      <point x="297" y="45"/>
      <point x="245" y="26"/>
    </contour>
  </outline>
</glyph>
<glyph name="beta" format="2">
  <advance width="526"/>
  <unicode hex="03B2"/>
  <outline>
    <contour>
      <point x="-18" y="-185" type="line"/>
      <point x="16" y="-185" type="line"/>
      <point x="66" y="27" type="line"/>
      <point x="114" y="4"/>
      <point x="165" y="-8"/>
      <point x="223" y="-8" type="curve" smooth="yes"/>
      <point x="416" y="-8"/>
      <point x="485" y="123"/>
      <point x="485" y="241" type="curve" smooth="yes"/>
      <point x="485" y="329"/>
      <point x="435" y="396"/>
      <point x="347" y="423" type="curve"/>
      <point x="455" y="440"/>
      <point x="529" y="529"/>
      <point x="529" y="634" type="curve" smooth="yes"/>
      <point x="529" y="721"/>
      <point x="479" y="776"/>
      <point x="387" y="776" type="curve" smooth="yes"/>
      <point x="281" y="776"/>
      <point x="196" y="707"/>
      <point x="155" y="537" type="curve" smooth="yes"/>
    </contour>
    <contour>
      <point x="222" y="24" type="curve" smooth="yes"/>
      <point x="166" y="24"/>
      <point x="117" y="35"/>
      <point x="75" y="60" type="curve"/>
      <point x="189" y="538" type="line" smooth="yes"/>
      <point x="223" y="681"/>
      <point x="302" y="744"/>
      <point x="386" y="744" type="curve" smooth="yes"/>
      <point x="456" y="744"/>
      <point x="493" y="697"/>
      <point x="493" y="635" type="curve" smooth="yes"/>
      <point x="493" y="522"/>
      <point x="414" y="437"/>
      <point x="282" y="437" type="curve" smooth="yes"/>
      <point x="259" y="437" type="line"/>
      <point x="251" y="407" type="line"/>
      <point x="280" y="407" type="line" smooth="yes"/>
      <point x="391" y="407"/>
      <point x="449" y="333"/>
      <point x="449" y="236" type="curve" smooth="yes"/>
      <point x="449" y="125"/>
      <point x="371" y="24"/>
    </contour>
  </outline>
</glyph>
<glyph name="delta" format="2">
  <advance width="520"/>
  <unicode hex="03B4"/>
  <outline>
    <contour>
      <point x="218" y="-13" type="curve" smooth="yes"/>
      <point x="370" y="-13"/>
      <point x="482" y="152"/>
      <point x="482" y="285" type="curve" smooth="yes"/>
      <point x="482" y="368"/>
      <point x="447" y="430"/>
      <point x="350" y="505" type="curve" smooth="yes"/>
      <point x="269" y="567"/>
      <point x="241" y="594"/>
      <point x="241" y="638" type="curve" smooth="yes"/>
      <point x="241" y="700"/>
      <point x="299" y="744"/>
      <point x="384" y="744" type="curve" smooth="yes"/>
      <point x="432" y="744"/>
      <point x="484" y="735"/>
      <point x="517" y="714" type="curve"/>
      <point x="532" y="742" type="line"/>
      <point x="498" y="765"/>
      <point x="444" y="776"/>
      <point x="391" y="776" type="curve" smooth="yes"/>
      <point x="283" y="776"/>
      <point x="205" y="715"/>
      <point x="205" y="631" type="curve" smooth="yes"/>
      <point x="205" y="584"/>
      <point x="233" y="548"/>
      <point x="300" y="502" type="curve"/>
      <point x="146" y="456"/>
      <point x="36" y="316"/>
      <point x="36" y="178" type="curve" smooth="yes"/>
      <point x="36" y="65"/>
      <point x="106" y="-13"/>
    </contour>
    <contour>
      <point x="225" y="19" type="curve" smooth="yes"/>
      <point x="129" y="19"/>
      <point x="73" y="88"/>
      <point x="73" y="186" type="curve" smooth="yes"/>
      <point x="73" y="308"/>
      <point x="172" y="441"/>
      <point x="326" y="482" type="curve"/>
      <point x="414" y="416"/>
      <point x="445" y="354"/>
      <point x="445" y="278" type="curve" smooth="yes"/>
      <point x="445" y="158"/>
      <point x="348" y="19"/>
    </contour>
  </outline>
</glyph>
<glyph name="eta" format="2">
  <advance width="544"/>
  <unicode hex="03B7"/>
  <anchor x="48" y="0" name="bottom"/>
  <anchor x="334" y="513" name="top"/>
  <outline>
    <contour>
      <point x="316" y="-185" type="line"/>
      <point x="350" y="-185" type="line"/>
      <point x="454" y="247" type="line" smooth="yes"/>
      <point x="464" y="290"/>
      <point x="470" y="329"/>
      <point x="470" y="363" type="curve" smooth="yes"/>
      <point x="470" y="464"/>
      <point x="420" y="523"/>
      <point x="299" y="523" type="curve" smooth="yes"/>
      <point x="262" y="523"/>
      <point x="202" y="514"/>
      <point x="147" y="498" type="curve"/>
      <point x="28" y="0" type="line"/>
      <point x="62" y="0" type="line"/>
      <point x="176" y="473" type="line"/>
      <point x="216" y="485"/>
      <point x="258" y="491"/>
      <point x="301" y="491" type="curve" smooth="yes"/>
      <point x="401" y="491"/>
      <point x="433" y="440"/>
      <point x="433" y="361" type="curve" smooth="yes"/>
      <point x="433" y="319"/>
      <point x="424" y="268"/>
      <point x="411" y="213" type="curve" smooth="yes"/>
    </contour>
  </outline>
</glyph>
<glyph name="theta" format="2">
  <advance width="550"/>
  <unicode hex="03B8"/>
  <outline>
    <contour>
      <point x="230" y="-14" type="curve" smooth="yes"/>
      <point x="411" y="-14"/>
      <point x="531" y="327"/>
      <point x="531" y="563" type="curve" smooth="yes"/>
      <point x="531" y="691"/>
      <point x="490" y="775"/>
      <point x="380" y="776" type="curve"/>
      <point x="192" y="776"/>
      <point x="78" y="430"/>
      <point x="78" y="196" type="curve" smooth="yes"/>
      <point x="78" y="63"/>
      <point x="122" y="-14"/>
    </contour>
    <contour>
      <point x="229" y="18" type="curve" smooth="yes"/>
      <point x="156" y="18"/>
      <point x="114" y="72"/>
      <point x="114" y="198" type="curve" smooth="yes"/>
      <point x="114" y="258"/>
      <point x="120" y="316"/>
      <point x="130" y="370" type="curve"/>
      <point x="475" y="370" type="line"/>
      <point x="433" y="168"/>
      <point x="328" y="18"/>
    </contour>
    <contour>
      <point x="136" y="402" type="line"/>
      <point x="180" y="599"/>
      <point x="282" y="744"/>
      <point x="377" y="744" type="curve" smooth="yes"/>
      <point x="453" y="744"/>
      <point x="495" y="688"/>
      <point x="495" y="559" type="curve" smooth="yes"/>
      <point x="495" y="505"/>
      <point x="490" y="452"/>
      <point x="481" y="402" type="curve"/>
    </contour>
  </outline>
</glyph>
<glyph name="lambda" format="2">
  <advance width="434"/>
  <unicode hex="03BB"/>
  <outline>
    <contour>
      <point x="-38" y="0" type="curve"/>
      <point x="-2" y="0" type="line"/>
      <point x="96" y="177"/>
      <point x="187" y="338"/>
      <point x="308" y="492" type="curve"/>
      <point x="325" y="332"/>
      <point x="336" y="190"/>
      <point x="344" y="0" type="curve"/>
      <point x="380" y="0" type="line"/>
      <point x="371" y="199"/>
      <point x="361" y="352"/>
      <point x="336" y="541" type="curve" smooth="yes"/>
      <point x="321" y="665"/>
      <point x="309" y="776"/>
      <point x="217" y="776" type="curve" smooth="yes"/>
      <point x="201" y="776"/>
      <point x="179" y="774"/>
      <point x="157" y="767" type="curve"/>
      <point x="158" y="736" type="line"/>
      <point x="174" y="741"/>
      <point x="189" y="744"/>
      <point x="205" y="744" type="curve" smooth="yes"/>
      <point x="282" y="744"/>
      <point x="291" y="643"/>
      <point x="303" y="534" type="curve"/>
      <point x="174" y="374"/>
      <point x="60" y="186"/>
    </contour>
  </outline>
</glyph>
<glyph name="nu" format="2">
  <advance width="427"/>
  <unicode hex="03BD"/>
  <outline>
    <contour>
      <point x="143" y="0" type="curve"/>
      <point x="169" y="0" type="line"/>
      <point x="280" y="128"/>
      <point x="425" y="353"/>
      <point x="473" y="513" type="curve"/>
      <point x="439" y="513" type="line"/>
      <point x="397" y="383"/>
      <point x="290" y="204"/>
      <point x="174" y="52" type="curve"/>
      <point x="162" y="232"/>
      <point x="139" y="383"/>
      <point x="103" y="513" type="curve"/>
      <point x="67" y="513" type="line"/>
      <point x="112" y="335"/>
      <point x="136" y="143"/>
    </contour>
  </outline>
</glyph>
<glyph name="rho" format="2">
  <advance width="507"/>
  <unicode hex="03C1"/>
  <anchor x="319" y="513" name="top"/>
  <outline>
    <contour>
      <point x="-39" y="-185" type="line"/>
      <point x="-5" y="-185" type="line"/>
      <point x="47" y="28" type="line"/>
      <point x="84" y="5"/>
      <point x="126" y="-7"/>
      <point x="178" y="-7" type="curve" smooth="yes"/>
      <point x="374" y="-7"/>
      <point x="472" y="179"/>
      <point x="472" y="341" type="curve" smooth="yes"/>
      <point x="472" y="450"/>
      <point x="419" y="525"/>
      <point x="302" y="525" type="curve" smooth="yes"/>
      <point x="177" y="525"/>
      <point x="115" y="448"/>
      <point x="76" y="289" type="curve" smooth="yes"/>
    </contour>
    <contour>
      <point x="186" y="25" type="curve" smooth="yes"/>
      <point x="134" y="25"/>
      <point x="91" y="34"/>
      <point x="55" y="59" type="curve"/>
      <point x="105" y="268" type="line" smooth="yes"/>
      <point x="144" y="431"/>
      <point x="204" y="493"/>
      <point x="299" y="493" type="curve" smooth="yes"/>
      <point x="392" y="493"/>
      <point x="436" y="442"/>
      <point x="436" y="333" type="curve" smooth="yes"/>
      <point x="436" y="186"/>
      <point x="348" y="25"/>
    </contour>
  </outline>
</glyph>
<glyph name="tau" format="2">
  <advance width="375"/>
  <unicode hex="03C4"/>
  <outline>
    <contour>
      <point x="230" y="-5" type="curve" smooth="yes"/>
      <point x="255" y="-5"/>
      <point x="280" y="-2"/>
      <point x="305" y="5" type="curve"/>
      <point x="306" y="35" type="line"/>
      <point x="281" y="30"/>
      <point x="260" y="27"/>
      <point x="239" y="27" type="curve" smooth="yes"/>
      <point x="181" y="27"/>
      <point x="156" y="50"/>
      <point x="156" y="105" type="curve" smooth="yes"/>
      <point x="156" y="124"/>
      <point x="160" y="146"/>
      <point x="166" y="173" type="curve" smooth="yes"/>
      <point x="240" y="483" type="line"/>
      <point x="422" y="483" type="line"/>
      <point x="429" y="513" type="line"/>
      <point x="79" y="513" type="line"/>
      <point x="72" y="483" type="line"/>
      <point x="206" y="483" type="line"/>
      <point x="131" y="169" type="line" smooth="yes"/>
      <point x="124" y="141"/>
      <point x="121" y="116"/>
      <point x="121" y="95" type="curve" smooth="yes"/>
      <point x="121" y="26"/>
      <point x="163" y="-5"/>
    </contour>
  </outline>
</glyph>
<glyph name="chi" format="2">
  <advance width="437"/>
  <unicode hex="03C7"/>
  <outline>
    <contour>
      <point x="-108" y="-185" type="line"/>
      <point x="-69" y="-185" type="line"/>
      <point x="173" y="155" type="line"/>
      <point x="212" y="34"/>
      <point x="240" y="-81"/>
      <point x="257" y="-185" type="curve"/>
      <point x="296" y="-185" type="line"/>
      <point x="274" y="-72"/>
      <point x="252" y="18"/>
      <point x="199" y="185" type="curve"/>
      <point x="282" y="293"/>
      <point x="363" y="402"/>
      <point x="440" y="513" type="curve"/>
      <point x="404" y="513" type="line"/>
      <point x="337" y="415"/>
      <point x="262" y="316"/>
      <point x="187" y="218" type="curve"/>
      <point x="115" y="513" type="line"/>
      <point x="76" y="513" type="line"/>
      <point x="162" y="188" type="line"/>
    </contour>
  </outline>
</glyph>
<glyph name="Dje-cy" format="2">
  <advance width="680"/>
  <unicode hex="0402"/>
  <outline>
    <contour>
      <point x="429" y="-1" type="curve" smooth="yes"/>
      <point x="557" y="-1"/>
      <point x="625" y="127"/>
      <point x="625" y="236" type="curve" smooth="yes"/>
      <point x="625" y="344"/>
      <point x="577" y="431"/>
      <point x="462" y="431" type="curve" smooth="yes"/>
      <point x="411" y="431"/>
      <point x="351" y="422"/>
      <point x="297" y="400" type="curve"/>
      <point x="359" y="659" type="line"/>
      <point x="579" y="659" type="line"/>
      <point x="585" y="693" type="line"/>
      <point x="129" y="693" type="line"/>
      <point x="122" y="659" type="line"/>
      <point x="322" y="659" type="line"/>
      <point x="164" y="0" type="line"/>
      <point x="201" y="0" type="line"/>
      <point x="289" y="365" type="line"/>
      <point x="349" y="388"/>
      <point x="402" y="397"/>
      <point x="448" y="397" type="curve" smooth="yes"/>
      <point x="553" y="397"/>
      <point x="587" y="330"/>
      <point x="587" y="238" type="curve" smooth="yes"/>
      <point x="587" y="123"/>
      <point x="534" y="33"/>
      <point x="422" y="33" type="curve" smooth="yes"/>
      <point x="409" y="33"/>
      <point x="402" y="34"/>
      <point x="390" y="37" type="curve"/>
      <point x="381" y="5" type="line"/>
      <point x="396" y="1"/>
      <point x="416" y="-1"/>
    </contour>
  </outline>
</glyph>
<glyph name="E-cy" format="2">
  <advance width="609"/>
  <unicode hex="0404"/>
  <outline>
    <contour>
      <point x="325" y="-10" type="curve" smooth="yes"/>
      <point x="391" y="-10"/>
      <point x="456" y="2"/>
      <point x="515" y="32" type="curve"/>
      <point x="509" y="65" type="line"/>
      <point x="454" y="36"/>
      <point x="389" y="24"/>
      <point x="325" y="24" type="curve" smooth="yes"/>
      <point x="198" y="24"/>
      <point x="125" y="105"/>
      <point x="125" y="240" type="curve" smooth="yes"/>
      <point x="125" y="274"/>
      <point x="128" y="307"/>
      <point x="133" y="337" type="curve"/>
      <point x="432" y="337" type="line"/>
      <point x="442" y="371" type="line"/>
      <point x="139" y="371" type="line"/>
      <point x="184" y="561"/>
      <point x="323" y="668"/>
      <point x="467" y="668" type="curve" smooth="yes"/>
      <point x="522" y="668"/>
      <point x="579" y="659"/>
      <point x="623" y="631" type="curve"/>
      <point x="641" y="664" type="line"/>
      <point x="587" y="693"/>
      <point x="534" y="703"/>
      <point x="472" y="703" type="curve" smooth="yes"/>
      <point x="283" y="703"/>
      <point x="87" y="542"/>
      <point x="87" y="236" type="curve" smooth="yes"/>
      <point x="87" y="63"/>
      <point x="196" y="-10"/>
    </contour>
  </outline>
</glyph>
<glyph name="Zhe-cy" format="2">
  <advance width="689"/>
  <unicode hex="0416"/>
  <anchor x="545" y="0" name="bottomright"/>
  <anchor x="434" y="669" name="top"/>
  <outline>
    <contour>
      <point x="-86" y="0" type="curve"/>
      <point x="-45" y="0" type="line"/>
      <point x="44" y="107"/>
      <point x="220" y="268"/>
      <point x="350" y="345" type="curve"/>
      <point x="267" y="0" type="line"/>
      <point x="302" y="0" type="line"/>
      <point x="385" y="345" type="line"/>
      <point x="477" y="268"/>
      <point x="578" y="107"/>
      <point x="615" y="0" type="curve"/>
      <point x="653" y="0" type="line"/>
      <point x="617" y="109"/>
      <point x="540" y="239"/>
      <point x="424" y="356" type="curve"/>
      <point x="603" y="508"/>
      <point x="675" y="576"/>
      <point x="798" y="693" type="curve"/>
      <point x="755" y="693" type="line"/>
      <point x="630" y="579"/>
      <point x="463" y="427"/>
      <point x="390" y="366" type="curve"/>
      <point x="468" y="693" type="line"/>
      <point x="433" y="693" type="line"/>
      <point x="355" y="366" type="line"/>
      <point x="305" y="431"/>
      <point x="208" y="583"/>
      <point x="143" y="693" type="curve"/>
      <point x="104" y="693" type="line"/>
      <point x="155" y="603"/>
      <point x="225" y="494"/>
      <point x="315" y="363" type="curve"/>
      <point x="148" y="248"/>
      <point x="0" y="109"/>
    </contour>
  </outline>
</glyph>
<glyph name="U-cy" format="2">
  <advance width="494"/>
  <unicode hex="0423"/>
  <anchor x="335" y="669" name="top"/>
  <outline>
    <contour>
      <point x="41" y="-5" type="curve" smooth="yes"/>
      <point x="171" y="-5"/>
      <point x="241" y="120"/>
      <point x="315" y="226" type="curve" smooth="yes"/>
      <point x="417" y="375"/>
      <point x="510" y="530"/>
      <point x="589" y="693" type="curve"/>
      <point x="551" y="693" type="line"/>
      <point x="470" y="525"/>
      <point x="374" y="367"/>
      <point x="269" y="214" type="curve"/>
      <point x="212" y="367"/>
      <point x="175" y="528"/>
      <point x="153" y="693" type="curve"/>
      <point x="116" y="693" type="line"/>
      <point x="141" y="518"/>
      <point x="179" y="344"/>
      <point x="247" y="181" type="curve"/>
      <point x="193" y="107"/>
      <point x="137" y="29"/>
      <point x="47" y="29" type="curve" smooth="yes"/>
      <point x="25" y="29"/>
      <point x="4" y="34"/>
      <point x="-16" y="43" type="curve"/>
      <point x="-33" y="9" type="line"/>
      <point x="-10" y="-1"/>
      <point x="16" y="-5"/>
    </contour>
  </outline>
</glyph>
<glyph name="Hardsign-cy" format="2">
  <advance width="660"/>
  <unicode hex="042A"/>
  <outline>
    <contour>
      <point x="281" y="-6" type="curve" smooth="yes"/>
      <point x="482" y="-6"/>
      <point x="605" y="91"/>
      <point x="605" y="256" type="curve" smooth="yes"/>
      <point x="605" y="368"/>
      <point x="535" y="425"/>
      <point x="381" y="425" type="curve" smooth="yes"/>
      <point x="339" y="425"/>
      <point x="292" y="423"/>
      <point x="255" y="416" type="curve"/>
      <point x="322" y="693" type="line"/>
      <point x="110" y="693" type="line"/>
      <point x="102" y="659" type="line"/>
      <point x="277" y="659" type="line"/>
      <point x="119" y="10" type="line"/>
      <point x="151" y="-1"/>
      <point x="213" y="-6"/>
    </contour>
    <contour>
      <point x="285" y="28" type="curve" smooth="yes"/>
      <point x="247" y="28"/>
      <point x="195" y="32"/>
      <point x="163" y="36" type="curve"/>
      <point x="247" y="382" type="line"/>
      <point x="286" y="388"/>
      <point x="331" y="391"/>
      <point x="368" y="391" type="curve" smooth="yes"/>
      <point x="515" y="391"/>
      <point x="567" y="345"/>
      <point x="567" y="253" type="curve" smooth="yes"/>
      <point x="567" y="109"/>
      <point x="464" y="28"/>
    </contour>
  </outline>
</glyph>
<glyph name="el-cy" format="2">
  <advance width="509"/>
  <unicode hex="043B"/>
  <outline>
    <contour>
      <point x="-67" y="-9" type="line"/>
      <point x="1" y="2"/>
      <point x="55" y="45"/>
      <point x="104" y="120" type="curve" smooth="yes"/>
      <point x="151" y="188"/>
      <point x="186" y="287"/>
      <point x="216" y="415" type="curve" smooth="yes"/>
      <point x="232" y="483" type="line"/>
      <point x="439" y="483" type="line"/>
      <point x="324" y="0" type="line"/>
      <point x="358" y="0" type="line"/>
      <point x="481" y="513" type="line"/>
      <point x="206" y="513" type="line"/>
      <point x="187" y="434" type="line" smooth="yes"/>
      <point x="154" y="298"/>
      <point x="122" y="199"/>
      <point x="77" y="133" type="curve" smooth="yes"/>
      <point x="36" y="71"/>
      <point x="-7" y="33"/>
      <point x="-66" y="20" type="curve"/>
    </contour>
  </outline>
</glyph>
<glyph name="che-cy" format="2">
  <advance width="485"/>
  <unicode hex="0447"/>
  <anchor x="328" y="0" name="bottomright"/>
  <anchor x="259" y="513" name="top"/>
  <outline>
    <contour>
      <point x="300" y="0" type="line"/>
      <point x="334" y="0" type="line"/>
      <point x="457" y="513" type="line"/>
      <point x="423" y="513" type="line"/>
      <point x="361" y="256" type="line"/>
      <point x="310" y="241"/>
      <point x="261" y="234"/>
      <point x="217" y="234" type="curve" smooth="yes"/>
      <point x="133" y="234"/>
      <point x="102" y="262"/>
      <point x="102" y="317" type="curve" smooth="yes"/>
      <point x="102" y="334"/>
      <point x="105" y="355"/>
      <point x="111" y="378" type="curve" smooth="yes"/>
      <point x="144" y="513" type="line"/>
      <point x="110" y="513" type="line"/>
      <point x="76" y="373" type="line" smooth="yes"/>
      <point x="71" y="352"/>
      <point x="68" y="333"/>
      <point x="68" y="316" type="curve" smooth="yes"/>
      <point x="68" y="240"/>
      <point x="116" y="202"/>
      <point x="209" y="202" type="curve" smooth="yes"/>
      <point x="253" y="202"/>
      <point x="299" y="209"/>
      <point x="353" y="224" type="curve"/>
    </contour>
  </outline>
</glyph>
<glyph name="hardsign-cy" format="2">
  <advance width="530"/>
  <unicode hex="044A"/>
  <outline>
    <contour>
      <point x="224" y="-11" type="curve" smooth="yes"/>
      <point x="371" y="-11"/>
      <point x="464" y="80"/>
      <point x="464" y="189" type="curve" smooth="yes"/>
      <point x="464" y="264"/>
      <point x="418" y="317"/>
      <point x="309" y="317" type="curve" smooth="yes"/>
      <point x="262" y="317"/>
      <point x="206" y="309"/>
      <point x="168" y="297" type="curve"/>
      <point x="220" y="513" type="line"/>
      <point x="64" y="513" type="line"/>
      <point x="58" y="484" type="line"/>
      <point x="179" y="484" type="line"/>
      <point x="66" y="12" type="line"/>
      <point x="90" y="0"/>
      <point x="170" y="-11"/>
    </contour>
    <contour>
      <point x="236" y="21" type="curve" smooth="yes"/>
      <point x="191" y="21"/>
      <point x="136" y="26"/>
      <point x="106" y="37" type="curve"/>
      <point x="160" y="263" type="line"/>
      <point x="197" y="278"/>
      <point x="247" y="285"/>
      <point x="301" y="285" type="curve" smooth="yes"/>
      <point x="389" y="285"/>
      <point x="429" y="250"/>
      <point x="429" y="187" type="curve" smooth="yes"/>
      <point x="429" y="94"/>
      <point x="353" y="21"/>
    </contour>
  </outline>
</glyph>
<glyph name="ereversed-cy" format="2">
  <advance width="420"/>
  <unicode hex="044D"/>
  <anchor x="204" y="513" name="top"/>
  <outline>
    <contour>
      <point x="80" y="-5" type="curve" smooth="yes"/>
      <point x="274" y="-5"/>
      <point x="385" y="152"/>
      <point x="385" y="345" type="curve" smooth="yes"/>
      <point x="385" y="449"/>
      <point x="321" y="525"/>
      <point x="212" y="525" type="curve" smooth="yes"/>
      <point x="161" y="525"/>
      <point x="111" y="511"/>
      <point x="65" y="488" type="curve"/>
      <point x="71" y="456" type="line"/>
      <point x="115" y="477"/>
      <point x="160" y="493"/>
      <point x="209" y="493" type="curve" smooth="yes"/>
      <point x="296" y="493"/>
      <point x="349" y="429"/>
      <point x="349" y="344" type="curve" smooth="yes"/>
      <point x="349" y="323"/>
      <point x="348" y="303"/>
      <point x="345" y="283" type="curve"/>
      <point x="92" y="283" type="line"/>
      <point x="86" y="252" type="line"/>
      <point x="339" y="252" type="line"/>
      <point x="312" y="125"/>
      <point x="227" y="28"/>
      <point x="91" y="28" type="curve" smooth="yes"/>
      <point x="59" y="28"/>
      <point x="27" y="31"/>
      <point x="-3" y="42" type="curve"/>
      <point x="-14" y="9" type="line"/>
      <point x="17" y="1"/>
      <point x="48" y="-5"/>
    </contour>
  </outline>
</glyph>
<glyph name="yu-cy" format="2">
  <advance width="706"/>
  <unicode hex="044E"/>
  <outline>
    <contour>
      <point x="391" y="-7" type="curve" smooth="yes"/>
      <point x="548" y="-7"/>
      <point x="672" y="150"/>
      <point x="672" y="348" type="curve" smooth="yes"/>
      <point x="672" y="453"/>
      <point x="608" y="525"/>
      <point x="513" y="525" type="curve" smooth="yes"/>
      <point x="384" y="525"/>
      <point x="279" y="426"/>
      <point x="243" y="282" type="curve"/>
      <point x="129" y="282" type="line"/>
      <point x="184" y="513" type="line"/>
      <point x="150" y="513" type="line"/>
      <point x="27" y="0" type="line"/>
      <point x="61" y="0" type="line"/>
      <point x="121" y="252" type="line"/>
      <point x="237" y="252" type="line"/>
      <point x="232" y="226"/>
      <point x="230" y="198"/>
      <point x="230" y="169" type="curve" smooth="yes"/>
      <point x="230" y="62"/>
      <point x="293" y="-7"/>
    </contour>
    <contour>
      <point x="392" y="25" type="curve" smooth="yes"/>
      <point x="315" y="25"/>
      <point x="266" y="81"/>
      <point x="266" y="169" type="curve" smooth="yes"/>
      <point x="266" y="352"/>
      <point x="373" y="493"/>
      <point x="512" y="493" type="curve" smooth="yes"/>
      <point x="588" y="493"/>
      <point x="636" y="436"/>
      <point x="636" y="346" type="curve" smooth="yes"/>
      <point x="636" y="165"/>
      <point x="530" y="25"/>
    </contour>
  </outline>
</glyph>
<glyph name="ya-cy" format="2">
  <advance width="501"/>
  <unicode hex="044F"/>
  <outline>
    <contour>
      <point x="-30" y="0" type="curve"/>
      <point x="9" y="0" type="line"/>
      <point x="53" y="60"/>
      <point x="105" y="121"/>
      <point x="195" y="220" type="curve"/>
      <point x="210" y="217"/>
      <point x="228" y="216"/>
      <point x="249" y="216" type="curve" smooth="yes"/>
      <point x="368" y="216" type="line"/>
      <point x="316" y="0" type="line"/>
      <point x="350" y="0" type="line"/>
      <point x="471" y="505" type="line"/>
      <point x="422" y="516"/>
      <point x="373" y="523"/>
      <point x="326" y="523" type="curve" smooth="yes"/>
      <point x="178" y="523"/>
      <point x="81" y="452"/>
      <point x="81" y="339" type="curve" smooth="yes"/>
      <point x="81" y="283"/>
      <point x="109" y="245"/>
      <point x="163" y="227" type="curve"/>
      <point x="67" y="124"/>
      <point x="11" y="56"/>
    </contour>
    <contour>
      <point x="271" y="246" type="line"/>
      <point x="164" y="246"/>
      <point x="117" y="275"/>
      <point x="117" y="338" type="curve" smooth="yes"/>
      <point x="117" y="433"/>
      <point x="193" y="491"/>
      <point x="319" y="491" type="curve" smooth="yes"/>
      <point x="356" y="491"/>
      <point x="403" y="486"/>
      <point x="431" y="479" type="curve"/>
      <point x="375" y="246" type="line"/>
    </contour>
  </outline>
</glyph>
<glyph name="e-cy" format="2">
  <advance width="423"/>
  <unicode hex="0454"/>
  <outline>
    <contour>
      <point x="213" y="-5" type="curve" smooth="yes"/>
      <point x="264" y="-5"/>
      <point x="314" y="9"/>
      <point x="360" y="32" type="curve"/>
      <point x="354" y="64" type="line"/>
      <point x="310" y="43"/>
      <point x="265" y="27"/>
      <point x="216" y="27" type="curve" smooth="yes"/>
      <point x="129" y="27"/>
      <point x="76" y="91"/>
      <point x="76" y="176" type="curve" smooth="yes"/>
      <point x="76" y="203"/>
      <point x="78" y="228"/>
      <point x="82" y="253" type="curve"/>
      <point x="333" y="253" type="line"/>
      <point x="339" y="284" type="line"/>
      <point x="89" y="284" type="line"/>
      <point x="114" y="402"/>
      <point x="200" y="492"/>
      <point x="334" y="492" type="curve" smooth="yes"/>
      <point x="366" y="492"/>
      <point x="398" y="489"/>
      <point x="428" y="478" type="curve"/>
      <point x="439" y="511" type="line"/>
      <point x="408" y="519"/>
      <point x="377" y="525"/>
      <point x="345" y="525" type="curve" smooth="yes"/>
      <point x="151" y="525"/>
      <point x="40" y="368"/>
      <point x="40" y="175" type="curve" smooth="yes"/>
      <point x="40" y="71"/>
      <point x="104" y="-5"/>
    </contour>
  </outline>
</glyph>
<glyph name="tshe-cy" format="2">
  <advance width="523"/>
  <unicode hex="045B"/>
  <outline>
    <contour>
      <point x="28" y="0" type="line"/>
      <point x="62" y="0" type="line"/>
      <point x="146" y="352" type="line"/>
      <point x="189" y="368"/>
      <point x="235" y="378"/>
      <point x="283" y="378" type="curve" smooth="yes"/>
      <point x="354" y="378"/>
      <point x="419" y="352"/>
      <point x="419" y="252" type="curve" smooth="yes"/>
      <point x="419" y="209"/>
      <point x="411" y="165"/>
      <point x="396" y="100" type="curve" smooth="yes"/>
      <point x="373" y="0" type="line"/>
      <point x="405" y="0" type="line"/>
      <point x="439" y="134" type="line" smooth="yes"/>
      <point x="449" y="174"/>
      <point x="455" y="216"/>
      <point x="455" y="253" type="curve" smooth="yes"/>
      <point x="455" y="366"/>
      <point x="380" y="409"/>
      <point x="292" y="409" type="curve" smooth="yes"/>
      <point x="247" y="409"/>
      <point x="197" y="401"/>
      <point x="154" y="385" type="curve"/>
      <point x="199" y="571" type="line"/>
      <point x="403" y="571" type="line"/>
      <point x="411" y="601" type="line"/>
      <point x="207" y="601" type="line"/>
      <point x="249" y="774" type="line"/>
      <point x="213" y="766" type="line"/>
      <point x="173" y="601" type="line"/>
      <point x="88" y="601" type="line"/>
      <point x="81" y="571" type="line"/>
      <point x="166" y="571" type="line"/>
    </contour>
  </outline>
</glyph>
<glyph name="fita-cy" format="2">
  <advance width="515"/>
  <unicode hex="0473"/>
  <outline>
    <contour>
      <point x="200" y="-7" type="curve" smooth="yes"/>
      <point x="357" y="-7"/>
      <point x="481" y="150"/>
      <point x="481" y="348" type="curve" smooth="yes"/>
      <point x="481" y="453"/>
      <point x="417" y="525"/>
      <point x="322" y="525" type="curve" smooth="yes"/>
      <point x="161" y="525"/>
      <point x="39" y="372"/>
      <point x="39" y="169" type="curve" smooth="yes"/>
      <point x="39" y="62"/>
      <point x="102" y="-7"/>
    </contour>
    <contour>
      <point x="201" y="25" type="curve" smooth="yes"/>
      <point x="124" y="25"/>
      <point x="75" y="81"/>
      <point x="75" y="169" type="curve" smooth="yes"/>
      <point x="75" y="191"/>
      <point x="77" y="213"/>
      <point x="80" y="234" type="curve"/>
      <point x="108" y="259"/>
      <point x="143" y="272"/>
      <point x="181" y="272" type="curve" smooth="yes"/>
      <point x="235" y="272"/>
      <point x="279" y="219"/>
      <point x="343" y="219" type="curve" smooth="yes"/>
      <point x="375" y="219"/>
      <point x="405" y="227"/>
      <point x="433" y="245" type="curve"/>
      <point x="402" y="115"/>
      <point x="312" y="25"/>
    </contour>
    <contour>
      <point x="348" y="251" type="curve" smooth="yes"/>
      <point x="292" y="251"/>
      <point x="245" y="304"/>
      <point x="186" y="304" type="curve" smooth="yes"/>
      <point x="149" y="304"/>
      <point x="116" y="293"/>
      <point x="87" y="271" type="curve"/>
      <point x="118" y="402"/>
      <point x="209" y="493"/>
      <point x="321" y="493" type="curve" smooth="yes"/>
      <point x="397" y="493"/>
      <point x="445" y="436"/>
      <point x="445" y="346" type="curve" smooth="yes"/>
      <point x="445" y="324"/>
      <point x="443" y="302"/>
      <point x="440" y="282" type="curve"/>
      <point x="414" y="262"/>
      <point x="381" y="251"/>
    </contour>
  </outline>
</glyph>
<glyph name="Semisoftsign-cy" format="2">
  <advance width="571"/>
  <unicode hex="048C"/>
  <outline>
    <contour>
      <point x="192" y="-6" type="curve" smooth="yes"/>
      <point x="393" y="-6"/>
      <point x="516" y="91"/>
      <point x="516" y="256" type="curve" smooth="yes"/>
      <point x="516" y="368"/>
      <point x="446" y="425"/>
      <point x="292" y="425" type="curve" smooth="yes"/>
      <point x="249" y="425"/>
      <point x="188" y="422"/>
      <point x="164" y="416" type="curve"/>
      <point x="200" y="566" type="line"/>
      <point x="347" y="566" type="line"/>
      <point x="355" y="600" type="line"/>
      <point x="208" y="600" type="line"/>
      <point x="230" y="693" type="line"/>
      <point x="192" y="693" type="line"/>
      <point x="170" y="600" type="line"/>
      <point x="94" y="600" type="line"/>
      <point x="86" y="566" type="line"/>
      <point x="162" y="566" type="line"/>
      <point x="30" y="10" type="line"/>
      <point x="62" y="-1"/>
      <point x="124" y="-6"/>
    </contour>
    <contour>
      <point x="196" y="28" type="curve" smooth="yes"/>
      <point x="157" y="28"/>
      <point x="105" y="32"/>
      <point x="73" y="37" type="curve"/>
      <point x="156" y="382" type="line"/>
      <point x="186" y="387"/>
      <point x="242" y="391"/>
      <point x="279" y="391" type="curve" smooth="yes"/>
      <point x="426" y="391"/>
      <point x="478" y="345"/>
      <point x="478" y="253" type="curve" smooth="yes"/>
      <point x="478" y="109"/>
      <point x="375" y="28"/>
    </contour>
  </outline>
</glyph>
<glyph name="gestroke-cy" format="2">
  <advance width="360"/>
  <unicode hex="0493"/>
  <outline>
    <contour>
      <point x="141" y="-7" type="curve" smooth="yes"/>
      <point x="195" y="-7"/>
      <point x="248" y="0"/>
      <point x="297" y="22" type="curve"/>
      <point x="294" y="54" type="line"/>
      <point x="245" y="34"/>
      <point x="195" y="25"/>
      <point x="142" y="25" type="curve" smooth="yes"/>
      <point x="89" y="25"/>
      <point x="45" y="53"/>
      <point x="45" y="106" type="curve" smooth="yes"/>
      <point x="45" y="182"/>
      <point x="105" y="216"/>
      <point x="181" y="247" type="curve"/>
      <point x="288" y="191" type="line"/>
      <point x="305" y="217" type="line"/>
      <point x="219" y="262" type="line"/>
      <point x="295" y="293"/>
      <point x="363" y="335"/>
      <point x="363" y="421" type="curve" smooth="yes"/>
      <point x="363" y="486"/>
      <point x="305" y="525"/>
      <point x="232" y="525" type="curve" smooth="yes"/>
      <point x="185" y="525"/>
      <point x="137" y="520"/>
      <point x="95" y="499" type="curve"/>
      <point x="97" y="469" type="line"/>
      <point x="138" y="486"/>
      <point x="181" y="493"/>
      <point x="225" y="493" type="curve" smooth="yes"/>
      <point x="280" y="493"/>
      <point x="327" y="466"/>
      <point x="327" y="417" type="curve" smooth="yes"/>
      <point x="327" y="343"/>
      <point x="262" y="314"/>
      <point x="181" y="282" type="curve"/>
      <point x="76" y="336" type="line"/>
      <point x="59" y="310" type="line"/>
      <point x="143" y="266" type="line"/>
      <point x="73" y="235"/>
      <point x="9" y="191"/>
      <point x="9" y="106" type="curve" smooth="yes"/>
      <point x="9" y="32"/>
      <point x="68" y="-7"/>
    </contour>
  </outline>
</glyph>
<glyph name="gemiddlehook-cy" format="2">
  <advance width="496"/>
  <unicode hex="0495"/>
  <outline>
    <contour>
      <point x="155" y="-184" type="curve" smooth="yes"/>
      <point x="316" y="-184"/>
      <point x="424" y="5"/>
      <point x="424" y="162" type="curve" smooth="yes"/>
      <point x="424" y="262"/>
      <point x="373" y="315"/>
      <point x="279" y="315" type="curve" smooth="yes"/>
      <point x="231" y="315"/>
      <point x="181" y="305"/>
      <point x="130" y="283" type="curve"/>
      <point x="178" y="483" type="line"/>
      <point x="429" y="483" type="line"/>
      <point x="436" y="513" type="line"/>
      <point x="151" y="513" type="line"/>
      <point x="28" y="0" type="line"/>
      <point x="62" y="0" type="line"/>
      <point x="122" y="250" type="line"/>
      <point x="172" y="269"/>
      <point x="227" y="283"/>
      <point x="274" y="283" type="curve" smooth="yes"/>
      <point x="352" y="283"/>
      <point x="387" y="237"/>
      <point x="387" y="154" type="curve" smooth="yes"/>
      <point x="387" y="20"/>
      <point x="295" y="-152"/>
      <point x="158" y="-152" type="curve" smooth="yes"/>
      <point x="146" y="-152"/>
      <point x="136" y="-151"/>
      <point x="128" y="-149" type="curve"/>
      <point x="117" y="-180" type="line"/>
      <point x="127" y="-183"/>
      <point x="144" y="-184"/>
    </contour>
  </outline>
</glyph>
<glyph name="zhedescender-cy" format="2">
  <advance width="794"/>
  <unicode hex="0497"/>
  <outline>
    <contour>
      <point x="643" y="-143" type="line"/>
      <point x="677" y="-143" type="line"/>
      <point x="718" y="30" type="line"/>
      <point x="704" y="26"/>
      <point x="691" y="24"/>
      <point x="667" y="24" type="curve" smooth="yes"/>
      <point x="596" y="24"/>
      <point x="567" y="64"/>
      <point x="567" y="163" type="curve" smooth="yes"/>
      <point x="567" y="359"/>
      <point x="644" y="486"/>
      <point x="763" y="486" type="curve" smooth="yes"/>
      <point x="778" y="486"/>
      <point x="788" y="485"/>
      <point x="796" y="482" type="curve"/>
      <point x="808" y="515" type="line"/>
      <point x="799" y="517"/>
      <point x="790" y="518"/>
      <point x="773" y="518" type="curve" smooth="yes"/>
      <point x="654" y="518"/>
      <point x="574" y="437"/>
      <point x="543" y="285" type="curve"/>
      <point x="413" y="285" type="line"/>
      <point x="468" y="513" type="line"/>
      <point x="435" y="513" type="line"/>
      <point x="380" y="285" type="line"/>
      <point x="247" y="285" type="line"/>
      <point x="250" y="316"/>
      <point x="251" y="338"/>
      <point x="251" y="358" type="curve" smooth="yes"/>
      <point x="251" y="460"/>
      <point x="207" y="518"/>
      <point x="130" y="518" type="curve" smooth="yes"/>
      <point x="107" y="518"/>
      <point x="97" y="518"/>
      <point x="85" y="516" type="curve"/>
      <point x="90" y="484" type="line"/>
      <point x="100" y="486"/>
      <point x="113" y="487"/>
      <point x="125" y="487" type="curve" smooth="yes"/>
      <point x="184" y="487"/>
      <point x="215" y="440"/>
      <point x="215" y="349" type="curve" smooth="yes"/>
      <point x="215" y="150"/>
      <point x="138" y="24"/>
      <point x="15" y="24" type="curve" smooth="yes"/>
      <point x="-1" y="24"/>
      <point x="-15" y="26"/>
      <point x="-31" y="31" type="curve"/>
      <point x="-42" y="-2" type="line"/>
      <point x="-28" y="-6"/>
      <point x="-12" y="-8"/>
      <point x="12" y="-8" type="curve" smooth="yes"/>
      <point x="133" y="-8"/>
      <point x="221" y="92"/>
      <point x="244" y="254" type="curve"/>
      <point x="372" y="254" type="line"/>
      <point x="312" y="0" type="line"/>
      <point x="345" y="0" type="line"/>
      <point x="405" y="254" type="line"/>
      <point x="539" y="254" type="line"/>
      <point x="534" y="221"/>
      <point x="531" y="183"/>
      <point x="531" y="155" type="curve" smooth="yes"/>
      <point x="531" y="50"/>
      <point x="575" y="-8"/>
      <point x="657" y="-8" type="curve" smooth="yes"/>
      <point x="664" y="-8"/>
      <point x="670" y="-8"/>
      <point x="675" y="-8" type="curve"/>
    </contour>
  </outline>
</glyph>
<glyph name="Zedescender-cy" format="2">
  <advance width="491"/>
  <unicode hex="0498"/>
  <outline>
    <contour>
      <point x="115" y="-185" type="curve" smooth="yes"/>
      <point x="189" y="-185"/>
      <point x="222" y="-145"/>
      <point x="222" y="-100" type="curve" smooth="yes"/>
      <point x="222" y="-73"/>
      <point x="205" y="-53"/>
      <point x="173" y="-39" type="curve"/>
      <point x="180" y="-28"/>
      <point x="187" y="-18"/>
      <point x="194" y="-8" type="curve"/>
      <point x="302" y="2"/>
      <point x="431" y="59"/>
      <point x="431" y="225" type="curve" smooth="yes"/>
      <point x="431" y="297"/>
      <point x="378" y="355"/>
      <point x="306" y="371" type="curve"/>
      <point x="371" y="384"/>
      <point x="483" y="438"/>
      <point x="483" y="557" type="curve" smooth="yes"/>
      <point x="483" y="656"/>
      <point x="399" y="703"/>
      <point x="295" y="703" type="curve" smooth="yes"/>
      <point x="223" y="703"/>
      <point x="176" y="692"/>
      <point x="139" y="674" type="curve"/>
      <point x="151" y="646" type="line"/>
      <point x="188" y="660"/>
      <point x="218" y="669"/>
      <point x="291" y="669" type="curve" smooth="yes"/>
      <point x="394" y="669"/>
      <point x="445" y="621"/>
      <point x="445" y="557" type="curve" smooth="yes"/>
      <point x="445" y="442"/>
      <point x="331" y="387"/>
      <point x="214" y="387" type="curve" smooth="yes"/>
      <point x="174" y="387" type="line"/>
      <point x="165" y="353" type="line"/>
      <point x="205" y="353" type="line" smooth="yes"/>
      <point x="299" y="353"/>
      <point x="393" y="323"/>
      <point x="393" y="220" type="curve" smooth="yes"/>
      <point x="393" y="79"/>
      <point x="276" y="24"/>
      <point x="155" y="24" type="curve" smooth="yes"/>
      <point x="86" y="24"/>
      <point x="27" y="41"/>
      <point x="-4" y="64" type="curve"/>
      <point x="-20" y="32" type="line"/>
      <point x="19" y="8"/>
      <point x="79" y="-10"/>
      <point x="162" y="-10" type="curve"/>
      <point x="152" y="-24"/>
      <point x="140" y="-40"/>
      <point x="130" y="-55" type="curve"/>
      <point x="175" y="-64"/>
      <point x="188" y="-82"/>
      <point x="188" y="-105" type="curve" smooth="yes"/>
      <point x="188" y="-134"/>
      <point x="166" y="-155"/>
      <point x="114" y="-155" type="curve" smooth="yes"/>
      <point x="98" y="-155"/>
      <point x="79" y="-152"/>
      <point x="65" y="-147" type="curve"/>
      <point x="54" y="-175" type="line"/>
      <point x="71" y="-182"/>
      <point x="91" y="-185"/>
    </contour>
  </outline>
</glyph>
<glyph name="Kadescender-cy" format="2">
  <advance width="595"/>
  <unicode hex="049A"/>
  <outline>
    <contour>
      <point x="445" y="-185" type="line"/>
      <point x="481" y="-185" type="line"/>
      <point x="533" y="34" type="line"/>
      <point x="470" y="34" type="line"/>
      <point x="384" y="182"/>
      <point x="288" y="287"/>
      <point x="191" y="353" type="curve"/>
      <point x="346" y="454"/>
      <point x="494" y="570"/>
      <point x="632" y="693" type="curve"/>
      <point x="583" y="693" type="line"/>
      <point x="450" y="570"/>
      <point x="303" y="463"/>
      <point x="150" y="365" type="curve"/>
      <point x="229" y="693" type="line"/>
      <point x="192" y="693" type="line"/>
      <point x="26" y="0" type="line"/>
      <point x="63" y="0" type="line"/>
      <point x="145" y="344" type="line"/>
      <point x="262" y="266"/>
      <point x="361" y="159"/>
      <point x="450" y="0" type="curve"/>
      <point x="489" y="0" type="line"/>
    </contour>
  </outline>
</glyph>
<glyph name="kadescender-cy" format="2">
  <advance width="479"/>
  <unicode hex="049B"/>
  <outline>
    <contour>
      <point x="375" y="-143" type="line"/>
      <point x="409" y="-143" type="line"/>
      <point x="451" y="36" type="line"/>
      <point x="400" y="36" type="line"/>
      <point x="359" y="116"/>
      <point x="275" y="217"/>
      <point x="166" y="285" type="curve"/>
      <point x="252" y="334"/>
      <point x="386" y="447"/>
      <point x="439" y="513" type="curve"/>
      <point x="400" y="513" type="line"/>
      <point x="359" y="465"/>
      <point x="235" y="359"/>
      <point x="131" y="294" type="curve"/>
      <point x="184" y="513" type="line"/>
      <point x="150" y="513" type="line"/>
      <point x="26" y="0" type="line"/>
      <point x="60" y="0" type="line"/>
      <point x="126" y="274" type="line"/>
      <point x="214" y="223"/>
      <point x="312" y="145"/>
      <point x="382" y="0" type="curve"/>
      <point x="409" y="0" type="line"/>
    </contour>
  </outline>
</glyph>
<glyph name="kaverticalstroke-cy" format="2">
  <advance width="522"/>
  <unicode hex="049D"/>
  <outline>
    <contour>
      <point x="27" y="0" type="line"/>
      <point x="61" y="0" type="line"/>
      <point x="122" y="257" type="line"/>
      <point x="208" y="257" type="line"/>
      <point x="178" y="133" type="line"/>
      <point x="210" y="133" type="line"/>
      <point x="241" y="261" type="line"/>
      <point x="313" y="210"/>
      <point x="386" y="101"/>
      <point x="424" y="0" type="curve"/>
      <point x="458" y="0" type="line"/>
      <point x="419" y="105"/>
      <point x="342" y="221"/>
      <point x="276" y="273" type="curve"/>
      <point x="377" y="350"/>
      <point x="469" y="432"/>
      <point x="553" y="513" type="curve"/>
      <point x="508" y="512" type="line"/>
      <point x="437" y="439"/>
      <point x="356" y="372"/>
      <point x="247" y="284" type="curve"/>
      <point x="277" y="411" type="line"/>
      <point x="245" y="411" type="line"/>
      <point x="215" y="287" type="line"/>
      <point x="129" y="287" type="line"/>
      <point x="184" y="513" type="line"/>
      <point x="150" y="513" type="line"/>
    </contour>
  </outline>
</glyph>
<glyph name="kabashkir-cy" format="2">
  <advance width="529"/>
  <unicode hex="04A1"/>
  <outline>
    <contour>
      <point x="76" y="0" type="line"/>
      <point x="110" y="0" type="line"/>
      <point x="176" y="274" type="line"/>
      <point x="264" y="223"/>
      <point x="362" y="145"/>
      <point x="432" y="0" type="curve"/>
      <point x="465" y="0" type="line"/>
      <point x="434" y="84"/>
      <point x="342" y="206"/>
      <point x="216" y="285" type="curve"/>
      <point x="302" y="334"/>
      <point x="436" y="447"/>
      <point x="489" y="513" type="curve"/>
      <point x="450" y="513" type="line"/>
      <point x="409" y="465"/>
      <point x="285" y="359"/>
      <point x="181" y="294" type="curve"/>
      <point x="234" y="513" type="line"/>
      <point x="70" y="513" type="line"/>
      <point x="63" y="478" type="line"/>
      <point x="192" y="478" type="line"/>
    </contour>
  </outline>
</glyph>
<glyph name="Endescender-cy" format="2">
  <advance width="629"/>
  <unicode hex="04A2"/>
  <outline>
    <contour>
      <point x="455" y="-185" type="line"/>
      <point x="491" y="-185" type="line"/>
      <point x="543" y="34" type="line"/>
      <point x="500" y="34" type="line"/>
      <point x="657" y="693" type="line"/>
      <point x="620" y="693" type="line"/>
      <point x="545" y="380" type="line"/>
      <point x="153" y="380" type="line"/>
      <point x="229" y="693" type="line"/>
      <point x="192" y="693" type="line"/>
      <point x="26" y="0" type="line"/>
      <point x="63" y="0" type="line"/>
      <point x="146" y="346" type="line"/>
      <point x="538" y="346" type="line"/>
      <point x="455" y="0" type="line"/>
      <point x="499" y="0" type="line"/>
    </contour>
  </outline>
</glyph>
<glyph name="endescender-cy" format="2">
  <advance width="527"/>
  <unicode hex="04A3"/>
  <outline>
    <contour>
      <point x="384" y="-143" type="line"/>
      <point x="420" y="-143" type="line"/>
      <point x="462" y="30" type="line"/>
      <point x="419" y="30" type="line"/>
      <point x="535" y="513" type="line"/>
      <point x="501" y="513" type="line"/>
      <point x="445" y="283" type="line"/>
      <point x="128" y="283" type="line"/>
      <point x="184" y="513" type="line"/>
      <point x="150" y="513" type="line"/>
      <point x="27" y="0" type="line"/>
      <point x="61" y="0" type="line"/>
      <point x="121" y="253" type="line"/>
      <point x="438" y="253" type="line"/>
      <point x="378" y="0" type="line"/>
      <point x="418" y="0" type="line"/>
    </contour>
  </outline>
</glyph>
<glyph name="Pemiddlehook-cy" format="2">
  <advance width="1012"/>
  <unicode hex="04A6"/>
  <outline>
    <contour>
      <point x="626" y="-185" type="curve" smooth="yes"/>
      <point x="827" y="-185"/>
      <point x="945" y="9"/>
      <point x="945" y="236" type="curve" smooth="yes"/>
      <point x="945" y="365"/>
      <point x="881" y="431"/>
      <point x="756" y="431" type="curve" smooth="yes"/>
      <point x="694" y="431"/>
      <point x="648" y="418"/>
      <point x="594" y="394" type="curve"/>
      <point x="665" y="693" type="line"/>
      <point x="192" y="693" type="line"/>
      <point x="26" y="0" type="line"/>
      <point x="63" y="0" type="line"/>
      <point x="221" y="659" type="line"/>
      <point x="620" y="659" type="line"/>
      <point x="462" y="0" type="line"/>
      <point x="499" y="0" type="line"/>
      <point x="585" y="360" type="line"/>
      <point x="632" y="383"/>
      <point x="692" y="397"/>
      <point x="747" y="397" type="curve" smooth="yes"/>
      <point x="855" y="397"/>
      <point x="906" y="340"/>
      <point x="906" y="231" type="curve" smooth="yes"/>
      <point x="906" y="23"/>
      <point x="795" y="-151"/>
      <point x="634" y="-151" type="curve" smooth="yes"/>
      <point x="625" y="-151"/>
      <point x="609" y="-151"/>
      <point x="588" y="-148" type="curve"/>
      <point x="578" y="-181" type="line"/>
      <point x="595" y="-184"/>
      <point x="614" y="-185"/>
    </contour>
  </outline>
</glyph>
<glyph name="Ustraightstroke-cy" format="2">
  <advance width="523"/>
  <unicode hex="04B0"/>
  <outline>
    <contour>
      <point x="181" y="0" type="line"/>
      <point x="218" y="0" type="line"/>
      <point x="275" y="236" type="line"/>
      <point x="416" y="236" type="line"/>
      <point x="424" y="266" type="line"/>
      <point x="282" y="266" type="line"/>
      <point x="421" y="415"/>
      <point x="524" y="558"/>
      <point x="622" y="693" type="curve"/>
      <point x="579" y="693" type="line"/>
      <point x="514" y="594"/>
      <point x="383" y="427"/>
      <point x="269" y="299" type="curve"/>
      <point x="222" y="431"/>
      <point x="190" y="566"/>
      <point x="161" y="693" type="curve"/>
      <point x="125" y="693" type="line"/>
      <point x="156" y="549"/>
      <point x="191" y="416"/>
      <point x="245" y="266" type="curve"/>
      <point x="114" y="266" type="line"/>
      <point x="106" y="236" type="line"/>
      <point x="238" y="236" type="line"/>
    </contour>
  </outline>
</glyph>
<glyph name="ustraightstroke-cy" format="2">
  <advance width="479"/>
  <unicode hex="04B1"/>
  <outline>
    <contour>
      <point x="121" y="-185" type="line"/>
      <point x="155" y="-185" type="line"/>
      <point x="199" y="0" type="line"/>
      <point x="341" y="0" type="line"/>
      <point x="348" y="30" type="line"/>
      <point x="225" y="30" type="line"/>
      <point x="336" y="178"/>
      <point x="432" y="336"/>
      <point x="485" y="513" type="curve"/>
      <point x="450" y="513" type="line"/>
      <point x="396" y="338"/>
      <point x="301" y="181"/>
      <point x="191" y="34" type="curve"/>
      <point x="156" y="191"/>
      <point x="135" y="352"/>
      <point x="135" y="513" type="curve"/>
      <point x="100" y="513" type="line"/>
      <point x="100" y="350"/>
      <point x="124" y="189"/>
      <point x="156" y="30" type="curve"/>
      <point x="29" y="30" type="line"/>
      <point x="22" y="0" type="line"/>
      <point x="164" y="0" type="line"/>
    </contour>
  </outline>
</glyph>
<glyph name="Tetse-cy" format="2">
  <advance width="752"/>
  <unicode hex="04B4"/>
  <outline>
    <contour>
      <point x="578" y="-185" type="line"/>
      <point x="614" y="-185" type="line"/>
      <point x="666" y="34" type="line"/>
      <point x="623" y="34" type="line"/>
      <point x="781" y="693" type="line"/>
      <point x="744" y="693" type="line"/>
      <point x="586" y="34" type="line"/>
      <point x="191" y="34" type="line"/>
      <point x="341" y="659" type="line"/>
      <point x="533" y="659" type="line"/>
      <point x="541" y="693" type="line"/>
      <point x="114" y="693" type="line"/>
      <point x="106" y="659" type="line"/>
      <point x="304" y="659" type="line"/>
      <point x="146" y="0" type="line"/>
      <point x="622" y="0" type="line"/>
    </contour>
  </outline>
</glyph>
<glyph name="tetse-cy" format="2">
  <advance width="626"/>
  <unicode hex="04B5"/>
  <outline>
    <contour>
      <point x="485" y="-143" type="line"/>
      <point x="519" y="-143" type="line"/>
      <point x="561" y="30" type="line"/>
      <point x="497" y="30"/>
      <point x="470" y="50"/>
      <point x="470" y="103" type="curve" smooth="yes"/>
      <point x="470" y="125"/>
      <point x="474" y="153"/>
      <point x="483" y="187" type="curve" smooth="yes"/>
      <point x="565" y="513" type="line"/>
      <point x="531" y="513" type="line"/>
      <point x="463" y="244" type="line" smooth="yes"/>
      <point x="454" y="207"/>
      <point x="436" y="142"/>
      <point x="435" y="97" type="curve"/>
      <point x="385" y="52"/>
      <point x="338" y="25"/>
      <point x="262" y="25" type="curve" smooth="yes"/>
      <point x="179" y="25"/>
      <point x="154" y="67"/>
      <point x="154" y="130" type="curve" smooth="yes"/>
      <point x="154" y="179"/>
      <point x="170" y="242"/>
      <point x="185" y="305" type="curve" smooth="yes"/>
      <point x="228" y="484" type="line"/>
      <point x="350" y="484" type="line"/>
      <point x="357" y="513" type="line"/>
      <point x="70" y="513" type="line"/>
      <point x="63" y="484" type="line"/>
      <point x="194" y="484" type="line"/>
      <point x="141" y="266" type="line" smooth="yes"/>
      <point x="129" y="217"/>
      <point x="120" y="170"/>
      <point x="120" y="129" type="curve" smooth="yes"/>
      <point x="120" y="50"/>
      <point x="154" y="-6"/>
      <point x="266" y="-6" type="curve" smooth="yes"/>
      <point x="331" y="-6"/>
      <point x="391" y="22"/>
      <point x="441" y="65" type="curve"/>
      <point x="447" y="33"/>
      <point x="477" y="6"/>
      <point x="519" y="0" type="curve"/>
    </contour>
  </outline>
</glyph>
